<svg width="129" height="153" viewBox="0 0 129 153" fill="none" xmlns="http://www.w3.org/2000/svg">
<path opacity="0.1" d="M158.382 88.9569C177.184 116.244 170.305 153.606 143.018 172.407C115.731 191.209 78.3695 184.33 59.568 157.043C40.7665 129.756 47.6453 92.3942 74.9321 73.5928" stroke="#3E4965" stroke-width="4"/>
<path opacity="0.1" d="M108.975 203C153.158 203 188.975 167.183 188.975 123C188.975 78.8172 153.158 43 108.975 43C64.7924 43 28.9752 78.8172 28.9752 123" stroke="#0EA085" stroke-width="4"/>
<path opacity="0.1" d="M208.597 114.315C213.394 169.335 172.68 217.826 117.66 222.622C62.6404 227.419 14.1497 186.705 9.35307 131.685C4.55647 76.6653 45.2704 28.1745 100.29 23.3779" stroke="#F29B20" stroke-width="4"/>
<path opacity="0.1" d="M53.6965 229.509C112.52 260.039 184.955 237.102 215.485 178.279C246.014 119.455 223.077 47.0201 164.254 16.4905C105.43 -14.0391 32.9953 8.89766 2.46573 67.7212" stroke="#3896D2" stroke-width="4"/>
</svg>
