<svg width="295" height="364" viewBox="0 0 295 364" fill="none" xmlns="http://www.w3.org/2000/svg">
<g opacity="0.4">
<path d="M-140.476 283.29L38.7987 104.015C49.7527 93.0607 49.7527 75.2604 38.7987 64.3064C27.8446 53.3523 10.0443 53.3523 -0.909756 64.3064L-180.185 243.581C-191.139 254.535 -191.139 272.336 -180.185 283.29C-169.231 294.244 -151.43 294.244 -140.476 283.29Z" stroke="#B1DAFF" stroke-miterlimit="10"/>
<path d="M10.7289 -38.681L-34.1632 6.21103C-38.4665 10.5144 -38.4665 17.4585 -34.1632 21.6641C-29.8598 25.9674 -22.9157 25.9674 -18.7101 21.6641L26.1819 -23.228C30.4853 -27.5314 30.4853 -34.4755 26.1819 -38.681C21.9763 -42.8866 15.0323 -42.8866 10.7289 -38.681Z" fill="#047BE8"/>
<path d="M-92.8456 254.242L28.1379 133.258C30.2896 131.106 33.7128 131.106 35.8645 133.258C38.0162 135.41 38.0162 138.833 35.8645 140.985L10.8267 166.022C6.52331 170.326 6.22987 177.27 10.4354 181.671C14.7388 186.072 21.7807 186.17 26.0841 181.769L30.4853 177.368C32.5392 175.314 35.7667 175.02 38.0162 176.879C40.5591 178.933 40.6569 182.747 38.4074 184.996L0.557259 222.847C-3.74612 227.15 -4.03956 234.094 0.166016 238.495C4.4694 242.896 11.5113 242.994 15.8147 238.593L199.099 55.3082C203.403 51.0048 203.696 44.0607 199.491 39.6595C195.187 35.2584 188.145 35.1606 183.842 39.5618L145.894 77.5097C143.84 79.5636 140.613 79.857 138.363 77.9987C135.82 75.9449 135.722 72.1305 137.972 69.881L219.149 -11.2963C223.453 -15.5997 223.746 -22.5438 219.54 -26.945C215.237 -31.3462 208.195 -31.444 203.892 -27.0428L202.034 -25.1845C199.882 -23.0328 196.459 -23.0328 194.307 -25.1845C192.155 -27.3362 192.155 -30.7594 194.307 -32.911L235.678 -74.2822C239.982 -78.5856 240.275 -85.5296 236.069 -89.9308C231.766 -94.332 224.724 -94.4298 220.421 -90.0286L121.345 9.04689C117.042 13.3503 116.748 20.2944 120.954 24.6955C125.257 29.0967 132.299 29.1945 136.603 24.7934L141.884 19.5119C144.036 17.3603 147.459 17.3603 149.611 19.5119C151.762 21.6636 151.762 25.0868 149.611 27.2385L60.5111 116.338C58.3594 118.49 54.9363 118.49 52.7846 116.338C50.6329 114.186 50.6329 110.763 52.7846 108.611L56.599 104.797C60.9023 100.494 61.1957 93.5496 56.9901 89.1484C52.6868 84.7473 45.6449 84.6494 41.3415 89.0506L-108.592 238.984C-112.895 243.288 -112.895 250.329 -108.494 254.633C-104.093 258.838 -97.0512 258.545 -92.8456 254.242Z" fill="#369FFF"/>
<path d="M41.8303 11.9808L111.76 -57.9491C116.064 -62.2525 116.064 -69.1965 111.76 -73.4021C107.457 -77.7055 100.513 -77.7055 96.3072 -73.4021L26.3773 -3.4722C22.0739 0.831177 22.0739 7.77525 26.3773 11.9808C30.6807 16.1864 37.6248 16.1864 41.8303 11.9808Z" fill="#B1DAFF"/>
<path d="M61.1959 53.3523L85.8425 28.7057C90.1458 24.4024 90.1458 17.4583 85.8425 13.2527C81.5391 8.9493 74.595 8.9493 70.3894 13.2527L45.7428 37.8993C41.4394 42.2027 41.4394 49.1468 45.7428 53.3523C49.9484 57.6557 56.8925 57.6557 61.1959 53.3523Z" fill="#369FFF"/>
<path d="M14.25 39.5617C18.5533 35.2583 18.5533 28.3142 14.25 24.1086C9.94658 19.8053 3.00244 19.8053 -1.20313 24.1086C-5.50651 28.412 -5.50651 35.3561 -1.20313 39.5617C3.10025 43.7673 10.0444 43.7673 14.25 39.5617Z" fill="#369FFF"/>
</g>
</svg>
