<svg width="445" height="354" viewBox="0 0 445 354" fill="none" xmlns="http://www.w3.org/2000/svg">
<g opacity="0.9" filter="url(#filter0_f_205_3668)">
<g filter="url(#filter1_d_205_3668)">
<circle cx="315" cy="49" r="19" fill="white"/>
</g>
<path d="M315.514 37.6005C316.155 37.5891 316.763 37.816 317.217 38.2503C317.673 38.6709 317.917 39.2535 317.917 39.8691C317.917 41.123 318.978 42.1388 320.297 42.1388C320.705 42.1388 321.113 42.0236 321.476 41.8298C322.606 41.2359 324.017 41.6132 324.659 42.6734L325.453 44.0072C325.651 44.3492 325.767 44.7368 325.767 45.1358C325.767 45.9452 325.313 46.6987 324.578 47.0965C324.215 47.2903 323.912 47.5867 323.703 47.9299C323.084 49.0003 323.47 50.3557 324.578 50.9736C325.697 51.5995 326.082 52.9686 325.453 54.0504L324.659 55.3397C324.239 56.0454 323.457 56.4797 322.617 56.4797C322.198 56.4797 321.778 56.376 321.429 56.1708C321.054 55.977 320.647 55.863 320.238 55.863C319.608 55.863 319.002 56.1035 318.559 56.5356C318.103 56.9585 317.858 57.5387 317.858 58.1429C317.858 59.3855 316.798 60.4001 315.479 60.4001H313.882C313.251 60.4001 312.656 60.1493 312.225 59.7275C311.781 59.2943 311.549 58.7243 311.549 58.1315C311.549 56.8776 310.498 55.863 309.182 55.863C308.749 55.863 308.329 55.977 307.967 56.1947C307.419 56.49 306.766 56.5698 306.159 56.4216C305.553 56.262 305.028 55.8744 304.713 55.3614L303.968 54.0732C303.617 53.5386 303.512 52.899 303.676 52.2948C303.838 51.6907 304.259 51.1777 304.83 50.8699C305.192 50.6761 305.494 50.3911 305.704 50.0377C306.312 48.9661 305.926 47.6209 304.83 46.9939C303.722 46.3783 303.337 45.0218 303.968 43.9502L304.713 42.6734C305.028 42.1388 305.553 41.75 306.171 41.5904C306.79 41.4308 307.442 41.5209 307.991 41.8298C308.364 42.0236 308.772 42.1262 309.182 42.1262C309.811 42.1262 310.417 41.8868 310.86 41.465C311.303 41.0432 311.549 40.4619 311.549 39.8691C311.549 38.6151 312.61 37.6005 313.928 37.6005H315.514ZM315.982 46.1287C314.757 45.6374 313.344 45.8996 312.4 46.8001C311.467 47.6893 311.175 49.0459 311.688 50.2098C312.191 51.3829 313.379 52.1466 314.709 52.1466H314.722C315.597 52.158 316.413 51.8286 317.03 51.2347C317.648 50.6533 317.998 49.8553 317.998 49.0231C318.01 47.7577 317.205 46.6063 315.982 46.1287Z" fill="#EEC319"/>
</g>
<g opacity="0.9" filter="url(#filter2_f_205_3668)">
<g filter="url(#filter3_d_205_3668)">
<circle cx="49" cy="237" r="19" fill="white"/>
</g>
<path d="M55.3 236.96C56.7912 236.96 58 238.196 58 239.72V240.64C58 244.267 54.6529 248 49 248C43.3471 248 40 244.267 40 240.64V239.72C40 238.196 41.2088 236.96 42.7 236.96H55.3ZM49 225C51.7338 225 53.95 227.265 53.95 230.06C53.95 232.855 51.7338 235.12 49 235.12C46.2662 235.12 44.05 232.855 44.05 230.06C44.05 227.265 46.2662 225 49 225Z" fill="#E64C3B"/>
</g>
<rect opacity="0.2" x="50.6977" y="102.089" width="360" height="208" rx="16" transform="rotate(-5.60856 50.6977 102.089)" fill="white"/>
<rect x="44.7214" y="116.71" width="360" height="208" rx="16" transform="rotate(-9.96297 44.7214 116.71)" fill="white"/>
<g filter="url(#filter4_d_205_3668)">
<rect x="72.5117" y="136.196" width="72" height="20" rx="8" transform="rotate(-9.96297 72.5117 136.196)" fill="white"/>
<rect x="79.4593" y="141.067" width="60" height="8" rx="4" transform="rotate(-9.96297 79.4593 141.067)" fill="#1CB898"/>
</g>
<rect x="80.1242" y="179.532" width="120" height="8" rx="4" transform="rotate(-9.96297 80.1242 179.532)" fill="#F2F4F7"/>
<rect x="86.3527" y="214.99" width="80" height="8" rx="4" transform="rotate(-9.96297 86.3527 214.99)" fill="#B2BFD2"/>
<path opacity="0.3" d="M161.665 244.91C128.444 229.465 108.833 268.067 97.9444 280.979L405.239 226.999C391 218 370.144 193.77 327.578 163.478C274.372 125.612 265.592 293.228 161.665 244.91Z" fill="url(#paint0_linear_205_3668)"/>
<path opacity="0.3" d="M202 230.999C181.01 261.027 108.833 268.067 97.9443 280.979L405.239 226.999C391 218 321.5 216.999 291.5 203C232.322 175.383 238 179.499 202 230.999Z" fill="url(#paint1_linear_205_3668)"/>
<path d="M97.9444 280.979C108.833 268.067 181.01 261.027 202 230.999C238 179.499 232.322 175.383 291.5 203C321.5 216.999 391 218 405.239 226.999" stroke="#3896D2" stroke-width="2" stroke-linecap="round"/>
<path d="M97.9444 280.979C108.833 268.067 128.444 229.465 161.665 244.91C265.592 293.228 274.372 125.612 327.578 163.478C370.144 193.77 394.585 221.256 405.239 226.999" stroke="#AC7AB4" stroke-width="2" stroke-linecap="round"/>
<rect x="320.712" y="92.5972" width="60" height="22" rx="4" transform="rotate(-9.96297 320.712 92.5972)" fill="#D3F8F1"/>
<path d="M334.103 106.49L332.163 106.831L333.932 96.1821L336.175 95.7882L341.472 105.195L339.533 105.536L335.454 98.0348L335.376 98.0486L334.103 106.49ZM333.475 102.547L338.764 101.618L339.02 103.077L333.732 104.006L333.475 102.547ZM345.792 104.588C345.041 104.72 344.368 104.668 343.771 104.433C343.178 104.198 342.685 103.815 342.292 103.285C341.902 102.751 341.641 102.104 341.507 101.343C341.373 100.579 341.401 99.8791 341.592 99.2432C341.783 98.604 342.117 98.0742 342.595 97.6537C343.076 97.2294 343.684 96.9527 344.418 96.8237C345.029 96.7164 345.589 96.7342 346.098 96.8768C346.611 97.0157 347.043 97.2644 347.395 97.6232C347.747 97.9786 347.99 98.4239 348.125 98.9589L346.43 99.2565C346.298 98.9062 346.082 98.6329 345.782 98.4367C345.484 98.2365 345.121 98.1741 344.694 98.2492C344.331 98.3128 344.03 98.4667 343.79 98.7107C343.55 98.9515 343.385 99.2665 343.295 99.6558C343.209 100.045 343.21 100.492 343.299 100.998C343.389 101.51 343.541 101.938 343.756 102.28C343.971 102.62 344.231 102.865 344.537 103.017C344.845 103.164 345.184 103.206 345.553 103.141C345.814 103.095 346.039 103.005 346.227 102.871C346.419 102.733 346.568 102.557 346.675 102.343C346.782 102.129 346.838 101.882 346.842 101.602L348.537 101.304C348.588 101.844 348.514 102.343 348.315 102.802C348.116 103.258 347.803 103.642 347.377 103.956C346.95 104.267 346.422 104.477 345.792 104.588ZM352.878 95.4385L353.119 96.8095L348.795 97.5691L348.555 96.198L352.878 95.4385ZM349.305 94.2085L351.078 93.8972L352.318 100.958C352.36 101.196 352.428 101.373 352.522 101.488C352.619 101.598 352.732 101.666 352.861 101.691C352.99 101.715 353.128 101.714 353.275 101.689C353.386 101.669 353.485 101.643 353.574 101.611C353.666 101.578 353.735 101.551 353.782 101.529L354.324 102.862C354.235 102.911 354.106 102.971 353.936 103.041C353.77 103.111 353.562 103.171 353.312 103.222C352.87 103.313 352.458 103.316 352.077 103.232C351.695 103.144 351.371 102.962 351.107 102.685C350.847 102.408 350.677 102.034 350.597 101.563L349.305 94.2085ZM355.682 102.699L354.361 95.1781L356.133 94.8667L357.454 102.388L355.682 102.699ZM355.064 93.9541C354.784 94.0034 354.526 93.9528 354.291 93.8023C354.055 93.6485 353.914 93.4394 353.868 93.175C353.821 92.9073 353.882 92.6626 354.052 92.441C354.221 92.2161 354.446 92.079 354.726 92.0297C355.01 91.9798 355.269 92.0321 355.501 92.1864C355.736 92.3369 355.877 92.546 355.924 92.8137C355.971 93.0781 355.909 93.3228 355.74 93.5477C355.574 93.7687 355.348 93.9042 355.064 93.9541ZM364.674 93.3664L363.317 101.358L361.358 101.702L357.359 94.6515L359.249 94.3194L361.959 99.6029L362.037 99.5891L362.789 93.6976L364.674 93.3664ZM370.322 100.279C369.568 100.412 368.889 100.369 368.285 100.152C367.685 99.9313 367.187 99.5578 366.791 99.0316C366.395 98.5021 366.128 97.8441 365.99 97.0573C365.854 96.2837 365.882 95.5789 366.073 94.9429C366.267 94.3031 366.601 93.7733 367.076 93.3534C367.55 92.9302 368.146 92.6556 368.864 92.5294C369.328 92.448 369.779 92.4462 370.216 92.5241C370.657 92.5982 371.062 92.7625 371.434 93.017C371.808 93.2709 372.129 93.6217 372.396 94.0695C372.662 94.514 372.854 95.0659 372.969 95.7254L373.065 96.2689L366.9 97.3518L366.69 96.157L371.156 95.3726C371.093 95.0336 370.966 94.7446 370.776 94.5054C370.586 94.263 370.348 94.0877 370.063 93.9795C369.782 93.8708 369.471 93.8463 369.131 93.9059C368.769 93.9696 368.466 94.1136 368.223 94.3381C367.979 94.5593 367.806 94.8253 367.702 95.1363C367.601 95.4434 367.579 95.7654 367.634 96.1022L367.818 97.1452C367.895 97.5826 368.04 97.944 368.255 98.2292C368.47 98.5113 368.735 98.7103 369.052 98.8263C369.368 98.9391 369.718 98.9616 370.104 98.8939C370.361 98.8486 370.589 98.7717 370.785 98.6632C370.981 98.5514 371.143 98.4103 371.271 98.2397C371.399 98.0691 371.484 97.8708 371.525 97.6449L373.212 97.5402C373.185 97.996 373.053 98.4129 372.816 98.791C372.583 99.1652 372.255 99.4819 371.832 99.7411C371.41 99.9971 370.906 100.176 370.322 100.279Z" fill="#189F84"/>
<g filter="url(#filter5_d_205_3668)">
<circle cx="328" cy="280" r="24" fill="#3E4965"/>
</g>
<path d="M333.294 267.368C337.196 267.368 339.368 269.617 339.368 273.469V286.518C339.368 290.434 337.196 292.632 333.294 292.632H322.707C318.867 292.632 316.632 290.434 316.632 286.518V273.469C316.632 269.617 318.867 267.368 322.707 267.368H333.294ZM323.048 284.724C322.669 284.686 322.303 284.863 322.101 285.192C321.899 285.507 321.899 285.924 322.101 286.253C322.303 286.568 322.669 286.758 323.048 286.707H332.952C333.456 286.657 333.836 286.226 333.836 285.722C333.836 285.204 333.456 284.775 332.952 284.724H323.048ZM332.952 278.963H323.048C322.504 278.963 322.063 279.406 322.063 279.949C322.063 280.493 322.504 280.935 323.048 280.935H332.952C333.495 280.935 333.937 280.493 333.937 279.949C333.937 279.406 333.495 278.963 332.952 278.963ZM326.824 273.242H323.048V273.255C322.504 273.255 322.063 273.697 322.063 274.24C322.063 274.783 322.504 275.225 323.048 275.225H326.824C327.368 275.225 327.811 274.783 327.811 274.226C327.811 273.684 327.368 273.242 326.824 273.242Z" fill="white"/>
<defs>
<filter id="filter0_f_205_3668" x="295" y="29" width="40" height="40" filterUnits="userSpaceOnUse" color-interpolation-filters="sRGB">
<feFlood flood-opacity="0" result="BackgroundImageFix"/>
<feBlend mode="normal" in="SourceGraphic" in2="BackgroundImageFix" result="shape"/>
<feGaussianBlur stdDeviation="0.5" result="effect1_foregroundBlur_205_3668"/>
</filter>
<filter id="filter1_d_205_3668" x="266" y="0" width="118" height="118" filterUnits="userSpaceOnUse" color-interpolation-filters="sRGB">
<feFlood flood-opacity="0" result="BackgroundImageFix"/>
<feColorMatrix in="SourceAlpha" type="matrix" values="0 0 0 0 0 0 0 0 0 0 0 0 0 0 0 0 0 0 127 0" result="hardAlpha"/>
<feOffset dx="10" dy="10"/>
<feGaussianBlur stdDeviation="20"/>
<feComposite in2="hardAlpha" operator="out"/>
<feColorMatrix type="matrix" values="0 0 0 0 0.698039 0 0 0 0 0.74902 0 0 0 0 0.823529 0 0 0 0.5 0"/>
<feBlend mode="normal" in2="BackgroundImageFix" result="effect1_dropShadow_205_3668"/>
<feBlend mode="normal" in="SourceGraphic" in2="effect1_dropShadow_205_3668" result="shape"/>
</filter>
<filter id="filter2_f_205_3668" x="29.5" y="217.5" width="39" height="39" filterUnits="userSpaceOnUse" color-interpolation-filters="sRGB">
<feFlood flood-opacity="0" result="BackgroundImageFix"/>
<feBlend mode="normal" in="SourceGraphic" in2="BackgroundImageFix" result="shape"/>
<feGaussianBlur stdDeviation="0.25" result="effect1_foregroundBlur_205_3668"/>
</filter>
<filter id="filter3_d_205_3668" x="0" y="188" width="118" height="118" filterUnits="userSpaceOnUse" color-interpolation-filters="sRGB">
<feFlood flood-opacity="0" result="BackgroundImageFix"/>
<feColorMatrix in="SourceAlpha" type="matrix" values="0 0 0 0 0 0 0 0 0 0 0 0 0 0 0 0 0 0 127 0" result="hardAlpha"/>
<feOffset dx="10" dy="10"/>
<feGaussianBlur stdDeviation="20"/>
<feComposite in2="hardAlpha" operator="out"/>
<feColorMatrix type="matrix" values="0 0 0 0 0.698039 0 0 0 0 0.74902 0 0 0 0 0.823529 0 0 0 0.5 0"/>
<feBlend mode="normal" in2="BackgroundImageFix" result="effect1_dropShadow_205_3668"/>
<feBlend mode="normal" in="SourceGraphic" in2="effect1_dropShadow_205_3668" result="shape"/>
</filter>
<filter id="filter4_d_205_3668" x="62.5117" y="123.739" width="94.3745" height="52.1553" filterUnits="userSpaceOnUse" color-interpolation-filters="sRGB">
<feFlood flood-opacity="0" result="BackgroundImageFix"/>
<feColorMatrix in="SourceAlpha" type="matrix" values="0 0 0 0 0 0 0 0 0 0 0 0 0 0 0 0 0 0 127 0" result="hardAlpha"/>
<feOffset dy="10"/>
<feGaussianBlur stdDeviation="5"/>
<feComposite in2="hardAlpha" operator="out"/>
<feColorMatrix type="matrix" values="0 0 0 0 0.698039 0 0 0 0 0.74902 0 0 0 0 0.823529 0 0 0 0.25 0"/>
<feBlend mode="normal" in2="BackgroundImageFix" result="effect1_dropShadow_205_3668"/>
<feBlend mode="normal" in="SourceGraphic" in2="effect1_dropShadow_205_3668" result="shape"/>
</filter>
<filter id="filter5_d_205_3668" x="274" y="226" width="128" height="128" filterUnits="userSpaceOnUse" color-interpolation-filters="sRGB">
<feFlood flood-opacity="0" result="BackgroundImageFix"/>
<feColorMatrix in="SourceAlpha" type="matrix" values="0 0 0 0 0 0 0 0 0 0 0 0 0 0 0 0 0 0 127 0" result="hardAlpha"/>
<feOffset dx="10" dy="10"/>
<feGaussianBlur stdDeviation="20"/>
<feComposite in2="hardAlpha" operator="out"/>
<feColorMatrix type="matrix" values="0 0 0 0 0.698039 0 0 0 0 0.74902 0 0 0 0 0.823529 0 0 0 0.5 0"/>
<feBlend mode="normal" in2="BackgroundImageFix" result="effect1_dropShadow_205_3668"/>
<feBlend mode="normal" in="SourceGraphic" in2="effect1_dropShadow_205_3668" result="shape"/>
</filter>
<linearGradient id="paint0_linear_205_3668" x1="236.981" y1="170.811" x2="257.215" y2="285.999" gradientUnits="userSpaceOnUse">
<stop stop-color="#ECB4F5"/>
<stop offset="1" stop-color="white" stop-opacity="0"/>
</linearGradient>
<linearGradient id="paint1_linear_205_3668" x1="236.981" y1="170.811" x2="257.215" y2="285.999" gradientUnits="userSpaceOnUse">
<stop stop-color="#68BEF4"/>
<stop offset="1" stop-color="white" stop-opacity="0"/>
</linearGradient>
</defs>
</svg>
