<svg width="162" height="40" viewBox="0 0 162 40" fill="none" xmlns="http://www.w3.org/2000/svg">
<path d="M70.4158 29.0667C70.6112 29.1058 70.8455 29.1449 71.1192 29.1449H71.9395C72.2912 29.1449 72.682 29.1449 73.0336 29.1058C73.3852 29.1058 73.6977 29.1058 73.9712 29.0667L73.307 31.4891C73.1115 32.2314 72.8772 32.8175 72.6038 33.2473C72.3302 33.6771 72.0568 33.9505 71.7833 34.1458C71.4708 34.3412 71.1581 34.4585 70.8456 34.4976C70.533 34.5365 70.2205 34.5755 69.908 34.5755C69.5173 34.5755 69.1266 34.5365 68.7359 34.4585C68.3452 34.4194 68.0325 34.3412 67.7982 34.2631C67.6029 34.771 67.4074 35.3179 67.2902 35.8649C67.134 36.4511 67.0558 37.037 67.0558 37.6621V37.9357C67.0558 38.0528 67.0558 38.17 67.0949 38.2873C67.6809 38.4435 68.267 38.5607 68.853 38.6389C69.4391 38.7562 70.0642 38.7953 70.8065 38.7953C71.5879 38.7953 72.3302 38.7171 72.9945 38.5607C73.6586 38.4435 74.2837 38.17 74.8307 37.8184C75.3778 37.4668 75.8855 36.9588 76.3154 36.2947C76.7451 35.6306 77.0967 34.8101 77.4092 33.8333L84.9498 8.86766C84.2856 8.75041 83.7386 8.6724 83.3088 8.6333H82.0587C81.1601 8.6333 80.2614 8.71149 79.4018 8.86766L74.6354 26.4882L70.4158 8.86766C69.986 8.75041 69.4782 8.71149 68.9311 8.67239C68.3843 8.6333 67.8372 8.6333 67.3293 8.6333H66.079C65.6103 8.6724 65.0632 8.75041 64.4773 8.86766L70.4158 29.0667Z" fill="white"/>
<path d="M87.6377 19.729C87.6377 21.878 87.9113 23.636 88.4582 24.9254C89.0052 26.2147 89.7475 27.2305 90.6853 27.8948C91.5838 28.5589 92.6779 29.0278 93.8889 29.223C95.1 29.4185 96.3894 29.5356 97.7179 29.5356C99.2025 29.5356 100.648 29.3794 102.016 29.1058C103.383 28.8323 104.477 28.5589 105.297 28.2855V8.86766C104.36 8.71149 103.422 8.6333 102.523 8.6333C101.625 8.6333 100.726 8.71149 99.7884 8.86766V24.691C99.1243 24.8863 98.3429 24.9644 97.3663 24.9644C96.6629 24.9644 96.0378 24.8863 95.5298 24.691C95.0221 24.5346 94.5923 24.2612 94.2406 23.8315C93.8889 23.4408 93.6154 22.8937 93.4593 22.1905C93.2638 21.5264 93.1856 20.6277 93.1856 19.5729V8.86766C92.2481 8.71149 91.3103 8.6333 90.4117 8.6333C89.5132 8.6333 88.5755 8.71149 87.6377 8.86766V19.729Z" fill="white"/>
<path d="M122.461 8.7945C121.992 8.67743 121.523 8.56014 121.015 8.52109C120.507 8.482 119.999 8.482 119.53 8.482C117.968 8.482 116.561 8.75562 115.272 9.30247C113.982 9.8886 112.928 10.6309 112.029 11.6076C111.13 12.5844 110.427 13.7174 109.958 15.0068C109.45 16.335 109.216 17.7417 109.216 19.2263C109.216 21.1016 109.489 22.7035 110.075 23.9928C110.622 25.282 111.365 26.337 112.341 27.1573C113.318 27.9778 114.412 28.603 115.701 28.9547C116.952 29.3453 118.28 29.5406 119.648 29.5406C121.445 29.5406 122.968 29.4235 124.258 29.2281C125.508 29.0328 126.758 28.7592 127.969 28.4076V0.511837C127.501 0.43369 127.032 0.394595 126.563 0.355501C126.094 0.316406 125.625 0.316406 125.196 0.316406C124.766 0.316406 124.297 0.316406 123.867 0.355501C123.398 0.394595 122.929 0.43369 122.461 0.511837V8.7945ZM122.461 24.657C122.031 24.7743 121.601 24.8522 121.249 24.8913C120.898 24.9304 120.468 24.9695 120.038 24.9695C119.296 24.9695 118.632 24.8522 118.007 24.657C117.382 24.4615 116.835 24.149 116.405 23.7192C115.936 23.2894 115.584 22.6644 115.311 21.9221C115.037 21.1798 114.92 20.2811 114.92 19.2263C114.92 18.3667 115.037 17.5462 115.233 16.7257C115.428 15.9444 115.701 15.2411 116.131 14.655C116.561 14.069 117.069 13.6002 117.733 13.2485C118.358 12.8969 119.101 12.7406 119.96 12.7406C120.468 12.7406 120.859 12.7406 121.21 12.7797C121.523 12.8188 121.953 12.936 122.461 13.0533V24.657Z" fill="white"/>
<path d="M134.417 29.068C135.355 29.2242 136.254 29.3023 137.113 29.3023C138.012 29.3023 138.91 29.2242 139.848 29.068V8.86878H131.8C131.643 9.53309 131.565 10.2363 131.565 10.9395C131.565 11.2912 131.604 11.6428 131.643 11.9944C131.683 12.385 131.722 12.7367 131.8 13.0883H134.417V29.068ZM135.042 5.6261C135.55 5.66502 136.019 5.66502 136.449 5.66502C136.879 5.66502 137.387 5.66502 137.895 5.6261C138.403 5.58704 138.871 5.54795 139.301 5.46976C139.379 5.03998 139.418 4.5711 139.457 4.14131C139.497 3.71152 139.497 3.28191 139.497 2.85212C139.497 2.42234 139.497 1.95346 139.457 1.52371C139.418 1.09388 139.379 0.664141 139.301 0.234313C138.871 0.156336 138.364 0.0781467 137.856 0.0390521C137.348 -7.8433e-08 136.84 0 136.41 0C135.98 0 135.55 -7.8433e-08 135.042 0.0390521C134.535 0.0781467 134.027 0.156336 133.597 0.234313C133.441 1.13298 133.362 2.03165 133.362 2.85212C133.362 3.71152 133.441 4.5711 133.597 5.46976C134.027 5.54795 134.535 5.58704 135.042 5.6261Z" fill="white"/>
<path d="M143.943 29.0698H160.43C160.508 28.718 160.547 28.3664 160.586 28.0148C160.626 27.7023 160.626 27.3898 160.626 27.0382C160.626 26.6866 160.626 26.2958 160.586 25.9442C160.547 25.5925 160.508 25.2017 160.43 24.811H151.835L161.094 9.33949L160.899 8.87061H144.998C144.919 9.2222 144.88 9.57384 144.841 9.88651C144.802 10.2382 144.802 10.5507 144.802 10.9022C144.802 11.2539 144.802 11.6446 144.841 11.9962C144.88 12.3478 144.919 12.7385 144.998 13.1292H152.733L143.63 28.6009L143.943 29.0698Z" fill="white"/>
<path d="M81.1092 37.6187C81.0637 37.7554 81.0314 37.8856 81.012 38.0159C81.4074 38.1655 81.8029 38.2437 82.2113 38.2437C82.5613 38.2437 82.866 38.1983 83.1188 38.107C83.3717 38.0159 83.5855 37.8921 83.7541 37.7423C83.9161 37.5927 84.0393 37.4103 84.1236 37.2083C84.2014 37.0066 84.2403 36.7916 84.2403 36.5702C84.2403 36.414 84.2143 36.2773 84.1624 36.1535C84.1041 36.0362 84.0328 35.9321 83.9355 35.8344C83.8383 35.7368 83.7281 35.6521 83.605 35.5676C83.4819 35.4828 83.3457 35.4046 83.1966 35.3201C83.0346 35.2223 82.8984 35.1312 82.7947 35.0336C82.6844 34.9358 82.6326 34.8187 82.6326 34.6689C82.6326 34.5647 82.6586 34.48 82.7038 34.4149C82.7493 34.3498 82.814 34.2976 82.8855 34.2586C82.9568 34.226 83.0346 34.2 83.1253 34.1869C83.2095 34.174 83.2939 34.1675 83.3717 34.1675C83.5855 34.1675 83.7541 34.1869 83.8903 34.226C84.0199 34.2651 84.1495 34.3173 84.2726 34.3758C84.3505 34.2522 84.4088 34.1218 84.4541 33.9917C84.4996 33.8615 84.5255 33.7377 84.545 33.6204C84.357 33.5488 84.1753 33.4902 84.0005 33.4577C83.8254 33.4252 83.6244 33.4055 83.3846 33.4055C83.1188 33.4055 82.8789 33.4382 82.6649 33.5033C82.4511 33.575 82.2631 33.6726 82.114 33.7963C81.9649 33.92 81.8481 34.0764 81.764 34.2586C81.6796 34.4474 81.6409 34.6558 81.6409 34.8903C81.6409 35.1312 81.7251 35.333 81.8871 35.5088C82.0493 35.6846 82.2631 35.8605 82.5418 36.0233C82.6262 36.0753 82.7039 36.121 82.7882 36.1666C82.8724 36.2121 82.9438 36.2642 83.002 36.3164C83.0604 36.3684 83.1122 36.4269 83.1511 36.4922C83.1901 36.5573 83.2095 36.6355 83.2095 36.72C83.2095 36.8373 83.1837 36.9414 83.1382 37.0262C83.0929 37.1107 83.028 37.1889 82.9439 37.2474C82.8595 37.3061 82.7558 37.3516 82.6457 37.3842C82.5289 37.4169 82.4057 37.4298 82.2696 37.4298C82.1075 37.4298 81.9454 37.4103 81.7769 37.3647C81.6019 37.3191 81.4334 37.2671 81.2712 37.2083C81.2065 37.3516 81.1547 37.4885 81.1092 37.6187Z" fill="white"/>
<path d="M87.0409 38.0482C87.2807 37.9245 87.4753 37.7552 87.6309 37.5468C87.7864 37.3385 87.9031 37.104 87.9809 36.8436C88.0522 36.5831 88.0911 36.3162 88.0911 36.0492C88.0911 35.639 87.9873 35.3199 87.78 35.0788C87.566 34.8379 87.2355 34.7207 86.7882 34.7207C86.4705 34.7207 86.1983 34.7859 85.9649 34.9161C85.725 35.0529 85.5305 35.2221 85.375 35.4306C85.2194 35.6453 85.1026 35.8799 85.025 36.1404C84.9471 36.4073 84.9083 36.6678 84.9083 36.9282C84.9083 37.3385 85.0119 37.6576 85.2259 37.8919C85.4334 38.1264 85.7574 38.2435 86.2047 38.2435C86.5223 38.2435 86.8011 38.1784 87.0409 38.0482ZM85.8287 36.9607C85.8287 36.824 85.8418 36.6742 85.8741 36.4984C85.9001 36.3226 85.9454 36.1599 86.0167 36.0035C86.0881 35.8474 86.1723 35.717 86.2825 35.6065C86.3927 35.4957 86.5289 35.4436 86.6909 35.4436C87.0151 35.4436 87.1771 35.6453 87.1771 36.0426C87.1771 36.1793 87.1642 36.3357 87.1316 36.5049C87.0993 36.6807 87.054 36.8436 86.9826 36.9934C86.9113 37.1496 86.8142 37.2798 86.7038 37.3841C86.5936 37.4883 86.4511 37.5403 86.2891 37.5403C85.9843 37.5403 85.8287 37.3451 85.8287 36.9607Z" fill="white"/>
<path d="M88.8499 36.8951C88.8369 36.9668 88.824 37.0384 88.8175 37.1035C88.8111 37.1751 88.8046 37.2404 88.8046 37.2989C88.8046 37.6114 88.8887 37.8394 89.0573 37.9827C89.2259 38.1323 89.4593 38.204 89.751 38.204C89.8741 38.204 89.9908 38.1976 90.0947 38.1779C90.1983 38.165 90.2825 38.1454 90.3474 38.1194C90.3539 38.0869 90.3539 38.0543 90.3603 38.0218V37.924C90.3603 37.8329 90.3539 37.7416 90.3408 37.6571C90.3214 37.5723 90.3019 37.4878 90.2825 37.4162C90.2437 37.4291 90.1983 37.4357 90.1528 37.4422C90.1075 37.4487 90.0752 37.4553 90.0557 37.4553C90.0168 37.4553 89.9779 37.4487 89.939 37.4422C89.9001 37.4357 89.8677 37.4225 89.8352 37.4031C89.8028 37.3837 89.7834 37.3509 89.7639 37.312C89.7444 37.2729 89.7315 37.2207 89.7315 37.1491C89.7315 37.1035 89.7381 37.0384 89.751 36.9668L90.2501 34.3491C90.2761 34.2124 90.2956 34.0821 90.315 33.965C90.3345 33.8478 90.3408 33.7435 90.3408 33.6525C90.3408 33.5547 90.3279 33.4701 90.3085 33.4051C90.1594 33.3789 90.0168 33.366 89.8935 33.366C89.8223 33.366 89.7445 33.366 89.6473 33.3723C89.5501 33.3789 89.4657 33.3919 89.3944 33.4051C89.401 33.4439 89.401 33.4767 89.4073 33.5092V33.6328C89.4073 33.7501 89.401 33.8934 89.3815 34.0626C89.362 34.2384 89.3232 34.4402 89.2777 34.6682L88.8499 36.8951Z" fill="white"/>
<path d="M91.1641 36.9354C91.151 37.0201 91.1381 37.0983 91.1316 37.1699C91.1252 37.2416 91.1187 37.3132 91.1187 37.3783C91.1187 37.6843 91.1899 37.9057 91.339 38.0359C91.4817 38.1726 91.6827 38.2378 91.942 38.2378C92.0587 38.2378 92.1753 38.2182 92.292 38.1857C92.4021 38.1532 92.5123 38.101 92.6096 38.0424C92.7069 37.9839 92.7976 37.9123 92.8754 37.8275C92.9533 37.7428 93.018 37.6583 93.0699 37.567C93.0635 37.6257 93.0569 37.6712 93.0569 37.7103C93.0504 37.7493 93.0504 37.7884 93.0504 37.8275C93.0504 37.9252 93.0569 37.9968 93.0635 38.0424C93.0699 38.088 93.0829 38.1335 93.0893 38.1662C93.2384 38.1923 93.3681 38.2052 93.4913 38.2052C93.6339 38.2052 93.7764 38.1923 93.9192 38.1662C93.9126 38.1271 93.9126 38.088 93.9126 38.0555V37.9382C93.9126 37.821 93.9255 37.6583 93.9515 37.4434C93.971 37.235 94.0099 36.9941 94.0552 36.7205L94.4054 34.7996C94.2563 34.7736 94.1072 34.7605 93.9581 34.7605C93.809 34.7605 93.6533 34.7736 93.4848 34.7996L93.245 36.1084C93.1931 36.4015 93.1282 36.636 93.0569 36.8118C92.9856 36.9876 92.9078 37.1243 92.83 37.2219C92.7522 37.3196 92.6745 37.3848 92.6031 37.4174C92.5255 37.4499 92.454 37.4628 92.3956 37.4628C92.292 37.4628 92.2141 37.4368 92.1558 37.3848C92.0976 37.3326 92.0716 37.2416 92.0716 37.1112C92.0716 37.033 92.0781 36.9485 92.0976 36.8638L92.4605 34.7996C92.3114 34.7736 92.1624 34.7605 92.0132 34.7605C91.942 34.7605 91.8641 34.7605 91.7863 34.767C91.7021 34.7736 91.6243 34.7866 91.54 34.7996L91.1641 36.9354Z" fill="white"/>
<path d="M95.2481 36.898C95.235 36.9827 95.2221 37.0543 95.2156 37.126C95.2092 37.1976 95.2026 37.2627 95.2026 37.3278C95.2026 37.6468 95.2934 37.8683 95.4685 38.005C95.6434 38.1417 95.9092 38.2068 96.2722 38.2068C96.5317 38.2068 96.752 38.1808 96.94 38.1223C96.9464 38.0897 96.9464 38.0506 96.9464 38.0181V37.9139C96.9464 37.7119 96.9206 37.5427 96.8622 37.419C96.8167 37.4319 96.7649 37.445 96.7065 37.4516C96.6482 37.4645 96.5834 37.471 96.5122 37.471C96.3695 37.471 96.2722 37.4385 96.2203 37.3734C96.1685 37.3083 96.1425 37.217 96.1425 37.1063C96.1425 37.0609 96.1491 37.0087 96.1556 36.9567C96.162 36.9045 96.1685 36.846 96.1751 36.7873L96.402 35.5046H97.2057C97.2446 35.3808 97.2771 35.2701 97.2964 35.1594C97.3159 35.0487 97.329 34.9316 97.329 34.8013H96.5251L96.564 34.5863C96.5834 34.4887 96.5964 34.4041 96.6093 34.3194C96.6158 34.2413 96.6224 34.1696 96.6224 34.098C96.6224 34.0004 96.6093 33.9157 96.5898 33.8506C96.4473 33.8506 96.2916 33.8637 96.1233 33.8962C95.9547 33.9287 95.8119 33.9807 95.7018 34.0524C95.7018 34.1176 95.7018 34.1956 95.6953 34.2934C95.6889 34.3911 95.6759 34.4952 95.6565 34.606L95.6176 34.8013H95.1183C95.073 34.925 95.0407 35.0487 95.0212 35.1594C95.0017 35.2701 94.9952 35.3874 94.9952 35.5046H95.4943L95.2481 36.898Z" fill="white"/>
<path d="M97.7839 38.1614C97.9396 38.1874 98.0821 38.2003 98.2183 38.2003C98.3674 38.2003 98.523 38.1874 98.6851 38.1614L99.2749 34.7947H97.9656C97.9201 34.8989 97.8877 34.9967 97.8683 35.0943C97.8488 35.192 97.8359 35.3027 97.8359 35.4134C97.8359 35.4329 97.8359 35.4459 97.8423 35.459V35.4981H98.2506L97.7839 38.1614ZM98.6721 34.2544C98.7563 34.2607 98.8341 34.2607 98.8989 34.2607C98.9704 34.2607 99.048 34.2607 99.1323 34.2544C99.2165 34.2478 99.2944 34.2413 99.3722 34.2282C99.424 34.0786 99.4629 33.9353 99.4889 33.7984C99.5147 33.6617 99.5278 33.5119 99.5278 33.3623C99.4566 33.3426 99.3787 33.3297 99.2944 33.3232C99.2102 33.3167 99.1323 33.3167 99.0611 33.3167C98.9898 33.3167 98.9119 33.3167 98.8276 33.3232C98.7434 33.3297 98.659 33.3426 98.5814 33.3623C98.5294 33.5119 98.4905 33.6552 98.471 33.7921C98.4452 33.9288 98.4323 34.0786 98.4386 34.2282C98.51 34.2413 98.5878 34.2478 98.6721 34.2544Z" fill="white"/>
<path d="M102.013 38.0481C102.253 37.9243 102.447 37.755 102.603 37.5467C102.759 37.3383 102.875 37.1038 102.953 36.8434C103.024 36.5829 103.063 36.316 103.063 36.049C103.063 35.6388 102.96 35.3198 102.752 35.0787C102.538 34.8378 102.208 34.7207 101.76 34.7207C101.443 34.7207 101.17 34.7858 100.937 34.916C100.697 35.0527 100.503 35.2219 100.347 35.4305C100.192 35.6453 100.075 35.8797 99.9972 36.1402C99.9193 36.4071 99.8805 36.6677 99.8805 36.928C99.8805 37.3383 99.9842 37.6574 100.198 37.8917C100.406 38.1263 100.73 38.2433 101.177 38.2433C101.494 38.2433 101.773 38.1783 102.013 38.0481ZM100.801 36.9607C100.801 36.8238 100.814 36.6742 100.846 36.4984C100.872 36.3224 100.918 36.1597 100.989 36.0034C101.06 35.8472 101.145 35.717 101.255 35.6063C101.365 35.4955 101.501 35.4434 101.663 35.4434C101.987 35.4434 102.149 35.6453 102.149 36.0424C102.149 36.1791 102.136 36.3355 102.104 36.5047C102.071 36.6806 102.026 36.8434 101.955 36.9932C101.884 37.1494 101.786 37.2798 101.676 37.384C101.566 37.4881 101.423 37.5401 101.261 37.5401C100.957 37.5401 100.801 37.3449 100.801 36.9607Z" fill="white"/>
<path d="M103.658 38.159C103.807 38.185 103.956 38.1981 104.105 38.1981C104.254 38.1981 104.41 38.185 104.578 38.159L104.818 36.85C104.87 36.5571 104.935 36.3226 105.006 36.1468C105.078 35.971 105.155 35.8277 105.233 35.7301C105.311 35.6324 105.389 35.5737 105.467 35.5412C105.538 35.5087 105.609 35.4957 105.668 35.4957C105.771 35.4957 105.849 35.5217 105.907 35.5737C105.966 35.6259 105.992 35.717 105.992 35.8474C105.992 35.9253 105.985 36.0101 105.966 36.0948L105.603 38.159C105.752 38.185 105.901 38.1981 106.05 38.1981C106.199 38.1981 106.361 38.185 106.523 38.159L106.899 36.0231C106.912 35.9385 106.925 35.8603 106.932 35.7886C106.938 35.717 106.945 35.6453 106.945 35.5803C106.945 35.2743 106.873 35.0529 106.731 34.9161C106.582 34.7859 106.381 34.7207 106.121 34.7207C106.005 34.7207 105.888 34.7404 105.778 34.7729C105.661 34.8054 105.551 34.8576 105.454 34.9161C105.357 34.9747 105.266 35.0463 105.188 35.131C105.11 35.2156 105.045 35.3003 104.993 35.3916C105 35.3328 105.006 35.2872 105.013 35.2483V35.131C105.013 35.0334 105.006 34.9618 105 34.9161C104.993 34.8705 104.981 34.8249 104.974 34.7924C104.903 34.7794 104.831 34.7663 104.767 34.7598C104.702 34.7533 104.637 34.7533 104.572 34.7533C104.429 34.7533 104.287 34.7663 104.144 34.7924C104.151 34.8314 104.151 34.864 104.151 34.8965V35.0203C104.151 35.1376 104.138 35.3003 104.118 35.5087C104.092 35.7235 104.054 35.9644 104.008 36.238L103.658 38.159Z" fill="white"/>
<path d="M108.726 36.7653C108.836 36.8109 108.92 36.8563 108.979 36.9086C109.037 36.9671 109.069 37.0387 109.069 37.1234C109.069 37.2016 109.05 37.2667 109.011 37.3187C108.966 37.3774 108.914 37.4165 108.856 37.449C108.797 37.4816 108.726 37.501 108.655 37.5141C108.583 37.5272 108.512 37.5336 108.447 37.5336C108.317 37.5336 108.181 37.5207 108.045 37.4947C107.903 37.475 107.766 37.4294 107.63 37.3709C107.514 37.5858 107.449 37.8201 107.436 38.0741C107.572 38.1328 107.721 38.1717 107.89 38.1979C108.058 38.2304 108.214 38.2433 108.35 38.2433C108.577 38.2433 108.791 38.2173 108.992 38.1653C109.193 38.1132 109.361 38.035 109.51 37.9243C109.659 37.8201 109.776 37.6899 109.86 37.5272C109.944 37.3709 109.99 37.182 109.99 36.9671C109.99 36.85 109.97 36.7458 109.938 36.6611C109.899 36.5764 109.847 36.4984 109.789 36.4331C109.731 36.368 109.659 36.3095 109.582 36.2639C109.504 36.2182 109.426 36.1793 109.342 36.1466L109.089 36.036C108.927 35.9644 108.842 35.8603 108.842 35.7299C108.842 35.6648 108.862 35.6127 108.894 35.5672C108.927 35.5216 108.972 35.489 109.024 35.4696C109.076 35.4499 109.134 35.4305 109.193 35.4239C109.251 35.4174 109.303 35.4108 109.348 35.4108C109.465 35.4108 109.588 35.4239 109.718 35.4565C109.847 35.489 109.958 35.5281 110.048 35.5737C110.12 35.463 110.178 35.3457 110.21 35.235C110.243 35.1243 110.262 35.0136 110.269 34.9029C110.204 34.8703 110.132 34.8378 110.055 34.8118C109.97 34.7923 109.893 34.7727 109.808 34.7596C109.724 34.7467 109.64 34.7336 109.556 34.7271C109.471 34.7207 109.4 34.7207 109.329 34.7207C109.128 34.7207 108.946 34.7467 108.778 34.7987C108.603 34.8509 108.453 34.9225 108.33 35.0201C108.201 35.1178 108.103 35.2416 108.032 35.3783C107.961 35.5216 107.922 35.6843 107.922 35.8666C107.922 35.9904 107.941 36.1012 107.98 36.1922C108.013 36.2835 108.065 36.3615 108.123 36.4202C108.181 36.4853 108.24 36.5373 108.311 36.5764C108.382 36.622 108.447 36.6545 108.518 36.6806L108.726 36.7653Z" fill="white"/>
<path d="M112.301 38.1655C112.392 38.1784 112.476 38.1849 112.56 38.1915C112.638 38.1981 112.71 38.1981 112.774 38.1981C112.846 38.1981 112.923 38.1981 113.001 38.1915C113.079 38.1849 113.163 38.1784 113.248 38.1655L113.507 36.6612C113.546 36.6678 113.585 36.6678 113.63 36.6678C113.675 36.6743 113.727 36.6743 113.799 36.6743C114.123 36.6743 114.414 36.6287 114.667 36.5311C114.92 36.4333 115.14 36.3031 115.316 36.1273C115.49 35.958 115.627 35.756 115.724 35.5217C115.815 35.2874 115.86 35.0334 115.86 34.7599C115.86 34.4798 115.808 34.2454 115.698 34.0696C115.588 33.8938 115.445 33.7506 115.277 33.6529C115.108 33.5551 114.92 33.49 114.719 33.4575C114.518 33.425 114.324 33.4055 114.136 33.4055H113.876C113.792 33.4118 113.714 33.4118 113.637 33.4184C113.552 33.425 113.475 33.438 113.39 33.4446C113.306 33.4509 113.222 33.4641 113.125 33.4706L112.301 38.1655ZM113.941 34.2129C114.006 34.2063 114.051 34.1998 114.084 34.1998H114.181C114.259 34.1998 114.337 34.2063 114.421 34.226C114.505 34.2454 114.577 34.2715 114.648 34.3171C114.713 34.3627 114.764 34.4278 114.81 34.5123C114.849 34.597 114.868 34.7012 114.868 34.825C114.868 35.0268 114.842 35.1961 114.784 35.3328C114.726 35.4697 114.648 35.5739 114.557 35.6584C114.466 35.7431 114.369 35.8017 114.259 35.8342C114.149 35.8668 114.045 35.8864 113.941 35.8864C113.805 35.8864 113.708 35.8798 113.649 35.8668L113.941 34.2129Z" fill="white"/>
<path d="M116.237 38.1661C116.386 38.1921 116.535 38.2052 116.684 38.2052C116.833 38.2052 116.989 38.1921 117.158 38.1661L117.397 36.8573C117.43 36.6684 117.469 36.4925 117.514 36.3362C117.56 36.18 117.618 36.0431 117.689 35.9326C117.761 35.8219 117.858 35.7371 117.974 35.6786C118.085 35.6199 118.234 35.5873 118.409 35.5873C118.454 35.5873 118.493 35.5873 118.526 35.5939C118.558 35.6004 118.584 35.6004 118.61 35.607C118.662 35.5223 118.7 35.4115 118.733 35.2814C118.765 35.1512 118.778 35.0274 118.778 34.9038V34.8451C118.778 34.8256 118.778 34.8125 118.772 34.793C118.707 34.7734 118.629 34.7605 118.538 34.7605C118.422 34.7605 118.318 34.7799 118.221 34.8125C118.124 34.8516 118.033 34.9038 117.955 34.9623C117.871 35.0208 117.8 35.0925 117.735 35.1641C117.67 35.2423 117.618 35.3205 117.573 35.3986C117.579 35.3399 117.585 35.2945 117.592 35.2554V35.1381C117.592 35.0405 117.585 34.9688 117.579 34.9232C117.573 34.8776 117.56 34.8321 117.553 34.7994C117.482 34.7865 117.41 34.7734 117.346 34.7669C117.281 34.7605 117.216 34.7605 117.151 34.7605C117.009 34.7605 116.866 34.7734 116.723 34.7994C116.73 34.8385 116.73 34.871 116.73 34.9038V35.0274C116.73 35.1447 116.717 35.3074 116.697 35.5157C116.671 35.7306 116.633 35.9715 116.587 36.2451L116.237 38.1661Z" fill="white"/>
<path d="M119.145 38.1614C119.3 38.1874 119.443 38.2005 119.579 38.2005C119.728 38.2005 119.883 38.1874 120.046 38.1614L120.635 34.7947H119.326C119.281 34.8991 119.248 34.9967 119.229 35.0943C119.209 35.192 119.196 35.3027 119.196 35.4134C119.196 35.433 119.196 35.4459 119.203 35.459V35.4981H119.611L119.145 38.1614ZM120.033 34.2544C120.117 34.2609 120.195 34.2609 120.259 34.2609C120.331 34.2609 120.409 34.2609 120.493 34.2544C120.577 34.2478 120.655 34.2413 120.733 34.2282C120.785 34.0786 120.823 33.9353 120.849 33.7986C120.875 33.6617 120.888 33.5121 120.888 33.3623C120.817 33.3426 120.739 33.3297 120.655 33.3232C120.571 33.3167 120.493 33.3167 120.422 33.3167C120.35 33.3167 120.272 33.3167 120.188 33.3232C120.104 33.3297 120.02 33.3426 119.942 33.3623C119.89 33.5121 119.851 33.6553 119.832 33.7921C119.806 33.9288 119.793 34.0786 119.799 34.2282C119.871 34.2413 119.948 34.2478 120.033 34.2544Z" fill="white"/>
<path d="M121.891 38.1661C121.962 38.1855 122.053 38.1921 122.156 38.1921C122.254 38.1986 122.338 38.1986 122.396 38.1986C122.455 38.1986 122.532 38.1986 122.623 38.1921C122.714 38.1855 122.805 38.179 122.889 38.1661L124.198 35.7568C124.322 35.5288 124.412 35.3399 124.464 35.1967C124.516 35.0599 124.542 34.9363 124.542 34.8321V34.7996C124.393 34.7734 124.218 34.7605 124.023 34.7605C123.926 34.7605 123.835 34.7605 123.751 34.7669C123.66 34.7734 123.576 34.7865 123.505 34.7996V34.871C123.505 34.9558 123.492 35.0599 123.472 35.1837C123.446 35.3074 123.388 35.4766 123.291 35.6786L122.558 37.2674L122.305 34.7996C122.143 34.7734 121.975 34.7605 121.8 34.7605C121.638 34.7605 121.482 34.7734 121.32 34.7996L121.891 38.1661Z" fill="white"/>
<path d="M126.952 36.049C126.868 36.5113 126.738 36.8629 126.563 37.1169C126.388 37.3709 126.194 37.501 125.986 37.501C125.772 37.501 125.668 37.3383 125.668 37.0193C125.668 36.8695 125.688 36.7067 125.733 36.5244C125.779 36.3486 125.843 36.1793 125.941 36.023C126.038 35.8666 126.155 35.7364 126.304 35.6323C126.446 35.5281 126.621 35.4759 126.829 35.4759H126.939C126.971 35.4825 127.01 35.489 127.049 35.4955L126.952 36.049ZM128.035 34.8705C127.872 34.8249 127.71 34.7858 127.548 34.7598C127.386 34.7336 127.205 34.7207 127.017 34.7207C126.634 34.7207 126.304 34.7923 126.018 34.929C125.733 35.0723 125.493 35.2612 125.305 35.4955C125.111 35.7299 124.968 35.997 124.871 36.3029C124.774 36.6091 124.722 36.9216 124.722 37.2472C124.722 37.5467 124.793 37.7876 124.936 37.9699C125.079 38.1523 125.292 38.2435 125.578 38.2435C125.837 38.2435 126.064 38.1783 126.258 38.0415C126.453 37.9048 126.615 37.7421 126.738 37.5401C126.732 37.5988 126.725 37.6443 126.725 37.6899V37.8138C126.725 37.9114 126.732 37.983 126.738 38.0286C126.745 38.0741 126.757 38.1197 126.764 38.1523C126.913 38.1783 127.043 38.1914 127.166 38.1914C127.302 38.1914 127.445 38.1783 127.587 38.1523C127.581 38.1132 127.581 38.0741 127.581 38.0415V37.9245C127.581 37.8072 127.594 37.6443 127.613 37.4294C127.633 37.2211 127.671 36.9802 127.717 36.7067L128.035 34.8705Z" fill="white"/>
<path d="M128.911 36.8981C128.898 36.9827 128.885 37.0543 128.878 37.126C128.872 37.1976 128.865 37.2627 128.865 37.3278C128.865 37.6468 128.956 37.8683 129.131 38.005C129.306 38.1419 129.572 38.207 129.935 38.207C130.194 38.207 130.415 38.1808 130.603 38.1223C130.609 38.0897 130.609 38.0506 130.609 38.0181V37.9139C130.609 37.7121 130.583 37.5427 130.525 37.419C130.48 37.4321 130.428 37.445 130.369 37.4516C130.311 37.4647 130.246 37.471 130.175 37.471C130.032 37.471 129.935 37.4385 129.883 37.3734C129.831 37.3083 129.805 37.2172 129.805 37.1065C129.805 37.0609 129.812 37.0087 129.818 36.9567C129.825 36.9045 129.831 36.846 129.838 36.7874L130.065 35.5046H130.869C130.907 35.3808 130.94 35.2701 130.959 35.1594C130.979 35.0488 130.992 34.9316 130.992 34.8014H130.188L130.227 34.5865C130.246 34.4887 130.259 34.4041 130.272 34.3194C130.279 34.2413 130.285 34.1696 130.285 34.098C130.285 34.0004 130.272 33.9158 130.253 33.8506C130.11 33.8506 129.954 33.8637 129.786 33.8962C129.617 33.9287 129.475 33.9809 129.364 34.0526C129.364 34.1176 129.364 34.1958 129.358 34.2934C129.352 34.3911 129.339 34.4952 129.319 34.606L129.28 34.8014H128.781C128.736 34.925 128.703 35.0488 128.684 35.1594C128.664 35.2701 128.658 35.3874 128.658 35.5046H129.157L128.911 36.8981Z" fill="white"/>
<path d="M132.644 36.8175C132.851 36.7849 133.052 36.7393 133.246 36.6742C133.434 36.6155 133.609 36.5309 133.759 36.4333C133.908 36.3355 134.031 36.2119 134.121 36.0686C134.212 35.9253 134.258 35.7561 134.258 35.5606C134.258 35.4239 134.232 35.3001 134.18 35.1959C134.128 35.0918 134.057 35.0007 133.966 34.929C133.875 34.8574 133.771 34.8053 133.648 34.7727C133.525 34.7401 133.389 34.7207 133.246 34.7207C132.948 34.7207 132.682 34.7792 132.443 34.9031C132.203 35.0267 131.995 35.1896 131.833 35.3914C131.665 35.5932 131.535 35.8277 131.444 36.0815C131.353 36.3355 131.308 36.596 131.308 36.8629C131.308 37.0714 131.341 37.2602 131.399 37.4296C131.457 37.6054 131.548 37.7486 131.671 37.8658C131.794 37.9895 131.95 38.0806 132.138 38.1457C132.326 38.211 132.546 38.2435 132.812 38.2435C132.896 38.2435 132.987 38.237 133.091 38.2239C133.195 38.2174 133.298 38.1979 133.402 38.1783C133.506 38.1588 133.609 38.1394 133.707 38.1066C133.804 38.0806 133.888 38.0481 133.959 38.0156C133.959 37.8788 133.947 37.7421 133.927 37.6183C133.901 37.4947 133.856 37.3905 133.785 37.3058C133.635 37.3643 133.499 37.4165 133.37 37.449C133.233 37.4881 133.084 37.5076 132.909 37.5076C132.695 37.5076 132.527 37.4556 132.417 37.3514C132.306 37.2536 132.235 37.0974 132.209 36.8891L132.644 36.8175ZM132.242 36.277C132.268 36.1662 132.306 36.0621 132.358 35.9514C132.404 35.8472 132.462 35.7561 132.533 35.6714C132.605 35.5866 132.682 35.5216 132.78 35.4696C132.87 35.4239 132.974 35.3979 133.084 35.3979C133.175 35.3979 133.246 35.4239 133.305 35.4761C133.357 35.5281 133.383 35.5932 133.383 35.6779C133.383 35.7299 133.37 35.7821 133.35 35.8341C133.331 35.8862 133.285 35.9384 133.227 35.9839C133.169 36.036 133.084 36.0815 132.981 36.1206C132.877 36.1662 132.741 36.1988 132.579 36.2248L132.242 36.277Z" fill="white"/>
<path d="M136.371 38.1628H138.835C138.854 38.0912 138.874 38.0195 138.893 37.9479C138.912 37.8828 138.925 37.8177 138.938 37.7461C138.945 37.6874 138.958 37.6223 138.964 37.5506C138.971 37.4856 138.977 37.4139 138.977 37.3423H137.448L138.122 33.4809C137.973 33.4484 137.817 33.4353 137.668 33.4353C137.512 33.4353 137.35 33.4484 137.188 33.4809L136.371 38.1628Z" fill="white"/>
<path d="M139.852 38.1614C140.008 38.1874 140.151 38.2005 140.287 38.2005C140.436 38.2005 140.591 38.1874 140.753 38.1614L141.343 34.7949H140.034C139.989 34.8991 139.956 34.9967 139.937 35.0943C139.917 35.192 139.904 35.3027 139.904 35.4134C139.904 35.433 139.904 35.4459 139.911 35.459V35.4981H140.319L139.852 38.1614ZM140.74 34.2544C140.825 34.2609 140.902 34.2609 140.967 34.2609C141.039 34.2609 141.116 34.2609 141.201 34.2544C141.285 34.2478 141.363 34.2413 141.441 34.2284C141.493 34.0786 141.531 33.9353 141.557 33.7986C141.583 33.6619 141.596 33.5121 141.596 33.3623C141.525 33.3428 141.447 33.3297 141.363 33.3232C141.279 33.3167 141.201 33.3167 141.129 33.3167C141.058 33.3167 140.98 33.3167 140.896 33.3232C140.812 33.3297 140.728 33.3428 140.65 33.3623C140.598 33.5121 140.559 33.6553 140.54 33.7921C140.514 33.9288 140.501 34.0786 140.507 34.2284C140.578 34.2413 140.656 34.2478 140.74 34.2544Z" fill="white"/>
<path d="M141.909 38.1588C142.058 38.1848 142.208 38.1979 142.357 38.1979C142.506 38.1979 142.661 38.1848 142.83 38.1588L143.07 36.85C143.122 36.5569 143.18 36.3226 143.251 36.1468C143.323 35.9708 143.394 35.8277 143.465 35.7299C143.537 35.6323 143.614 35.5737 143.686 35.5412C143.757 35.5085 143.828 35.4955 143.887 35.4955C143.984 35.4955 144.062 35.5216 144.107 35.5672C144.152 35.6128 144.178 35.6973 144.178 35.8146C144.178 35.8992 144.172 35.997 144.152 36.0946L143.789 38.1588C143.939 38.1848 144.087 38.1979 144.237 38.1979C144.386 38.1979 144.548 38.1848 144.71 38.1588L144.969 36.6677C145.015 36.4268 145.066 36.2248 145.131 36.0752C145.196 35.9253 145.267 35.8016 145.339 35.717C145.41 35.6323 145.488 35.5737 145.559 35.5412C145.63 35.5085 145.695 35.4955 145.754 35.4955C145.851 35.4955 145.929 35.5216 145.974 35.5672C146.019 35.6128 146.045 35.6973 146.045 35.8146C146.045 35.8992 146.039 35.997 146.019 36.0946L145.656 38.1588C145.805 38.1848 145.954 38.1979 146.104 38.1979C146.253 38.1979 146.415 38.1848 146.577 38.1588L146.953 36.023C146.985 35.8603 146.998 35.7039 146.998 35.5541C146.998 35.2547 146.933 35.0398 146.797 34.9094C146.661 34.7858 146.467 34.7207 146.207 34.7207C145.974 34.7207 145.76 34.7858 145.559 34.9094C145.358 35.0398 145.209 35.196 145.105 35.3783C145.079 35.144 145.001 34.9747 144.878 34.8703C144.749 34.7727 144.567 34.7207 144.34 34.7207C144.101 34.7207 143.887 34.7858 143.692 34.916C143.491 35.0463 143.342 35.2025 143.245 35.3914C143.251 35.3327 143.258 35.2872 143.264 35.2481V35.1309C143.264 35.0332 143.258 34.9616 143.251 34.916C143.245 34.8703 143.232 34.8249 143.225 34.7924C143.154 34.7792 143.083 34.7662 143.018 34.7598C142.953 34.7533 142.888 34.7533 142.823 34.7533C142.681 34.7533 142.538 34.7662 142.396 34.7924C142.402 34.8314 142.402 34.864 142.402 34.8965V35.0201C142.402 35.1374 142.389 35.3001 142.37 35.5085C142.344 35.7234 142.305 35.9644 142.26 36.2379L141.909 38.1588Z" fill="white"/>
<path d="M147.863 38.1614C148.018 38.1874 148.161 38.2005 148.297 38.2005C148.446 38.2005 148.602 38.1874 148.764 38.1614L149.354 34.7949H148.044C147.999 34.8991 147.966 34.9967 147.947 35.0943C147.927 35.192 147.914 35.3027 147.914 35.4134C147.914 35.433 147.914 35.4459 147.921 35.459V35.4981H148.329L147.863 38.1614ZM148.751 34.2544C148.835 34.2609 148.913 34.2609 148.978 34.2609C149.049 34.2609 149.127 34.2609 149.211 34.2544C149.295 34.2478 149.373 34.2413 149.451 34.2284C149.503 34.0786 149.541 33.9353 149.567 33.7986C149.593 33.6619 149.606 33.5121 149.606 33.3623C149.535 33.3428 149.457 33.3297 149.373 33.3232C149.289 33.3167 149.211 33.3167 149.14 33.3167C149.068 33.3167 148.991 33.3167 148.906 33.3232C148.822 33.3297 148.738 33.3428 148.66 33.3623C148.608 33.5121 148.569 33.6553 148.55 33.7921C148.524 33.9288 148.511 34.0786 148.517 34.2284C148.589 34.2413 148.666 34.2478 148.751 34.2544Z" fill="white"/>
<path d="M150.212 36.8981C150.199 36.9827 150.186 37.0543 150.18 37.126C150.173 37.1976 150.167 37.2627 150.167 37.328C150.167 37.647 150.257 37.8683 150.432 38.0052C150.607 38.1419 150.873 38.207 151.236 38.207C151.496 38.207 151.716 38.181 151.904 38.1223C151.91 38.0897 151.91 38.0506 151.91 38.0181V37.9139C151.91 37.7121 151.885 37.5428 151.826 37.419C151.781 37.4321 151.729 37.445 151.67 37.4516C151.612 37.4647 151.547 37.4712 151.476 37.4712C151.333 37.4712 151.236 37.4385 151.184 37.3734C151.132 37.3083 151.107 37.2172 151.107 37.1065C151.107 37.0609 151.113 37.0089 151.12 36.9567C151.126 36.9045 151.132 36.846 151.139 36.7874L151.366 35.5046H152.17C152.209 35.3808 152.241 35.2701 152.261 35.1596C152.28 35.0489 152.293 34.9316 152.293 34.8014H151.489L151.528 34.5865C151.547 34.4887 151.56 34.4041 151.573 34.3195C151.58 34.2413 151.586 34.1696 151.586 34.098C151.586 34.0004 151.573 33.9158 151.554 33.8506C151.411 33.8506 151.256 33.8637 151.087 33.8962C150.919 33.9287 150.776 33.9809 150.666 34.0526C150.666 34.1176 150.666 34.1958 150.659 34.2934C150.653 34.3911 150.64 34.4952 150.62 34.606L150.582 34.8014H150.082C150.037 34.925 150.005 35.0489 149.985 35.1596C149.966 35.2701 149.959 35.3874 149.959 35.5046H150.458L150.212 36.8981Z" fill="white"/>
<path d="M153.945 36.8175C154.152 36.7849 154.353 36.7393 154.548 36.6742C154.736 36.6157 154.911 36.5309 155.06 36.4333C155.209 36.3355 155.332 36.2119 155.423 36.0686C155.514 35.9253 155.559 35.7561 155.559 35.5606C155.559 35.4239 155.533 35.3003 155.481 35.1961C155.429 35.0918 155.358 35.0007 155.267 34.929C155.176 34.8574 155.073 34.8054 154.95 34.7727C154.826 34.7401 154.69 34.7207 154.548 34.7207C154.25 34.7207 153.984 34.7792 153.744 34.9031C153.504 35.0267 153.297 35.1896 153.135 35.3914C152.966 35.5932 152.836 35.8277 152.746 36.0817C152.655 36.3355 152.609 36.596 152.609 36.8631C152.609 37.0714 152.642 37.2602 152.7 37.4296C152.759 37.6054 152.849 37.7486 152.973 37.8658C153.096 37.9895 153.251 38.0806 153.439 38.1457C153.627 38.211 153.848 38.2435 154.114 38.2435C154.198 38.2435 154.288 38.237 154.392 38.2239C154.496 38.2174 154.6 38.1979 154.703 38.1784C154.807 38.1588 154.911 38.1394 155.008 38.1068C155.105 38.0806 155.19 38.0481 155.261 38.0156C155.261 37.8788 155.248 37.7421 155.228 37.6183C155.202 37.4947 155.157 37.3905 155.086 37.3058C154.937 37.3643 154.801 37.4165 154.671 37.449C154.535 37.4881 154.386 37.5076 154.211 37.5076C153.997 37.5076 153.828 37.4556 153.718 37.3514C153.608 37.2538 153.537 37.0974 153.511 36.8891L153.945 36.8175ZM153.543 36.277C153.569 36.1662 153.608 36.0621 153.66 35.9514C153.705 35.8472 153.763 35.7561 153.835 35.6714C153.906 35.5868 153.984 35.5216 154.081 35.4696C154.172 35.4239 154.276 35.3979 154.386 35.3979C154.476 35.3979 154.548 35.4239 154.606 35.4761C154.658 35.5281 154.684 35.5932 154.684 35.6779C154.684 35.7299 154.671 35.7821 154.652 35.8342C154.632 35.8862 154.587 35.9384 154.528 35.9839C154.47 36.036 154.386 36.0817 154.282 36.1206C154.178 36.1662 154.042 36.1988 153.88 36.225L153.543 36.277Z" fill="white"/>
<path d="M158.301 36.0488C158.216 36.5112 158.087 36.8628 157.912 37.1166C157.737 37.3706 157.542 37.5009 157.335 37.5009C157.121 37.5009 157.017 37.338 157.017 37.019C157.017 36.8692 157.037 36.7064 157.082 36.5241C157.127 36.3483 157.192 36.179 157.289 36.0227C157.387 35.8665 157.503 35.7361 157.652 35.632C157.795 35.5278 157.97 35.4758 158.177 35.4758H158.288C158.32 35.4822 158.359 35.4887 158.398 35.4952L158.301 36.0488ZM159.513 34.3491C159.565 34.0757 159.591 33.8414 159.591 33.6525C159.591 33.5549 159.578 33.4701 159.558 33.4051C159.409 33.379 159.266 33.366 159.143 33.366C159.072 33.366 158.994 33.366 158.897 33.3725C158.8 33.379 158.715 33.3919 158.644 33.4051C158.651 33.4441 158.651 33.4767 158.657 33.5092V33.633C158.657 33.7501 158.651 33.8999 158.631 34.0757C158.612 34.2515 158.573 34.473 158.527 34.7269C158.508 34.7269 158.482 34.7269 158.456 34.7204H158.365C157.983 34.7204 157.652 34.792 157.367 34.9287C157.082 35.072 156.842 35.2609 156.654 35.4952C156.46 35.7298 156.317 35.9967 156.22 36.3026C156.122 36.6088 156.071 36.9213 156.071 37.2469C156.071 37.5464 156.142 37.7874 156.285 37.9696C156.427 38.152 156.641 38.2432 156.926 38.2432C157.056 38.2432 157.179 38.2236 157.296 38.1845C157.413 38.1456 157.523 38.0934 157.626 38.0283C157.724 37.9633 157.821 37.8851 157.905 37.7938C157.989 37.7093 158.061 37.6117 158.119 37.5138C158.113 37.5726 158.106 37.6246 158.106 37.6767C158.1 37.7287 158.1 37.7744 158.1 37.8135C158.1 37.9111 158.106 37.9827 158.113 38.0283C158.119 38.074 158.132 38.1194 158.139 38.152C158.288 38.1781 158.417 38.1911 158.54 38.1911C158.677 38.1911 158.819 38.1781 158.962 38.152C158.955 38.1129 158.955 38.074 158.955 38.0412V37.9242C158.955 37.8069 158.968 37.6442 158.988 37.4293C159.007 37.2209 159.046 36.9799 159.091 36.7064L159.513 34.3491Z" fill="white"/>
<path d="M50.843 5.59717H49.782V39.7324H50.843V5.59717Z" fill="white"/>
<path d="M31.9124 12.9866L27.0084 21.4557L22.1031 12.9866H31.9124Z" fill="white" stroke="#4285F4" stroke-width="0.4"/>
<path d="M21.7518 13.1867L26.6565 21.6547H16.8805L21.7518 13.1867Z" fill="white" stroke="#4285F4" stroke-width="0.4"/>
<path d="M26.6565 22.0552L21.7518 30.5257L16.8804 22.0552H26.6565Z" fill="white" stroke="#4285F4" stroke-width="0.4"/>
<path d="M16.5438 22.2554L21.4152 30.7258H11.6403L16.5438 22.2554Z" fill="white" stroke="#4285F4" stroke-width="0.4"/>
<path d="M10.4172 12.0123L15.2657 20.5112L5.52771 20.5155L10.4172 12.0123Z" fill="white" stroke="#4285F4" stroke-width="0.4"/>
<path d="M5.52619 20.9225L15.2643 20.9182L10.3759 29.4231L5.52619 20.9225Z" fill="white" stroke="#4285F4" stroke-width="0.4"/>
<path d="M5.23407 2.91444L10.0828 11.4142L0.34574 11.419L5.23407 2.91444Z" fill="white" stroke="#4285F4" stroke-width="0.4"/>
<path d="M0.344269 11.8246L10.0813 11.8198L5.1938 20.3247L0.344269 11.8246Z" fill="white" stroke="#4285F4" stroke-width="0.4"/>
<path d="M21.414 31.1331L16.5105 39.5998L11.6392 31.1331H21.414Z" fill="white" stroke="#4285F4" stroke-width="0.4"/>
<path d="M11.2828 31.3332L16.154 39.7998H6.37933L11.2828 31.3332Z" fill="white" stroke="#4285F4" stroke-width="0.4"/>
<path d="M37.1692 3.91851L32.2681 12.3879L27.3641 3.91851H37.1692Z" fill="white" stroke="#4285F4" stroke-width="0.4"/>
<path d="M27.0084 4.1176L31.9124 12.5872H22.1031L27.0084 4.1176Z" fill="white" stroke="#4285F4" stroke-width="0.4"/>
</svg>
