<svg width="425" height="657" viewBox="0 0 425 657" fill="none" xmlns="http://www.w3.org/2000/svg">
<g opacity="0.4">
<path d="M224.524 706.29L403.799 527.015C414.753 516.061 414.753 498.26 403.799 487.306C392.845 476.352 375.044 476.352 364.09 487.306L184.815 666.581C173.861 677.535 173.861 695.336 184.815 706.29C195.769 717.244 213.57 717.244 224.524 706.29Z" stroke="#B1DAFF" stroke-miterlimit="10"/>
<path d="M435.976 144.894L549.527 31.3437C556.471 24.3996 556.471 13.1522 549.527 6.20807C542.583 -0.736022 531.335 -0.736022 524.391 6.20807L410.743 119.661C403.799 126.605 403.799 137.852 410.743 144.796C417.785 151.838 429.032 151.838 435.976 144.894Z" stroke="#B1DAFF" stroke-miterlimit="10"/>
<path d="M375.729 384.319L330.837 429.211C326.534 433.514 326.534 440.458 330.837 444.664C335.14 448.967 342.084 448.967 346.29 444.664L391.182 399.772C395.485 395.469 395.485 388.525 391.182 384.319C386.976 380.113 380.032 380.113 375.729 384.319Z" fill="#047BE8"/>
<path d="M330.25 371.604L146.867 554.889C142.564 559.192 142.27 566.136 146.476 570.538C150.779 574.939 157.821 575.037 162.125 570.635L200.268 532.492C202.42 530.34 205.843 530.34 207.995 532.492C210.146 534.644 210.146 538.067 207.995 540.218L133.175 615.038C128.871 619.342 128.871 626.286 133.175 630.492C137.478 634.795 144.422 634.795 148.628 630.492L298.659 480.46C302.963 476.157 302.963 469.213 298.659 465.007C294.356 460.704 287.412 460.704 283.206 465.007L268.829 479.384C266.677 481.536 263.254 481.536 261.102 479.384C258.951 477.233 258.951 473.809 261.102 471.658L345.507 387.253C349.811 382.949 350.104 376.005 345.898 371.604C341.595 367.301 334.553 367.203 330.25 371.604Z" fill="#B1DAFF"/>
<path d="M543.952 169.541L417.394 296.197C413.09 300.501 412.797 307.445 417.002 311.846C421.306 316.247 428.348 316.345 432.651 311.944L442.431 302.163C444.583 300.012 448.006 300.012 450.158 302.163C452.31 304.315 452.31 307.738 450.158 309.89L405.461 354.586C401.158 358.89 401.158 365.834 405.461 370.039C409.765 374.343 416.709 374.343 420.914 370.039L539.257 251.794C543.561 247.491 543.561 240.547 539.257 236.341C534.954 232.038 528.01 232.038 523.804 236.341L510.894 249.154C508.742 251.305 505.319 251.305 503.168 249.154C501.016 247.002 501.016 243.579 503.168 241.427L559.209 185.385C563.513 181.082 563.806 174.138 559.601 169.737C555.395 165.336 548.353 165.238 543.952 169.541Z" fill="#047BE8"/>
<path d="M156.256 447.011L51.4104 551.857C47.107 556.16 46.8136 563.104 51.0191 567.506C55.3225 571.907 62.3644 572.005 66.6678 567.603L76.4482 557.823C78.5999 555.671 82.023 555.671 84.1747 557.823C86.3264 559.975 86.3264 563.398 84.1747 565.55L39.4783 610.246C35.1749 614.549 35.1749 621.493 39.4783 625.699C43.7816 630.002 50.7257 630.002 54.9313 625.699L173.176 507.454C177.48 503.151 177.48 496.207 173.176 492.001C168.873 487.698 161.929 487.698 157.723 492.001L144.911 504.813C142.759 506.965 139.336 506.965 137.185 504.813C135.033 502.662 135.033 499.238 137.185 497.087L171.514 462.758C175.817 458.454 176.111 451.51 171.905 447.109C167.699 442.708 160.657 442.708 156.256 447.011Z" fill="#047BE8"/>
<path d="M640.778 19.2162L602.047 57.9466C599.896 60.0983 596.472 60.0983 594.321 57.9466C592.169 55.7949 592.169 52.3718 594.321 50.2201L601.754 42.787C606.057 38.4836 606.351 31.5395 602.145 27.1384C597.842 22.7372 590.8 22.6394 586.496 27.0405L522.239 91.2978C520.185 93.3517 516.958 93.6451 514.708 91.7868C512.165 89.733 512.067 85.9186 514.317 83.6691L522.63 75.3558C526.934 71.0524 527.227 64.1083 523.022 59.7071C518.718 55.3059 511.676 55.2081 507.373 59.6093L439.79 127.192C435.487 131.495 435.193 138.439 439.399 142.841C443.702 147.242 450.744 147.34 455.048 142.938L492.996 104.99C495.05 102.937 498.277 102.643 500.527 104.501C503.07 106.555 503.167 110.37 500.918 112.619L463.068 150.469C458.764 154.773 458.471 161.717 462.676 166.118C466.98 170.519 474.022 170.617 478.325 166.216L505.026 139.515C507.177 137.364 510.6 137.364 512.752 139.515C514.904 141.667 514.904 145.09 512.752 147.242L395.876 264.118C391.573 268.421 391.279 275.365 395.485 279.766C399.788 284.167 406.83 284.265 411.134 279.864L560.872 130.126C565.175 125.823 565.468 118.879 561.263 114.477C556.96 110.076 549.918 109.978 545.614 114.38L540.333 119.661C538.181 121.813 534.758 121.813 532.606 119.661C530.455 117.509 530.455 114.086 532.606 111.934L569.576 74.9645C571.728 72.8128 575.151 72.8128 577.303 74.9645C579.454 77.1162 579.454 80.5394 577.303 82.6911L573.488 86.5054C569.185 90.8088 568.892 97.7529 573.097 102.154C577.401 106.555 584.442 106.653 588.746 102.252L656.524 34.4737C660.827 30.1703 660.827 23.1284 656.426 18.825C652.025 14.6194 644.983 15.0106 640.778 19.2162Z" fill="#369FFF"/>
<path d="M272.154 677.242L393.138 556.258C395.29 554.106 398.713 554.106 400.864 556.258C403.016 558.41 403.016 561.833 400.864 563.985L375.827 589.022C371.523 593.326 371.23 600.27 375.435 604.671C379.739 609.072 386.781 609.17 391.084 604.769L395.485 600.368C397.539 598.314 400.767 598.02 403.016 599.879C405.559 601.933 405.657 605.747 403.407 607.996L365.557 645.847C361.254 650.15 360.96 657.094 365.166 661.495C369.469 665.896 376.511 665.994 380.815 661.593L564.099 478.308C568.403 474.005 568.696 467.061 564.491 462.66C560.187 458.258 553.145 458.161 548.842 462.562L510.894 500.51C508.84 502.564 505.613 502.857 503.363 500.999C500.82 498.945 500.722 495.131 502.972 492.881L584.149 411.704C588.453 407.4 588.746 400.456 584.54 396.055C580.237 391.654 573.195 391.556 568.892 395.957L567.034 397.815C564.882 399.967 561.459 399.967 559.307 397.815C557.155 395.664 557.155 392.241 559.307 390.089L600.678 348.718C604.982 344.414 605.275 337.47 601.069 333.069C596.766 328.668 589.724 328.57 585.421 332.971L486.345 432.047C482.042 436.35 481.748 443.294 485.954 447.696C490.257 452.097 497.299 452.195 501.603 447.793L506.884 442.512C509.036 440.36 512.459 440.36 514.611 442.512C516.762 444.664 516.762 448.087 514.611 450.238L425.511 539.338C423.359 541.49 419.936 541.49 417.785 539.338C415.633 537.186 415.633 533.763 417.785 531.611L421.599 527.797C425.902 523.494 426.196 516.55 421.99 512.148C417.687 507.747 410.645 507.649 406.341 512.051L256.408 661.984C252.105 666.288 252.105 673.329 256.506 677.633C260.907 681.838 267.949 681.545 272.154 677.242Z" fill="#369FFF"/>
<path d="M406.83 434.981L476.76 365.051C481.064 360.748 481.064 353.803 476.76 349.598C472.457 345.295 465.513 345.295 461.307 349.598L391.377 419.528C387.074 423.831 387.074 430.775 391.377 434.981C395.681 439.186 402.625 439.186 406.83 434.981Z" fill="#B1DAFF"/>
<path d="M252.105 589.707L322.034 519.777C326.338 515.474 326.338 508.53 322.034 504.324C317.731 500.021 310.787 500.021 306.581 504.324L236.651 574.254C232.348 578.558 232.348 585.502 236.651 589.707C240.857 594.011 247.801 594.011 252.105 589.707Z" fill="#369FFF"/>
<path d="M426.196 476.352L450.843 451.706C455.146 447.402 455.146 440.458 450.843 436.253C446.539 431.949 439.595 431.949 435.39 436.253L410.743 460.899C406.44 465.203 406.44 472.147 410.743 476.352C414.948 480.656 421.893 480.656 426.196 476.352Z" fill="#369FFF"/>
<path d="M379.25 462.562C383.553 458.258 383.553 451.314 379.25 447.109C374.947 442.805 368.002 442.805 363.797 447.109C359.493 451.412 359.493 458.356 363.797 462.562C368.1 466.767 375.044 466.767 379.25 462.562Z" fill="#369FFF"/>
<path d="M375.729 384.319L330.837 429.211C326.533 433.514 326.533 440.458 330.837 444.664C335.14 448.967 342.084 448.967 346.29 444.664L391.182 399.772C395.485 395.468 395.485 388.524 391.182 384.319C386.976 380.113 380.032 380.113 375.729 384.319Z" fill="#047BE8"/>
<path d="M309.515 261.477L264.623 306.369C260.32 310.672 260.32 317.616 264.623 321.822C268.927 326.125 275.871 326.125 280.076 321.822L324.968 276.93C329.272 272.626 329.272 265.682 324.968 261.477C320.665 257.173 313.721 257.173 309.515 261.477Z" fill="#047BE8"/>
<path d="M354.114 248.664L424.044 178.735C428.348 174.431 428.348 167.487 424.044 163.281C419.741 158.978 412.797 158.978 408.591 163.281L338.661 233.211C334.358 237.515 334.358 244.459 338.661 248.664C342.965 252.968 349.909 252.968 354.114 248.664Z" fill="#B1DAFF"/>
<path d="M373.284 316.736C377.587 312.432 377.587 305.488 373.284 301.283C368.98 296.979 362.036 296.979 357.831 301.283C353.527 305.586 353.527 312.53 357.831 316.736C362.036 321.039 368.98 321.039 373.284 316.736Z" fill="#369FFF"/>
<path d="M246.725 351.26C251.029 346.957 251.029 340.013 246.725 335.807C242.422 331.504 235.478 331.504 231.272 335.807C226.969 340.111 226.969 347.055 231.272 351.26C235.478 355.564 242.422 355.564 246.725 351.26Z" fill="#369FFF"/>
<path d="M219.34 464.811L289.27 394.881C293.573 390.578 293.573 383.634 289.27 379.428C284.967 375.125 278.022 375.125 273.817 379.428L203.887 449.358C199.584 453.662 199.584 460.606 203.887 464.811C208.19 469.017 215.134 469.017 219.34 464.811Z" fill="#369FFF"/>
<path d="M19.2329 563.789L89.1628 493.86C93.4662 489.556 93.4662 482.612 89.1628 478.406C84.8595 474.103 77.9154 474.103 73.7098 478.406L3.7799 548.336C-0.523476 552.64 -0.523476 559.584 3.7799 563.789C7.98548 568.093 14.9296 568.093 19.2329 563.789Z" fill="#369FFF"/>
</g>
</svg>
