<svg width="145" height="36" viewBox="0 0 145 36" fill="none" xmlns="http://www.w3.org/2000/svg">
<path d="M63.374 26.1601C63.5499 26.1952 63.7608 26.2304 64.0071 26.2304H64.7454C65.062 26.2304 65.4136 26.2304 65.7301 26.1952C66.0465 26.1952 66.3278 26.1952 66.5739 26.1601L65.9762 28.3402C65.8002 29.0083 65.5894 29.5358 65.3433 29.9226C65.097 30.3094 64.8509 30.5555 64.6048 30.7312C64.3235 30.9071 64.0421 31.0127 63.7608 31.0479C63.4796 31.0829 63.1983 31.118 62.9171 31.118C62.5654 31.118 62.2138 31.0829 61.8621 31.0127C61.5105 30.9775 61.2291 30.9072 61.0182 30.8368C60.8425 31.294 60.6665 31.7861 60.561 32.2785C60.4205 32.806 60.3501 33.3334 60.3501 33.8959V34.1422C60.3501 34.2475 60.3501 34.353 60.3853 34.4586C60.9126 34.5991 61.4402 34.7047 61.9675 34.775C62.4951 34.8806 63.0576 34.9158 63.7257 34.9158C64.4289 34.9158 65.097 34.8454 65.6949 34.7047C66.2926 34.5991 66.8551 34.353 67.3475 34.0366C67.8398 33.7202 68.2968 33.263 68.6837 32.6653C69.0705 32.0675 69.3869 31.3291 69.6682 30.45L76.4546 7.98094C75.8569 7.87542 75.3646 7.8052 74.9778 7.77002H73.8527C73.0439 7.77002 72.2351 7.84039 71.4615 7.98094L67.1717 23.8394L63.374 7.98094C62.9872 7.87542 62.5302 7.84039 62.0379 7.8052C61.5457 7.77002 61.0534 7.77002 60.5962 7.77002H59.471C59.0491 7.8052 58.5568 7.87542 58.0294 7.98094L63.374 26.1601Z" fill="#0B1C3C"/>
<path d="M78.8739 17.7562C78.8739 19.6902 79.1202 21.2725 79.6123 22.4329C80.1047 23.5933 80.7727 24.5075 81.6167 25.1053C82.4254 25.7031 83.4101 26.125 84.5 26.3008C85.59 26.4767 86.7504 26.5821 87.946 26.5821C89.2822 26.5821 90.5832 26.4415 91.814 26.1952C93.0446 25.9491 94.0291 25.7031 94.7675 25.457V7.98094C93.9237 7.84039 93.0797 7.77002 92.2709 7.77002C91.4623 7.77002 90.6535 7.84039 89.8096 7.98094V22.222C89.2118 22.3977 88.5086 22.468 87.6296 22.468C86.9965 22.468 86.434 22.3977 85.9768 22.222C85.5198 22.0812 85.133 21.8352 84.8166 21.4483C84.5 21.0967 84.2539 20.6044 84.1133 19.9715C83.9374 19.3738 83.8671 18.565 83.8671 17.6156V7.98094C83.0233 7.84039 82.1793 7.77002 81.3705 7.77002C80.5619 7.77002 79.7179 7.84039 78.8739 7.98094V17.7562Z" fill="#0B1C3C"/>
<path d="M110.214 7.91544C109.792 7.81007 109.37 7.70452 108.913 7.66937C108.456 7.63418 107.999 7.63418 107.577 7.63418C106.171 7.63418 104.905 7.88044 103.744 8.37261C102.584 8.90012 101.635 9.56822 100.826 10.4472C100.017 11.3264 99.3841 12.346 98.9623 13.5065C98.5051 14.7019 98.2941 15.9679 98.2941 17.304C98.2941 18.9918 98.5403 20.4335 99.0677 21.5939C99.56 22.7542 100.228 23.7037 101.107 24.442C101.986 25.1804 102.971 25.7431 104.131 26.0596C105.256 26.4112 106.452 26.5869 107.683 26.5869C109.3 26.5869 110.671 26.4816 111.832 26.3056C112.957 26.1299 114.082 25.8837 115.172 25.5672V0.461044C114.75 0.390712 114.328 0.355526 113.906 0.320341C113.484 0.285156 113.062 0.285156 112.676 0.285156C112.289 0.285156 111.867 0.285156 111.48 0.320341C111.058 0.355526 110.636 0.390712 110.214 0.461044V7.91544ZM110.214 22.1917C109.828 22.2972 109.441 22.3674 109.124 22.4026C108.808 22.4378 108.421 22.4729 108.034 22.4729C107.366 22.4729 106.768 22.3674 106.206 22.1917C105.643 22.0158 105.151 21.7345 104.764 21.3477C104.342 20.9609 104.026 20.3983 103.78 19.7303C103.533 19.0622 103.428 18.2534 103.428 17.304C103.428 16.5304 103.533 15.792 103.709 15.0535C103.885 14.3503 104.131 13.7174 104.518 13.1899C104.905 12.6625 105.362 12.2405 105.96 11.9241C106.522 11.6076 107.19 11.4669 107.964 11.4669C108.421 11.4669 108.773 11.4669 109.089 11.5021C109.37 11.5373 109.757 11.6428 110.214 11.7484V22.1917Z" fill="#0B1C3C"/>
<path d="M120.976 26.1612C121.819 26.3017 122.628 26.3721 123.402 26.3721C124.211 26.3721 125.019 26.3017 125.863 26.1612V7.9819H118.62C118.479 8.57978 118.409 9.21269 118.409 9.84556C118.409 10.162 118.444 10.4785 118.479 10.7949C118.514 11.1465 118.549 11.463 118.62 11.7794H120.976V26.1612ZM121.538 5.06348C121.995 5.09852 122.417 5.09852 122.804 5.09852C123.191 5.09852 123.648 5.09852 124.105 5.06348C124.562 5.02834 124.984 4.99315 125.371 4.92278C125.441 4.53598 125.476 4.11398 125.512 3.72718C125.547 3.34037 125.547 2.95372 125.547 2.56691C125.547 2.1801 125.547 1.75811 125.512 1.37134C125.476 0.984496 125.441 0.597726 125.371 0.210881C124.984 0.140702 124.527 0.0703319 124.07 0.0351468C123.613 -7.05897e-08 123.156 0 122.769 0C122.382 0 121.995 -7.05897e-08 121.538 0.0351468C121.081 0.0703319 120.624 0.140702 120.237 0.210881C120.096 1.01968 120.026 1.82848 120.026 2.56691C120.026 3.34037 120.096 4.11398 120.237 4.92278C120.624 4.99315 121.081 5.02834 121.538 5.06348Z" fill="#0B1C3C"/>
<path d="M129.549 26.1627H144.387C144.457 25.8461 144.493 25.5296 144.528 25.2132C144.563 24.9319 144.563 24.6506 144.563 24.3342C144.563 24.0178 144.563 23.6661 144.528 23.3497C144.493 23.0331 144.457 22.6814 144.387 22.3298H136.651L144.985 8.40539L144.809 7.9834H130.498C130.428 8.29984 130.392 8.61631 130.357 8.89771C130.322 9.21419 130.322 9.49544 130.322 9.81188C130.322 10.1284 130.322 10.48 130.357 10.7964C130.392 11.1129 130.428 11.4645 130.498 11.8161H137.46L129.267 25.7407L129.549 26.1627Z" fill="#0B1C3C"/>
<path d="M72.9982 33.8568C72.9573 33.9798 72.9282 34.097 72.9107 34.2143C73.2666 34.349 73.6225 34.4193 73.9901 34.4193C74.3051 34.4193 74.5794 34.3784 74.8068 34.2963C75.0345 34.2143 75.2269 34.1029 75.3786 33.968C75.5244 33.8334 75.6353 33.6693 75.7111 33.4875C75.7812 33.3059 75.8162 33.1124 75.8162 32.9132C75.8162 32.7726 75.7928 32.6496 75.7461 32.5381C75.6936 32.4326 75.6295 32.3388 75.5419 32.251C75.4544 32.1631 75.3552 32.0868 75.2444 32.0108C75.1336 31.9345 75.0111 31.8642 74.8769 31.7881C74.7311 31.7 74.6085 31.6181 74.5152 31.5302C74.4159 31.4422 74.3693 31.3368 74.3693 31.202C74.3693 31.1082 74.3926 31.032 74.4334 30.9734C74.4743 30.9148 74.5326 30.8679 74.5969 30.8327C74.661 30.8034 74.7311 30.78 74.8127 30.7682C74.8885 30.7566 74.9644 30.7507 75.0345 30.7507C75.2269 30.7507 75.3786 30.7682 75.5012 30.8034C75.6179 30.8386 75.7345 30.8855 75.8453 30.9382C75.9154 30.8269 75.9679 30.7096 76.0086 30.5925C76.0495 30.4753 76.0729 30.3639 76.0905 30.2584C75.9213 30.1939 75.7578 30.1412 75.6004 30.1119C75.4428 30.0826 75.2619 30.0649 75.0461 30.0649C74.8068 30.0649 74.591 30.0944 74.3984 30.153C74.2059 30.2174 74.0367 30.3053 73.9025 30.4166C73.7684 30.528 73.6633 30.6687 73.5875 30.8327C73.5116 31.0027 73.4767 31.1902 73.4767 31.4013C73.4767 31.6181 73.5525 31.7997 73.6983 31.9579C73.8443 32.1161 74.0367 32.2744 74.2876 32.421C74.3635 32.4678 74.4334 32.5088 74.5093 32.5499C74.5851 32.5908 74.6494 32.6378 74.7018 32.6847C74.7543 32.7315 74.801 32.7842 74.836 32.843C74.871 32.9015 74.8885 32.9719 74.8885 33.048C74.8885 33.1535 74.8652 33.2473 74.8243 33.3235C74.7836 33.3996 74.7252 33.47 74.6494 33.5227C74.5735 33.5755 74.4802 33.6164 74.381 33.6457C74.276 33.6751 74.165 33.6868 74.0426 33.6868C73.8966 33.6868 73.7508 33.6693 73.5991 33.6282C73.4417 33.5871 73.29 33.5403 73.144 33.4875C73.0858 33.6164 73.0391 33.7396 72.9982 33.8568Z" fill="#808184"/>
<path d="M78.3367 34.2433C78.5526 34.1319 78.7277 33.9796 78.8677 33.7921C79.0077 33.6046 79.1127 33.3935 79.1828 33.1592C79.2469 32.9247 79.2819 32.6845 79.2819 32.4441C79.2819 32.075 79.1885 31.7878 79.002 31.5709C78.8093 31.3541 78.5118 31.2485 78.1093 31.2485C77.8234 31.2485 77.5784 31.3073 77.3683 31.4244C77.1524 31.5475 76.9773 31.6998 76.8374 31.8875C76.6974 32.0807 76.5923 32.2918 76.5224 32.5263C76.4524 32.7665 76.4174 33.001 76.4174 33.2353C76.4174 33.6046 76.5107 33.8917 76.7032 34.1026C76.89 34.3137 77.1816 34.4191 77.5842 34.4191C77.87 34.4191 78.1209 34.3605 78.3367 34.2433ZM77.2457 33.2646C77.2457 33.1415 77.2575 33.0067 77.2866 32.8484C77.31 32.6902 77.3508 32.5438 77.4149 32.4031C77.4793 32.2625 77.555 32.1452 77.6542 32.0457C77.7534 31.946 77.8759 31.8991 78.0217 31.8991C78.3135 31.8991 78.4593 32.0807 78.4593 32.4383C78.4593 32.5613 78.4477 32.702 78.4184 32.8543C78.3893 33.0126 78.3485 33.1592 78.2842 33.294C78.22 33.4346 78.1327 33.5517 78.0334 33.6456C77.9342 33.7394 77.8059 33.7862 77.6601 33.7862C77.3858 33.7862 77.2457 33.6104 77.2457 33.2646Z" fill="#808184"/>
<path d="M79.965 33.2055C79.9533 33.27 79.9417 33.3345 79.9358 33.3931C79.9301 33.4575 79.9242 33.5163 79.9242 33.569C79.9242 33.8502 79.9999 34.0554 80.1517 34.1843C80.3034 34.319 80.5135 34.3835 80.776 34.3835C80.8868 34.3835 80.9918 34.3778 81.0853 34.3601C81.1785 34.3485 81.2543 34.3308 81.3127 34.3074C81.3186 34.2781 81.3186 34.2488 81.3243 34.2195V34.1315C81.3243 34.0495 81.3186 33.9674 81.3068 33.8913C81.2893 33.815 81.2718 33.739 81.2543 33.6745C81.2194 33.6861 81.1785 33.692 81.1376 33.6979C81.0969 33.7038 81.0678 33.7097 81.0502 33.7097C81.0152 33.7097 80.9802 33.7038 80.9452 33.6979C80.9102 33.692 80.881 33.6802 80.8517 33.6627C80.8226 33.6452 80.8051 33.6158 80.7876 33.5807C80.7701 33.5456 80.7585 33.4986 80.7585 33.4341C80.7585 33.3931 80.7644 33.3345 80.776 33.27L81.2252 30.9142C81.2486 30.7911 81.2661 30.6738 81.2836 30.5684C81.3011 30.4629 81.3068 30.3691 81.3068 30.2872C81.3068 30.1991 81.2952 30.123 81.2777 30.0645C81.1435 30.0409 81.0152 30.0293 80.9043 30.0293C80.8401 30.0293 80.7701 30.0293 80.6827 30.035C80.5952 30.0409 80.5192 30.0527 80.4551 30.0645C80.461 30.0995 80.4609 30.1289 80.4667 30.1582V30.2695C80.4667 30.375 80.461 30.504 80.4435 30.6563C80.4259 30.8145 80.3909 30.9961 80.35 31.2013L79.965 33.2055Z" fill="#808184"/>
<path d="M82.0478 33.2416C82.036 33.3179 82.0244 33.3882 82.0185 33.4527C82.0128 33.5172 82.0069 33.5816 82.0069 33.6402C82.0069 33.9156 82.071 34.1149 82.2052 34.232C82.3337 34.3551 82.5145 34.4138 82.7479 34.4138C82.8529 34.4138 82.9578 34.3961 83.0629 34.3668C83.162 34.3376 83.2612 34.2906 83.3488 34.2379C83.4363 34.1852 83.518 34.1208 83.588 34.0445C83.6581 33.9683 83.7163 33.8922 83.763 33.81C83.7573 33.8629 83.7513 33.9038 83.7513 33.939C83.7454 33.9741 83.7454 34.0093 83.7454 34.0445C83.7454 34.1324 83.7513 34.1968 83.7572 34.2379C83.763 34.279 83.7747 34.3199 83.7805 34.3493C83.9146 34.3728 84.0314 34.3844 84.1423 34.3844C84.2706 34.3844 84.3989 34.3728 84.5273 34.3493C84.5215 34.3142 84.5215 34.279 84.5215 34.2497V34.1441C84.5215 34.0386 84.5331 33.8922 84.5565 33.6988C84.574 33.5113 84.609 33.2944 84.6498 33.0482L84.9649 31.3194C84.8308 31.2959 84.6965 31.2842 84.5624 31.2842C84.4282 31.2842 84.2881 31.2959 84.1364 31.3194L83.9206 32.4973C83.8739 32.761 83.8155 32.9721 83.7513 33.1304C83.6872 33.2886 83.6172 33.4116 83.5471 33.4995C83.4771 33.5873 83.4072 33.6461 83.3429 33.6754C83.273 33.7047 83.2087 33.7163 83.1562 33.7163C83.0629 33.7163 82.9928 33.6929 82.9403 33.6461C82.8879 33.5991 82.8646 33.5172 82.8646 33.3998C82.8646 33.3295 82.8704 33.2534 82.8879 33.1771L83.2146 31.3194C83.0804 31.2959 82.9462 31.2842 82.812 31.2842C82.7479 31.2842 82.6778 31.2842 82.6078 31.2901C82.532 31.2959 82.462 31.3077 82.3861 31.3194L82.0478 33.2416Z" fill="#808184"/>
<path d="M85.7234 33.208C85.7116 33.2842 85.7 33.3487 85.6941 33.4132C85.6884 33.4776 85.6825 33.5362 85.6825 33.5948C85.6825 33.882 85.7642 34.0813 85.9217 34.2043C86.0792 34.3273 86.3184 34.3859 86.6451 34.3859C86.8786 34.3859 87.0769 34.3625 87.2461 34.3098C87.2518 34.2805 87.2518 34.2453 87.2518 34.2161V34.1223C87.2518 33.9405 87.2286 33.7882 87.1761 33.6769C87.1352 33.6885 87.0885 33.7003 87.036 33.7062C86.9835 33.7178 86.9252 33.7237 86.8611 33.7237C86.7326 33.7237 86.6451 33.6945 86.5984 33.6358C86.5518 33.5773 86.5284 33.4951 86.5284 33.3955C86.5284 33.3546 86.5343 33.3076 86.5401 33.2608C86.5459 33.2139 86.5518 33.1612 86.5577 33.1083L86.7619 31.954H87.4852C87.5202 31.8426 87.5495 31.7429 87.5668 31.6432C87.5844 31.5436 87.5962 31.4382 87.5962 31.3209H86.8727L86.9077 31.1275C86.9252 31.0396 86.9368 30.9635 86.9485 30.8873C86.9543 30.817 86.9602 30.7525 86.9602 30.688C86.9602 30.6002 86.9485 30.5239 86.9309 30.4653C86.8026 30.4653 86.6626 30.4771 86.511 30.5064C86.3593 30.5357 86.2309 30.5825 86.1317 30.6469C86.1317 30.7057 86.1317 30.7759 86.1258 30.8639C86.1201 30.9518 86.1084 31.0455 86.0909 31.1452L86.0559 31.3209H85.6066C85.5658 31.4323 85.5367 31.5436 85.5192 31.6432C85.5017 31.7429 85.4958 31.8484 85.4958 31.954H85.945L85.7234 33.208Z" fill="#808184"/>
<path d="M88.0056 34.3451C88.1457 34.3685 88.274 34.3801 88.3965 34.3801C88.5307 34.3801 88.6708 34.3685 88.8166 34.3451L89.3475 31.3151H88.1691C88.1282 31.4089 88.099 31.4969 88.0815 31.5848C88.064 31.6726 88.0524 31.7723 88.0524 31.8719C88.0524 31.8894 88.0524 31.9012 88.0581 31.913V31.9482H88.4257L88.0056 34.3451ZM88.805 30.8288C88.8808 30.8345 88.9508 30.8345 89.0091 30.8345C89.0734 30.8345 89.1433 30.8345 89.2192 30.8288C89.2949 30.8229 89.365 30.817 89.435 30.8053C89.4817 30.6706 89.5167 30.5417 89.5401 30.4185C89.5633 30.2954 89.5751 30.1606 89.5751 30.0259C89.511 30.0082 89.4409 29.9966 89.365 29.9907C89.2892 29.9849 89.2192 29.9849 89.155 29.9849C89.0909 29.9849 89.0208 29.9849 88.9449 29.9907C88.8692 29.9966 88.7932 30.0082 88.7233 30.0259C88.6765 30.1606 88.6415 30.2895 88.624 30.4127C88.6008 30.5358 88.5892 30.6706 88.5949 30.8053C88.659 30.817 88.7291 30.8229 88.805 30.8288Z" fill="#808184"/>
<path d="M91.812 34.2432C92.0278 34.1318 92.2027 33.9794 92.3428 33.7919C92.4829 33.6044 92.5878 33.3933 92.6579 33.159C92.722 32.9245 92.757 32.6843 92.757 32.444C92.757 32.0748 92.6638 31.7877 92.4771 31.5707C92.2844 31.3539 91.9869 31.2485 91.5844 31.2485C91.2985 31.2485 91.0535 31.3071 90.8434 31.4243C90.6275 31.5473 90.4526 31.6996 90.3125 31.8873C90.1724 32.0807 90.0675 32.2916 89.9975 32.5261C89.9275 32.7663 89.8925 33.0008 89.8925 33.2351C89.8925 33.6044 89.9859 33.8915 90.1783 34.1025C90.365 34.3135 90.6568 34.4189 91.0594 34.4189C91.3451 34.4189 91.5961 34.3603 91.812 34.2432ZM90.721 33.2646C90.721 33.1413 90.7326 33.0067 90.7617 32.8484C90.7851 32.6901 90.8259 32.5436 90.8902 32.4029C90.9543 32.2624 91.0301 32.1452 91.1292 32.0456C91.2284 31.9459 91.351 31.8989 91.4968 31.8989C91.7886 31.8989 91.9344 32.0807 91.9344 32.4381C91.9344 32.5611 91.9228 32.7019 91.8937 32.8542C91.8644 33.0124 91.8236 33.159 91.7594 33.2938C91.6953 33.4344 91.6078 33.5517 91.5086 33.6455C91.4094 33.7392 91.281 33.786 91.1352 33.786C90.8609 33.786 90.721 33.6103 90.721 33.2646Z" fill="#808184"/>
<path d="M93.2924 34.343C93.4265 34.3664 93.5607 34.3782 93.6949 34.3782C93.8291 34.3782 93.9691 34.3664 94.1207 34.343L94.3366 33.1649C94.3834 32.9013 94.4416 32.6902 94.5058 32.532C94.5701 32.3738 94.64 32.2448 94.71 32.157C94.7801 32.0691 94.8501 32.0163 94.9201 31.987C94.9843 31.9577 95.0484 31.946 95.101 31.946C95.1942 31.946 95.2643 31.9695 95.3168 32.0163C95.3694 32.0632 95.3926 32.1452 95.3926 32.2625C95.3926 32.3327 95.3868 32.409 95.3694 32.4852L95.0425 34.343C95.1767 34.3664 95.3109 34.3782 95.4451 34.3782C95.5793 34.3782 95.7253 34.3664 95.8711 34.343L96.2095 32.4207C96.2211 32.3445 96.2327 32.2741 96.2386 32.2097C96.2445 32.1452 96.2502 32.0807 96.2502 32.0221C96.2502 31.7468 96.1861 31.5475 96.0578 31.4244C95.9236 31.3073 95.7428 31.2485 95.5093 31.2485C95.4043 31.2485 95.2993 31.2662 95.2002 31.2955C95.0951 31.3248 94.9959 31.3717 94.9084 31.4244C94.821 31.4771 94.7392 31.5416 94.6693 31.6178C94.5992 31.6939 94.5408 31.7702 94.4942 31.8523C94.5001 31.7995 94.5058 31.7584 94.5117 31.7234V31.6178C94.5117 31.53 94.5058 31.4655 94.5001 31.4244C94.4942 31.3834 94.4825 31.3423 94.4767 31.313C94.4125 31.3014 94.3484 31.2896 94.29 31.2837C94.2317 31.2778 94.1732 31.2778 94.115 31.2778C93.9865 31.2778 93.8583 31.2896 93.7299 31.313C93.7357 31.3482 93.7357 31.3775 93.7357 31.4068V31.5182C93.7357 31.6237 93.7241 31.7702 93.7066 31.9577C93.6831 32.1511 93.6483 32.3679 93.6074 32.6141L93.2924 34.343Z" fill="#808184"/>
<path d="M97.8532 33.0887C97.9524 33.1297 98.0281 33.1706 98.0807 33.2176C98.1332 33.2703 98.1623 33.3347 98.1623 33.411C98.1623 33.4814 98.1448 33.5399 98.1098 33.5867C98.0691 33.6396 98.0224 33.6747 97.9699 33.704C97.9174 33.7333 97.8532 33.7508 97.7891 33.7626C97.7247 33.7744 97.6606 33.7801 97.6023 33.7801C97.4857 33.7801 97.3631 33.7685 97.2405 33.7451C97.1122 33.7274 96.9897 33.6864 96.8673 33.6337C96.7622 33.8271 96.7038 34.038 96.6921 34.2666C96.8147 34.3194 96.9489 34.3544 97.1006 34.378C97.2523 34.4073 97.3922 34.4189 97.5148 34.4189C97.719 34.4189 97.9115 34.3955 98.0923 34.3487C98.2733 34.3018 98.425 34.2314 98.5592 34.1318C98.6934 34.038 98.7982 33.9208 98.8742 33.7744C98.9499 33.6337 98.9909 33.4637 98.9909 33.2703C98.9909 33.1649 98.9734 33.0711 98.9442 32.9949C98.9092 32.9187 98.8624 32.8484 98.81 32.7897C98.7575 32.7311 98.6934 32.6784 98.6233 32.6374C98.5533 32.5963 98.4832 32.5613 98.4075 32.5319L98.1798 32.4323C98.034 32.3679 97.9581 32.2741 97.9581 32.1568C97.9581 32.0982 97.9756 32.0513 98.0049 32.0104C98.034 31.9693 98.0748 31.94 98.1216 31.9225C98.1682 31.9048 98.2208 31.8873 98.2733 31.8814C98.3258 31.8756 98.3725 31.8696 98.4132 31.8696C98.5183 31.8696 98.629 31.8814 98.7457 31.9107C98.8624 31.94 98.9617 31.9752 99.0434 32.0163C99.1075 31.9166 99.1601 31.8111 99.1892 31.7114C99.2183 31.6118 99.2359 31.5121 99.2417 31.4125C99.1833 31.3832 99.1192 31.3539 99.0491 31.3305C98.9734 31.313 98.9033 31.2953 98.8275 31.2836C98.7516 31.272 98.6758 31.2601 98.5999 31.2543C98.5241 31.2485 98.46 31.2485 98.3957 31.2485C98.2149 31.2485 98.0516 31.272 97.8999 31.3188C97.7423 31.3657 97.6081 31.4302 97.4973 31.518C97.3806 31.6059 97.293 31.7173 97.2289 31.8404C97.1648 31.9693 97.1297 32.1157 97.1297 32.2799C97.1297 32.3913 97.1472 32.4909 97.1822 32.5729C97.2114 32.6551 97.258 32.7252 97.3106 32.7781C97.3631 32.8367 97.4156 32.8835 97.4798 32.9187C97.5439 32.9597 97.6023 32.989 97.6665 33.0124L97.8532 33.0887Z" fill="#808184"/>
<path d="M101.071 34.3489C101.153 34.3605 101.228 34.3664 101.304 34.3723C101.374 34.3782 101.439 34.3782 101.497 34.3782C101.561 34.3782 101.631 34.3782 101.701 34.3723C101.771 34.3664 101.847 34.3605 101.923 34.3489L102.156 32.9951C102.191 33.001 102.226 33.001 102.267 33.001C102.308 33.0069 102.355 33.0069 102.419 33.0069C102.71 33.0069 102.973 32.9658 103.201 32.878C103.428 32.7899 103.626 32.6728 103.784 32.5145C103.941 32.3622 104.064 32.1804 104.151 31.9695C104.233 31.7586 104.274 31.53 104.274 31.2839C104.274 31.0318 104.227 30.8209 104.128 30.6626C104.029 30.5044 103.901 30.3755 103.749 30.2876C103.597 30.1996 103.428 30.141 103.247 30.1117C103.066 30.0824 102.891 30.0649 102.722 30.0649H102.489C102.413 30.0706 102.343 30.0706 102.273 30.0766C102.197 30.0824 102.127 30.0942 102.051 30.1001C101.975 30.1058 101.899 30.1176 101.812 30.1235L101.071 34.3489ZM102.547 30.7916C102.605 30.7857 102.646 30.7798 102.675 30.7798H102.763C102.833 30.7798 102.903 30.7857 102.979 30.8034C103.055 30.8209 103.119 30.8443 103.183 30.8854C103.241 30.9264 103.288 30.985 103.329 31.0611C103.364 31.1373 103.381 31.2311 103.381 31.3425C103.381 31.5241 103.358 31.6765 103.305 31.7995C103.253 31.9227 103.183 32.0165 103.101 32.0925C103.02 32.1688 102.932 32.2215 102.833 32.2508C102.734 32.2801 102.64 32.2977 102.547 32.2977C102.425 32.2977 102.337 32.2918 102.284 32.2801L102.547 30.7916Z" fill="#808184"/>
<path d="M104.613 34.3492C104.748 34.3726 104.882 34.3844 105.016 34.3844C105.15 34.3844 105.29 34.3726 105.442 34.3492L105.658 33.1713C105.687 33.0013 105.722 32.843 105.763 32.7023C105.804 32.5618 105.856 32.4386 105.92 32.339C105.985 32.2394 106.072 32.1632 106.177 32.1105C106.276 32.0576 106.41 32.0283 106.568 32.0283C106.609 32.0283 106.644 32.0283 106.673 32.0342C106.702 32.0401 106.725 32.0401 106.749 32.046C106.795 31.9698 106.83 31.8701 106.86 31.753C106.889 31.6358 106.9 31.5244 106.9 31.4131V31.3603C106.9 31.3427 106.9 31.331 106.895 31.3134C106.836 31.2958 106.766 31.2842 106.685 31.2842C106.58 31.2842 106.486 31.3017 106.399 31.331C106.311 31.3662 106.23 31.4131 106.159 31.4658C106.084 31.5185 106.02 31.583 105.961 31.6474C105.903 31.7178 105.856 31.7882 105.815 31.8585C105.821 31.8057 105.827 31.7647 105.833 31.7296V31.624C105.833 31.5362 105.827 31.4717 105.821 31.4306C105.815 31.3895 105.804 31.3486 105.798 31.3192C105.734 31.3076 105.669 31.2958 105.611 31.2899C105.553 31.2842 105.494 31.2842 105.436 31.2842C105.308 31.2842 105.179 31.2958 105.051 31.3192C105.057 31.3544 105.057 31.3837 105.057 31.4131V31.5244C105.057 31.6299 105.045 31.7764 105.028 31.9639C105.004 32.1573 104.969 32.3741 104.929 32.6203L104.613 34.3492Z" fill="#808184"/>
<path d="M107.23 34.3451C107.37 34.3685 107.498 34.3803 107.621 34.3803C107.755 34.3803 107.895 34.3685 108.041 34.3451L108.572 31.3151H107.393C107.353 31.409 107.323 31.4969 107.306 31.5848C107.289 31.6726 107.277 31.7723 107.277 31.8719C107.277 31.8896 107.277 31.9012 107.283 31.913V31.9482H107.65L107.23 34.3451ZM108.029 30.8288C108.105 30.8347 108.175 30.8347 108.234 30.8347C108.298 30.8347 108.368 30.8347 108.444 30.8288C108.519 30.8229 108.59 30.817 108.66 30.8053C108.706 30.6706 108.741 30.5417 108.764 30.4186C108.788 30.2954 108.799 30.1608 108.799 30.0259C108.735 30.0082 108.665 29.9966 108.59 29.9907C108.514 29.9849 108.444 29.9849 108.379 29.9849C108.315 29.9849 108.245 29.9849 108.169 29.9907C108.094 29.9966 108.018 30.0082 107.948 30.0259C107.901 30.1608 107.866 30.2897 107.849 30.4127C107.825 30.5358 107.814 30.6706 107.819 30.8053C107.884 30.817 107.954 30.8229 108.029 30.8288Z" fill="#808184"/>
<path d="M109.701 34.3492C109.766 34.3667 109.847 34.3726 109.941 34.3726C110.028 34.3785 110.104 34.3785 110.157 34.3785C110.209 34.3785 110.279 34.3785 110.361 34.3726C110.442 34.3667 110.524 34.3608 110.6 34.3492L111.778 32.1808C111.889 31.9757 111.971 31.8057 112.018 31.6767C112.064 31.5537 112.088 31.4424 112.088 31.3486V31.3194C111.954 31.2958 111.796 31.2842 111.621 31.2842C111.533 31.2842 111.452 31.2842 111.376 31.2899C111.294 31.2958 111.218 31.3076 111.154 31.3194V31.3837C111.154 31.4599 111.143 31.5537 111.125 31.6651C111.102 31.7764 111.049 31.9287 110.962 32.1105L110.303 33.5404L110.075 31.3194C109.929 31.2958 109.777 31.2842 109.62 31.2842C109.474 31.2842 109.334 31.2958 109.188 31.3194L109.701 34.3492Z" fill="#808184"/>
<path d="M114.257 32.444C114.181 32.8601 114.064 33.1765 113.907 33.4051C113.749 33.6337 113.574 33.7508 113.387 33.7508C113.195 33.7508 113.101 33.6044 113.101 33.3172C113.101 33.1824 113.119 33.0359 113.16 32.8719C113.201 32.7136 113.259 32.5613 113.346 32.4206C113.434 32.2799 113.539 32.1627 113.673 32.0689C113.802 31.9752 113.959 31.9282 114.146 31.9282H114.245C114.274 31.9341 114.309 31.94 114.344 31.9459L114.257 32.444ZM115.231 31.3834C115.085 31.3423 114.939 31.3071 114.793 31.2837C114.648 31.2601 114.484 31.2485 114.315 31.2485C113.971 31.2485 113.673 31.313 113.416 31.436C113.16 31.565 112.944 31.735 112.775 31.9459C112.6 32.1568 112.471 32.3972 112.384 32.6726C112.296 32.9481 112.25 33.2294 112.25 33.5224C112.25 33.7919 112.314 34.0087 112.442 34.1728C112.571 34.3369 112.763 34.4191 113.02 34.4191C113.253 34.4191 113.457 34.3603 113.632 34.2373C113.807 34.1143 113.953 33.9678 114.064 33.786C114.058 33.8389 114.052 33.8798 114.052 33.9208V34.0323C114.052 34.1201 114.058 34.1846 114.064 34.2257C114.07 34.2666 114.082 34.3076 114.087 34.337C114.222 34.3603 114.338 34.3721 114.449 34.3721C114.572 34.3721 114.7 34.3603 114.828 34.337C114.823 34.3018 114.823 34.2666 114.823 34.2373V34.1319C114.823 34.0264 114.834 33.8798 114.852 33.6864C114.869 33.4989 114.904 33.282 114.945 33.0359L115.231 31.3834Z" fill="#808184"/>
<path d="M116.02 33.2081C116.008 33.2842 115.996 33.3487 115.991 33.4132C115.985 33.4777 115.979 33.5362 115.979 33.5948C115.979 33.882 116.06 34.0813 116.218 34.2043C116.376 34.3275 116.615 34.3861 116.941 34.3861C117.175 34.3861 117.373 34.3625 117.542 34.3098C117.548 34.2805 117.548 34.2453 117.548 34.2161V34.1223C117.548 33.9407 117.525 33.7882 117.472 33.6769C117.432 33.6887 117.385 33.7003 117.332 33.7062C117.28 33.718 117.221 33.7237 117.157 33.7237C117.029 33.7237 116.941 33.6945 116.895 33.6359C116.848 33.5773 116.825 33.4953 116.825 33.3957C116.825 33.3546 116.831 33.3076 116.836 33.2609C116.842 33.2139 116.848 33.1612 116.854 33.1085L117.058 31.954H117.782C117.817 31.8426 117.846 31.7429 117.863 31.6432C117.881 31.5438 117.892 31.4382 117.892 31.3211H117.169L117.204 31.1277C117.221 31.0396 117.233 30.9635 117.245 30.8873C117.251 30.817 117.256 30.7525 117.256 30.688C117.256 30.6002 117.245 30.5241 117.227 30.4653C117.099 30.4653 116.959 30.4771 116.807 30.5064C116.656 30.5357 116.527 30.5826 116.428 30.6471C116.428 30.7057 116.428 30.776 116.422 30.8639C116.416 30.9518 116.405 31.0455 116.387 31.1452L116.352 31.3211H115.903C115.862 31.4323 115.833 31.5438 115.815 31.6432C115.798 31.7429 115.792 31.8484 115.792 31.954H116.241L116.02 33.2081Z" fill="#808184"/>
<path d="M119.379 33.1356C119.566 33.1063 119.747 33.0652 119.922 33.0067C120.091 32.9538 120.248 32.8777 120.383 32.7899C120.517 32.7019 120.628 32.5906 120.709 32.4616C120.791 32.3327 120.832 32.1804 120.832 32.0045C120.832 31.8814 120.809 31.77 120.762 31.6763C120.715 31.5825 120.651 31.5005 120.569 31.436C120.488 31.3716 120.394 31.3246 120.283 31.2953C120.173 31.266 120.05 31.2485 119.922 31.2485C119.653 31.2485 119.414 31.3012 119.198 31.4127C118.983 31.5239 118.796 31.6705 118.65 31.8521C118.498 32.0338 118.381 32.2448 118.3 32.4732C118.218 32.7019 118.177 32.9363 118.177 33.1765C118.177 33.3642 118.207 33.534 118.259 33.6865C118.312 33.8447 118.393 33.9737 118.504 34.0791C118.615 34.1905 118.755 34.2725 118.924 34.331C119.093 34.3898 119.292 34.4191 119.531 34.4191C119.607 34.4191 119.688 34.4132 119.782 34.4014C119.875 34.3955 119.968 34.378 120.062 34.3603C120.155 34.3428 120.248 34.3253 120.336 34.2959C120.424 34.2725 120.499 34.2432 120.563 34.2139C120.563 34.0908 120.552 33.9678 120.534 33.8564C120.511 33.7451 120.47 33.6514 120.406 33.5751C120.272 33.6278 120.149 33.6747 120.033 33.704C119.91 33.7392 119.776 33.7567 119.618 33.7567C119.426 33.7567 119.274 33.7099 119.175 33.6162C119.076 33.5282 119.012 33.3876 118.988 33.2001L119.379 33.1356ZM119.017 32.6492C119.041 32.5495 119.076 32.4558 119.122 32.3561C119.163 32.2624 119.216 32.1804 119.28 32.1041C119.344 32.0279 119.414 31.9693 119.502 31.9225C119.583 31.8814 119.677 31.858 119.776 31.858C119.858 31.858 119.922 31.8814 119.974 31.9284C120.021 31.9752 120.044 32.0338 120.044 32.11C120.044 32.1568 120.033 32.2038 120.015 32.2506C119.998 32.2975 119.957 32.3445 119.904 32.3854C119.852 32.4323 119.776 32.4733 119.683 32.5084C119.589 32.5495 119.467 32.5788 119.321 32.6022L119.017 32.6492Z" fill="#808184"/>
<path d="M122.734 34.3465H124.951C124.969 34.2821 124.986 34.2176 125.004 34.1531C125.021 34.0945 125.033 34.036 125.044 33.9715C125.05 33.9186 125.062 33.8601 125.068 33.7956C125.074 33.737 125.079 33.6725 125.079 33.6081H123.703L124.309 30.1329C124.175 30.1036 124.035 30.0918 123.901 30.0918C123.761 30.0918 123.615 30.1036 123.469 30.1329L122.734 34.3465Z" fill="#808184"/>
<path d="M125.867 34.3451C126.007 34.3685 126.136 34.3803 126.258 34.3803C126.392 34.3803 126.532 34.3685 126.678 34.3451L127.209 31.3153H126.03C125.99 31.409 125.96 31.4969 125.943 31.5848C125.925 31.6726 125.914 31.7723 125.914 31.8719C125.914 31.8896 125.914 31.9012 125.92 31.913V31.9482H126.287L125.867 34.3451ZM126.666 30.8288C126.742 30.8347 126.812 30.8347 126.871 30.8347C126.935 30.8347 127.005 30.8347 127.081 30.8288C127.156 30.8229 127.227 30.817 127.297 30.8054C127.343 30.6706 127.378 30.5417 127.401 30.4186C127.425 30.2956 127.436 30.1608 127.436 30.0259C127.372 30.0084 127.302 29.9966 127.227 29.9907C127.151 29.9849 127.081 29.9849 127.016 29.9849C126.952 29.9849 126.882 29.9849 126.806 29.9907C126.731 29.9966 126.655 30.0084 126.585 30.0259C126.538 30.1608 126.503 30.2897 126.486 30.4127C126.462 30.5358 126.451 30.6706 126.456 30.8054C126.521 30.817 126.591 30.8229 126.666 30.8288Z" fill="#808184"/>
<path d="M127.718 34.3428C127.853 34.3663 127.987 34.378 128.121 34.378C128.255 34.378 128.395 34.3663 128.547 34.3428L128.763 33.1649C128.809 32.9011 128.862 32.6902 128.926 32.532C128.99 32.3736 129.055 32.2448 129.119 32.1568C129.183 32.0689 129.253 32.0163 129.317 31.987C129.381 31.9575 129.445 31.9459 129.498 31.9459C129.585 31.9459 129.655 31.9693 129.696 32.0104C129.737 32.0515 129.761 32.1275 129.761 32.2331C129.761 32.3092 129.755 32.3972 129.737 32.4851L129.411 34.3428C129.545 34.3663 129.679 34.378 129.813 34.378C129.947 34.378 130.093 34.3663 130.239 34.3428L130.472 33.0008C130.513 32.784 130.56 32.6022 130.618 32.4676C130.676 32.3327 130.741 32.2213 130.805 32.1452C130.869 32.0689 130.939 32.0163 131.003 31.987C131.067 31.9575 131.126 31.9459 131.178 31.9459C131.266 31.9459 131.336 31.9693 131.377 32.0104C131.417 32.0515 131.441 32.1275 131.441 32.2331C131.441 32.3092 131.435 32.3972 131.417 32.4851L131.091 34.3428C131.225 34.3663 131.359 34.378 131.493 34.378C131.627 34.378 131.773 34.3663 131.919 34.3428L132.258 32.4206C132.287 32.2741 132.298 32.1334 132.298 31.9986C132.298 31.7291 132.24 31.5357 132.118 31.4184C131.995 31.3071 131.82 31.2485 131.587 31.2485C131.377 31.2485 131.184 31.3071 131.003 31.4184C130.822 31.5357 130.688 31.6763 130.595 31.8404C130.571 31.6295 130.501 31.4771 130.391 31.3832C130.274 31.2953 130.111 31.2485 129.906 31.2485C129.69 31.2485 129.498 31.3071 129.323 31.4243C129.142 31.5416 129.008 31.6821 128.92 31.8521C128.926 31.7993 128.932 31.7584 128.938 31.7232V31.6177C128.938 31.5298 128.932 31.4653 128.926 31.4243C128.92 31.3832 128.909 31.3423 128.903 31.313C128.839 31.3012 128.774 31.2895 128.716 31.2837C128.658 31.2778 128.599 31.2778 128.541 31.2778C128.413 31.2778 128.284 31.2895 128.156 31.313C128.162 31.3482 128.162 31.3775 128.162 31.4068V31.518C128.162 31.6236 128.15 31.77 128.133 31.9575C128.109 32.1509 128.074 32.3679 128.034 32.614L127.718 34.3428Z" fill="#808184"/>
<path d="M133.076 34.3451C133.216 34.3685 133.345 34.3803 133.467 34.3803C133.601 34.3803 133.741 34.3685 133.887 34.3451L134.418 31.3153H133.24C133.199 31.409 133.17 31.4969 133.152 31.5848C133.134 31.6726 133.123 31.7723 133.123 31.8719C133.123 31.8896 133.123 31.9012 133.129 31.913V31.9482H133.496L133.076 34.3451ZM133.875 30.8288C133.951 30.8347 134.021 30.8347 134.08 30.8347C134.144 30.8347 134.214 30.8347 134.29 30.8288C134.366 30.8229 134.436 30.817 134.506 30.8054C134.552 30.6706 134.587 30.5417 134.611 30.4186C134.634 30.2956 134.646 30.1608 134.646 30.0259C134.581 30.0084 134.511 29.9966 134.436 29.9907C134.36 29.9849 134.29 29.9849 134.225 29.9849C134.161 29.9849 134.091 29.9849 134.016 29.9907C133.94 29.9966 133.864 30.0084 133.794 30.0259C133.747 30.1608 133.712 30.2897 133.695 30.4127C133.671 30.5358 133.66 30.6706 133.665 30.8054C133.73 30.817 133.8 30.8229 133.875 30.8288Z" fill="#808184"/>
<path d="M135.191 33.2081C135.179 33.2842 135.167 33.3487 135.162 33.4132C135.156 33.4777 135.15 33.5362 135.15 33.595C135.15 33.8821 135.232 34.0813 135.389 34.2045C135.547 34.3275 135.786 34.3861 136.113 34.3861C136.346 34.3861 136.544 34.3627 136.714 34.3098C136.719 34.2805 136.719 34.2453 136.719 34.2161V34.1223C136.719 33.9407 136.696 33.7884 136.644 33.6769C136.603 33.6887 136.556 33.7003 136.503 33.7062C136.451 33.718 136.393 33.7239 136.329 33.7239C136.2 33.7239 136.113 33.6945 136.066 33.6359C136.019 33.5773 135.996 33.4953 135.996 33.3957C135.996 33.3546 136.002 33.3078 136.008 33.2609C136.013 33.2139 136.019 33.1612 136.025 33.1085L136.229 31.954H136.953C136.988 31.8426 137.017 31.7429 137.035 31.6434C137.052 31.5438 137.064 31.4382 137.064 31.3211H136.34L136.375 31.1277C136.393 31.0396 136.404 30.9635 136.416 30.8873C136.422 30.817 136.428 30.7525 136.428 30.688C136.428 30.6002 136.416 30.5241 136.398 30.4653C136.27 30.4653 136.13 30.4771 135.979 30.5064C135.827 30.5357 135.698 30.5826 135.599 30.6471C135.599 30.7057 135.599 30.776 135.593 30.8639C135.588 30.9518 135.576 31.0455 135.558 31.1452L135.523 31.3211H135.074C135.033 31.4323 135.004 31.5438 134.987 31.6434C134.969 31.7429 134.963 31.8484 134.963 31.954H135.412L135.191 33.2081Z" fill="#808184"/>
<path d="M138.55 33.1356C138.737 33.1063 138.918 33.0652 139.093 33.0067C139.262 32.954 139.42 32.8777 139.554 32.7899C139.688 32.7019 139.799 32.5906 139.881 32.4616C139.962 32.3327 140.003 32.1804 140.003 32.0045C140.003 31.8814 139.98 31.7702 139.933 31.6764C139.886 31.5825 139.822 31.5005 139.741 31.436C139.659 31.3716 139.565 31.3248 139.455 31.2953C139.344 31.266 139.221 31.2485 139.093 31.2485C138.825 31.2485 138.585 31.3012 138.369 31.4127C138.154 31.5239 137.967 31.6705 137.821 31.8521C137.669 32.0338 137.553 32.2448 137.471 32.4734C137.389 32.7019 137.348 32.9363 137.348 33.1767C137.348 33.3642 137.378 33.534 137.43 33.6865C137.483 33.8447 137.564 33.9737 137.675 34.0791C137.786 34.1905 137.926 34.2725 138.095 34.331C138.265 34.3898 138.463 34.4191 138.702 34.4191C138.778 34.4191 138.86 34.4132 138.953 34.4014C139.046 34.3955 139.14 34.378 139.233 34.3605C139.326 34.3428 139.42 34.3253 139.507 34.296C139.595 34.2725 139.671 34.2432 139.735 34.2139C139.735 34.0908 139.723 33.9678 139.706 33.8564C139.682 33.7451 139.641 33.6514 139.577 33.5751C139.443 33.6278 139.321 33.6747 139.204 33.704C139.081 33.7392 138.947 33.7567 138.789 33.7567C138.597 33.7567 138.445 33.7099 138.346 33.6162C138.247 33.5283 138.183 33.3876 138.159 33.2001L138.55 33.1356ZM138.189 32.6492C138.212 32.5495 138.247 32.4558 138.294 32.3561C138.335 32.2624 138.387 32.1804 138.451 32.1041C138.515 32.028 138.585 31.9693 138.673 31.9225C138.754 31.8814 138.848 31.858 138.947 31.858C139.029 31.858 139.093 31.8814 139.145 31.9284C139.192 31.9752 139.215 32.0338 139.215 32.11C139.215 32.1568 139.204 32.2038 139.186 32.2507C139.169 32.2975 139.128 32.3445 139.075 32.3854C139.023 32.4323 138.947 32.4734 138.854 32.5084C138.76 32.5495 138.638 32.5788 138.492 32.6024L138.189 32.6492Z" fill="#808184"/>
<path d="M142.471 32.4439C142.395 32.86 142.278 33.1764 142.121 33.4049C141.963 33.6334 141.788 33.7507 141.601 33.7507C141.409 33.7507 141.315 33.6042 141.315 33.317C141.315 33.1822 141.333 33.0357 141.374 32.8716C141.415 32.7134 141.473 32.5611 141.561 32.4203C141.648 32.2798 141.753 32.1624 141.887 32.0687C142.015 31.9749 142.173 31.9281 142.36 31.9281H142.459C142.488 31.9339 142.523 31.9398 142.558 31.9456L142.471 32.4439ZM143.562 30.9142C143.608 30.6681 143.632 30.4572 143.632 30.2872C143.632 30.1993 143.62 30.123 143.602 30.0645C143.468 30.0411 143.34 30.0293 143.229 30.0293C143.165 30.0293 143.095 30.0293 143.007 30.0352C142.92 30.0411 142.844 30.0527 142.78 30.0645C142.786 30.0996 142.786 30.1289 142.791 30.1582V30.2696C142.791 30.375 142.786 30.5099 142.768 30.6681C142.751 30.8263 142.716 31.0256 142.675 31.2542C142.657 31.2542 142.634 31.2542 142.611 31.2483H142.529C142.185 31.2483 141.887 31.3127 141.63 31.4358C141.374 31.5647 141.158 31.7347 140.989 31.9456C140.814 32.1567 140.685 32.3969 140.598 32.6723C140.51 32.9478 140.464 33.2291 140.464 33.5222C140.464 33.7917 140.528 34.0086 140.656 34.1726C140.785 34.3367 140.977 34.4188 141.234 34.4188C141.35 34.4188 141.461 34.4011 141.566 34.366C141.671 34.331 141.77 34.284 141.864 34.2254C141.951 34.1669 142.039 34.0965 142.115 34.0143C142.191 33.9383 142.255 33.8504 142.307 33.7624C142.301 33.8152 142.296 33.862 142.296 33.909C142.29 33.9558 142.29 33.9968 142.29 34.032C142.29 34.1199 142.296 34.1843 142.301 34.2254C142.307 34.2665 142.319 34.3074 142.325 34.3367C142.459 34.3602 142.576 34.3719 142.686 34.3719C142.809 34.3719 142.937 34.3602 143.066 34.3367C143.06 34.3015 143.06 34.2665 143.06 34.237V34.1317C143.06 34.0261 143.071 33.8797 143.089 33.6863C143.106 33.4988 143.142 33.2818 143.182 33.0357L143.562 30.9142Z" fill="#808184"/>
<path d="M45.7588 5.0376H44.8038V35.7593H45.7588V5.0376Z" fill="#868F9E"/>
<path d="M24.3076 19.6691L19.5806 11.5078H29.0335L24.3076 19.6691Z" fill="#2780BA"/>
<path d="M24.3031 19.6691H14.8813L19.5761 11.5078L24.3031 19.6691Z" fill="#3896D2"/>
<path d="M19.5761 27.833L14.8813 19.6694H24.3031L19.5761 27.833Z" fill="#C03B2B"/>
<path d="M19.5847 27.833H10.164L14.8899 19.6694L19.5847 27.833Z" fill="#E64C3B"/>
<path d="M14.0489 18.6398L4.66364 18.644L9.37599 10.4487L14.0489 18.6398Z" fill="#884B9D"/>
<path d="M14.0489 18.646L9.33764 26.8428L4.66364 18.6501L14.0489 18.646Z" fill="#AC7AB4"/>
<path d="M9.3843 10.4526L0 10.4572L4.71125 2.26074L9.3843 10.4526Z" fill="#0EA085"/>
<path d="M9.3843 10.4575L4.67385 18.6543L0 10.4621L9.3843 10.4575Z" fill="#1CB898"/>
<path d="M14.8588 36.0004L10.164 27.8403H19.5847L14.8588 36.0004Z" fill="#F29B20"/>
<path d="M14.8499 36.0004H5.4292L10.1551 27.8403L14.8499 36.0004Z" fill="#EEC319"/>
<path d="M29.0414 11.5085L24.3155 3.34668H33.7644L29.0414 11.5085Z" fill="#0B1C3C"/>
<path d="M29.0335 11.5085H19.5806L24.3076 3.34668L29.0335 11.5085Z" fill="#3E4965"/>
</svg>
