<svg width="20" height="21" viewBox="0 0 20 21" fill="none" xmlns="http://www.w3.org/2000/svg">
<path d="M14.4959 7.20036C14.0793 6.36702 13.4126 5.61702 12.6626 5.11702C11.8293 4.53369 10.9126 4.28369 9.99593 4.28369C9.07926 4.28369 8.1626 4.53369 7.32926 5.03369C6.49593 5.53369 5.9126 6.28369 5.49593 7.11702C5.07926 8.03369 4.9126 8.95036 4.99593 9.95036C5.1626 10.867 5.49593 11.7837 6.07926 12.5337C6.49593 13.0337 7.49593 13.7837 7.49593 14.7837V16.367C7.49593 16.7004 7.6626 17.0337 7.82926 17.2837C8.07926 17.4504 8.4126 17.617 8.74593 17.617H11.2459C11.5793 17.617 11.9126 17.4504 12.1626 17.2837C12.3293 17.0337 12.4959 16.7004 12.4959 16.367V14.7837C12.4959 13.867 13.4959 13.0337 13.9126 12.5337C14.4959 11.7837 14.8293 10.867 14.9959 9.95036C15.0793 8.95036 14.9126 8.03369 14.4959 7.20036ZM11.6626 16.617C11.6626 16.7004 11.5793 16.7837 11.4959 16.7837H8.49593C8.4126 16.7837 8.32926 16.7004 8.32926 16.617V15.7837C8.32926 15.7004 8.4126 15.617 8.49593 15.617H11.4126C11.4959 15.617 11.5793 15.7004 11.5793 15.7837V16.617H11.6626ZM14.1626 9.86702C14.0793 10.617 13.7459 11.367 13.2459 12.0337C13.2459 12.117 12.9959 12.367 12.8293 12.5337L12.6626 12.617C12.0793 13.2837 11.7459 13.867 11.6626 14.4504V14.7837H8.32926V14.4504C8.24593 13.867 7.99593 13.2837 7.32926 12.617L7.1626 12.4504C6.99593 12.2837 6.74593 12.0337 6.74593 12.0337C6.24593 11.367 5.9126 10.617 5.82926 9.86702C5.74593 9.03369 5.9126 8.28369 6.24593 7.53369C6.57926 6.78369 7.07926 6.20036 7.74593 5.78369C8.4126 5.36702 9.24593 5.11702 9.99593 5.11702C10.7459 5.11702 11.5793 5.36702 12.2459 5.78369C12.9126 6.20036 13.4126 6.78369 13.7459 7.53369C14.0793 8.28369 14.2459 9.03369 14.1626 9.86702Z" fill="#F29B20"/>
<path d="M10.6626 9.36702H12.1626L9.4126 13.2004V10.617H7.82926L10.6626 6.78369V9.36702Z" fill="#F29B20"/>
</svg>
