<svg width="20" height="21" viewBox="0 0 20 21" fill="none" xmlns="http://www.w3.org/2000/svg">
<path fill-rule="evenodd" clip-rule="evenodd" d="M3.63266 4.809C3.133 5.43736 2.8747 6.41889 2.8747 7.80709V14.093C2.8747 15.4171 3.26208 16.3942 3.90768 17.0399C4.55336 17.6857 5.53112 18.0738 6.85762 18.0738H13.1278C14.4503 18.0738 15.4262 17.6859 16.0711 17.0401C16.716 16.3944 17.1034 15.4172 17.1034 14.093L17.1034 14.0896L17.1255 10.0889V10.0872C17.1253 8.66684 16.8636 7.74113 16.3761 7.1693C15.907 6.61922 15.1234 6.27731 13.7747 6.27731L11.4948 6.27731C10.7273 6.27578 10.005 5.91414 9.54335 5.30031L8.80798 4.32098C8.57499 4.00991 8.20889 3.82626 7.82057 3.82626H6.21075C4.89247 3.82626 4.10939 4.2095 3.63266 4.809ZM2.68768 4.05556C3.46059 3.0836 4.64752 2.6167 6.21075 2.6167H7.82057C8.58906 2.6167 9.31271 2.97898 9.77383 3.59456L10.5083 4.57265C10.7421 4.88358 11.1079 5.06682 11.4966 5.06776H13.7747C15.3149 5.06776 16.5086 5.4619 17.2947 6.38393C18.0621 7.28398 18.3334 8.56594 18.3334 10.0889L18.3334 10.0922L18.3114 14.093V14.0947C18.311 15.6551 17.8494 16.9701 16.9253 17.8954C16.0008 18.8211 14.6869 19.2834 13.1278 19.2834H6.85762C5.29526 19.2834 3.97957 18.8214 3.05402 17.8957C2.12839 16.9699 1.66675 15.6541 1.66675 14.093V7.80709C1.66675 6.30996 1.93771 4.99869 2.68768 4.05556Z" fill="#2780BA"/>
<path fill-rule="evenodd" clip-rule="evenodd" d="M5.51868 13.0696C5.51868 12.7356 5.78909 12.4648 6.12266 12.4648H13.8479C14.1815 12.4648 14.4519 12.7356 14.4519 13.0696C14.4519 13.4036 14.1815 13.6744 13.8479 13.6744H6.12266C5.78909 13.6744 5.51868 13.4036 5.51868 13.0696Z" fill="#2780BA"/>
</svg>
