<svg width="20" height="21" viewBox="0 0 20 21" fill="none" xmlns="http://www.w3.org/2000/svg">
<path fill-rule="evenodd" clip-rule="evenodd" d="M3.8037 7.05019C5.17253 4.80516 7.61824 3.43968 10.25 3.45026L10.2517 3.45026C13.3666 3.47316 16.1446 5.41331 17.2339 8.32802C18.3233 11.2429 17.4972 14.5263 15.1581 16.5811C12.8247 18.6308 9.46887 19.0335 6.71631 17.5965C6.71135 17.5942 6.70742 17.5923 6.70481 17.591C6.69042 17.584 6.67723 17.577 6.66898 17.5725C6.65094 17.5627 6.62932 17.5504 6.60811 17.5383C6.58409 17.5245 6.55371 17.507 6.52116 17.4881C6.49702 17.4742 6.47168 17.4595 6.44684 17.4452C6.32744 17.3764 6.20681 17.3083 6.12957 17.2698C6.03398 17.2338 5.92971 17.2274 5.8304 17.2513C5.30538 17.439 4.76902 17.5935 4.22451 17.7137C4.19125 17.7211 4.15734 17.7251 4.12329 17.7259C3.88378 17.7312 3.59441 17.6699 3.39641 17.4149C3.22639 17.196 3.20907 16.9337 3.20907 16.7709C3.20907 16.7295 3.21399 16.6882 3.22373 16.6479C3.36029 16.0831 3.53106 15.5271 3.7351 14.983C3.76137 14.8878 3.75016 14.786 3.70343 14.6986L3.69929 14.6908L3.56052 14.4202C2.34296 12.0906 2.43518 9.29471 3.8037 7.05019ZM10.2449 4.49676C7.97939 4.48796 5.87485 5.66355 4.69722 7.59498C3.5195 9.52658 3.44046 11.9326 4.48883 13.937L4.49074 13.9407L4.62871 14.2097C4.8072 14.5464 4.84417 14.9404 4.73126 15.3046C4.72819 15.3145 4.72482 15.3243 4.72117 15.334C4.56263 15.7551 4.42559 16.1839 4.31058 16.6187C4.7124 16.5189 5.10894 16.3987 5.49865 16.2585C5.51119 16.254 5.52391 16.25 5.53676 16.2465C5.8684 16.1551 6.22102 16.1763 6.53939 16.3065C6.54919 16.3105 6.55886 16.3149 6.5684 16.3195C6.68549 16.3759 6.84917 16.4692 6.96934 16.5384C6.99852 16.5553 7.02493 16.5705 7.04893 16.5844C7.07888 16.6018 7.10507 16.6169 7.12815 16.6301C7.14221 16.6382 7.15262 16.6441 7.15995 16.6482C7.16796 16.6519 7.17588 16.6558 7.18372 16.6599C9.55644 17.9075 12.4543 17.5632 14.4674 15.7949C16.4803 14.0266 17.1907 11.2018 16.2536 8.69438C15.3166 6.18712 12.9264 4.51682 10.2449 4.49676Z" fill="#E64C3B"/>
<path d="M6.92019 11.6479C7.3055 11.6479 7.61786 11.3355 7.61786 10.9502C7.61786 10.5649 7.3055 10.2525 6.92019 10.2525C6.53487 10.2525 6.22251 10.5649 6.22251 10.9502C6.22251 11.3355 6.53487 11.6479 6.92019 11.6479Z" fill="#E64C3B"/>
<path fill-rule="evenodd" clip-rule="evenodd" d="M6.92019 10.6014C6.72753 10.6014 6.57135 10.7575 6.57135 10.9502C6.57135 11.1428 6.72753 11.299 6.92019 11.299C7.11284 11.299 7.26902 11.1428 7.26902 10.9502C7.26902 10.7575 7.11284 10.6014 6.92019 10.6014ZM5.87368 10.9502C5.87368 10.3722 6.34222 9.90368 6.92019 9.90368C7.49816 9.90368 7.9667 10.3722 7.9667 10.9502C7.9667 11.5282 7.49816 11.9967 6.92019 11.9967C6.34222 11.9967 5.87368 11.5282 5.87368 10.9502Z" fill="#E64C3B"/>
<path d="M10.2479 11.6479C10.6333 11.6479 10.9456 11.3355 10.9456 10.9502C10.9456 10.5649 10.6333 10.2525 10.2479 10.2525C9.86262 10.2525 9.55026 10.5649 9.55026 10.9502C9.55026 11.3355 9.86262 11.6479 10.2479 11.6479Z" fill="#E64C3B"/>
<path fill-rule="evenodd" clip-rule="evenodd" d="M10.2479 10.6014C10.0553 10.6014 9.8991 10.7575 9.8991 10.9502C9.8991 11.1428 10.0553 11.299 10.2479 11.299C10.4406 11.299 10.5968 11.1428 10.5968 10.9502C10.5968 10.7575 10.4406 10.6014 10.2479 10.6014ZM9.20143 10.9502C9.20143 10.3722 9.66996 9.90368 10.2479 9.90368C10.8259 9.90368 11.2944 10.3722 11.2944 10.9502C11.2944 11.5282 10.8259 11.9967 10.2479 11.9967C9.66996 11.9967 9.20143 11.5282 9.20143 10.9502Z" fill="#E64C3B"/>
<path d="M13.5752 11.6479C13.9605 11.6479 14.2728 11.3355 14.2728 10.9502C14.2728 10.5649 13.9605 10.2525 13.5752 10.2525C13.1899 10.2525 12.8775 10.5649 12.8775 10.9502C12.8775 11.3355 13.1899 11.6479 13.5752 11.6479Z" fill="#E64C3B"/>
<path fill-rule="evenodd" clip-rule="evenodd" d="M13.5752 10.6014C13.3825 10.6014 13.2263 10.7575 13.2263 10.9502C13.2263 11.1428 13.3825 11.299 13.5752 11.299C13.7678 11.299 13.924 11.1428 13.924 10.9502C13.924 10.7575 13.7678 10.6014 13.5752 10.6014ZM12.5287 10.9502C12.5287 10.3722 12.9972 9.90368 13.5752 9.90368C14.1531 9.90368 14.6217 10.3722 14.6217 10.9502C14.6217 11.5282 14.1531 11.9967 13.5752 11.9967C12.9972 11.9967 12.5287 11.5282 12.5287 10.9502Z" fill="#E64C3B"/>
</svg>
