<svg width="20" height="21" viewBox="0 0 20 21" fill="none" xmlns="http://www.w3.org/2000/svg">
<path fill-rule="evenodd" clip-rule="evenodd" d="M8.00619 2.89755C9.1653 1.97881 10.8113 1.97881 11.9705 2.89755L11.9719 2.89868L17.317 7.1614C17.9471 7.64522 18.3224 8.38856 18.3333 9.18209L18.3334 9.19045L18.3334 16.2831C18.3334 18.1694 16.7904 19.6881 14.9001 19.6881H13.3358L13.3217 19.6879C12.4524 19.6678 11.7483 18.9625 11.7484 18.0872C11.7484 18.0872 11.7484 18.0873 11.7484 18.0872V15.5862C11.7484 15.2916 11.5055 15.0423 11.1928 15.0423H8.84882C8.53849 15.0452 8.2986 15.2935 8.29861 15.5862V18.0795C8.29861 18.1395 8.28993 18.1975 8.27377 18.2523C8.18683 19.064 7.49442 19.6881 6.66426 19.6881H5.1C3.20966 19.6881 1.66675 18.1694 1.66675 16.2831V9.19217C1.6746 8.39715 2.0506 7.65185 2.68318 7.16906L8.00619 2.89755ZM7.0791 17.9417V15.5862C7.0791 15.5862 7.0791 15.5863 7.0791 15.5862C7.07909 14.6112 7.87236 13.8292 8.84236 13.8228L8.84641 13.8227L11.1928 13.8228C12.1674 13.8228 12.9679 14.6065 12.9679 15.5862V18.0872C12.9679 18.2871 13.1291 18.4608 13.3445 18.4686H14.9001C16.1285 18.4686 17.1139 17.4844 17.1139 16.2831V9.19501C17.107 8.77759 16.9085 8.38391 16.5714 8.12643L16.5613 8.11856L11.2129 3.85325C11.2127 3.85308 11.2125 3.85291 11.2123 3.85273C10.4974 3.28661 9.48009 3.28643 8.76504 3.8522L3.44026 8.12515L3.42689 8.13557C3.08932 8.39136 2.89122 8.78477 2.88626 9.20149V16.2831C2.88626 17.4844 3.87159 18.4686 5.1 18.4686H6.66426C6.89053 18.4686 7.06346 18.2886 7.06346 18.0795C7.06346 18.0321 7.06887 17.986 7.0791 17.9417Z" fill="#884B9D"/>
</svg>
