<svg width="20" height="21" viewBox="0 0 20 21" fill="none" xmlns="http://www.w3.org/2000/svg">
<path d="M16.5427 16.4561C16.0095 15.6979 15.3597 15.0481 14.6015 14.5148C14.0183 14.1066 13.4018 13.79 12.7686 13.5567C14.1183 12.6569 15.0014 11.1239 15.0014 9.39098C15.0014 6.63326 12.7602 4.39209 10.0025 4.39209C7.24479 4.39209 5.00362 6.63326 5.00362 9.39098C5.00362 11.1239 5.89509 12.6569 7.23646 13.5567C5.76179 14.0983 4.42875 15.0814 3.45396 16.4561C3.24568 16.756 3.31233 17.1726 3.61226 17.3809C3.7289 17.4642 3.86221 17.5058 3.99551 17.5058C4.2038 17.5058 4.41209 17.4059 4.54539 17.2226C6.66159 14.2149 10.8273 13.4901 13.835 15.6063C14.4682 16.0478 15.0097 16.5977 15.4513 17.2226C15.6596 17.5225 16.0762 17.5975 16.3761 17.3809C16.6844 17.1726 16.7593 16.756 16.5427 16.4561ZM6.33666 9.39098C6.33666 7.36643 7.97796 5.72513 10.0025 5.72513C12.0271 5.72513 13.6684 7.36643 13.6684 9.39098C13.6684 11.4155 12.0271 13.0568 10.0025 13.0568C7.97796 13.0568 6.33666 11.4155 6.33666 9.39098Z" fill="#0B1C3C"/>
</svg>
