<svg width="20" height="21" viewBox="0 0 20 21" fill="none" xmlns="http://www.w3.org/2000/svg">
<path d="M12.6181 15.51C12.1761 14.8815 11.6373 14.3427 11.0087 13.9006C10.5252 13.5622 10.0141 13.2997 9.48915 13.1063C10.6081 12.3603 11.3403 11.0894 11.3403 9.65266C11.3403 7.36636 9.48224 5.5083 7.19594 5.5083C4.90963 5.5083 3.05158 7.36636 3.05158 9.65266C3.05158 11.0894 3.79065 12.3603 4.90272 13.1063C3.68014 13.5553 2.57498 14.3703 1.76683 15.51C1.59414 15.7587 1.6494 16.104 1.89806 16.2767C1.99477 16.3458 2.10528 16.3803 2.2158 16.3803C2.38848 16.3803 2.56116 16.2974 2.67168 16.1455C4.42612 13.652 7.87975 13.051 10.3733 14.8055C10.8982 15.1716 11.3472 15.6274 11.7133 16.1455C11.886 16.3941 12.2313 16.4563 12.48 16.2767C12.7356 16.104 12.7977 15.7587 12.6181 15.51ZM4.15674 9.65266C4.15674 7.97419 5.51747 6.61346 7.19594 6.61346C8.8744 6.61346 10.2351 7.97419 10.2351 9.65266C10.2351 11.3311 8.8744 12.6919 7.19594 12.6919C5.51747 12.6919 4.15674 11.3311 4.15674 9.65266Z" fill="white"/>
<path d="M17.7988 16.3802C17.6262 16.3802 17.4535 16.2973 17.343 16.1453C16.3138 14.6741 14.6215 13.7968 12.8256 13.7968C12.5839 13.7968 12.3766 13.638 12.3007 13.4238C12.2869 13.3755 12.2799 13.3341 12.2799 13.2788C12.2799 13.2304 12.2869 13.189 12.2938 13.1476C12.3628 12.9334 12.5631 12.7746 12.8049 12.7677C13.0812 12.7677 13.3575 12.7262 13.6269 12.6571C14.4074 12.4361 15.0567 11.925 15.4573 11.2204C15.8579 10.5159 15.9546 9.69392 15.7336 8.9134C15.2777 7.2971 13.5992 6.35771 11.9829 6.81359C11.6859 6.89648 11.382 6.7238 11.2991 6.43369C11.2162 6.13668 11.3889 5.83276 11.679 5.74987C13.8824 5.12822 16.1756 6.41297 16.7904 8.61639C17.0874 9.68011 16.9562 10.7991 16.4174 11.7661C16.0928 12.3463 15.6438 12.8298 15.105 13.189C16.3483 13.6518 17.4466 14.4807 18.234 15.5927C18.4067 15.8414 18.3514 16.1868 18.0959 16.3594C18.0199 16.3456 17.9094 16.3802 17.7988 16.3802Z" fill="white"/>
</svg>
