<svg width="12" height="12" viewBox="0 0 12 12" fill="none" xmlns="http://www.w3.org/2000/svg">
<path d="M11.1035 5.27091H6.72852V0.895915C6.72852 0.702528 6.65169 0.517061 6.51495 0.380316C6.3782 0.243571 6.19274 0.166748 5.99935 0.166748C5.80596 0.166748 5.6205 0.243571 5.48375 0.380316C5.347 0.517061 5.27018 0.702528 5.27018 0.895915V5.27091H0.895182C0.701795 5.27091 0.516329 5.34774 0.379584 5.48448C0.242838 5.62123 0.166016 5.80669 0.166016 6.00008C0.166016 6.19347 0.242838 6.37893 0.379584 6.51568C0.516329 6.65242 0.701795 6.72925 0.895182 6.72925H5.27018V11.1042C5.27018 11.2976 5.347 11.4831 5.48375 11.6198C5.6205 11.7566 5.80596 11.8334 5.99935 11.8334C6.19274 11.8334 6.3782 11.7566 6.51495 11.6198C6.65169 11.4831 6.72852 11.2976 6.72852 11.1042V6.72925H11.1035C11.2969 6.72925 11.4824 6.65242 11.6191 6.51568C11.7559 6.37893 11.8327 6.19347 11.8327 6.00008C11.8327 5.80669 11.7559 5.62123 11.6191 5.48448C11.4824 5.34774 11.2969 5.27091 11.1035 5.27091Z" fill="white"/>
</svg>
