<svg width="140" height="140" viewBox="0 0 140 140" fill="none" xmlns="http://www.w3.org/2000/svg">
<circle cx="70" cy="70" r="70" fill="white"/>
<circle cx="70" cy="70" r="65" fill="#B2BFD2"/>
<path d="M86.8 71.1998C90.7765 71.1998 94 74.4233 94 78.3998V80.7998C94 90.2627 85.0744 99.9998 70 99.9998C54.9256 99.9998 46 90.2627 46 80.7998V78.3998C46 74.4233 49.2235 71.1998 53.2 71.1998H86.8ZM70 39.9998C77.2902 39.9998 83.2 45.9096 83.2 53.1998C83.2 60.4899 77.2902 66.3998 70 66.3998C62.7098 66.3998 56.8 60.4899 56.8 53.1998C56.8 45.9096 62.7098 39.9998 70 39.9998Z" fill="#7189AC"/>
</svg>
