<svg width="16" height="12" viewBox="0 0 16 12" fill="none" xmlns="http://www.w3.org/2000/svg">
<path d="M0 0H16V12H0V0Z" fill="#000066"/>
<path d="M0 0V0.69875L7.67592 6.25H8.6421V5.55125L0.966175 0H0ZM8.6421 0V0.69875L0.966175 6.25H0V5.55125L7.67592 0H8.6421Z" fill="white"/>
<path d="M3.60087 0V6.25H5.04122V0H3.60085H3.60087ZM0 2.08333V4.16665H8.6421V2.08333H0Z" fill="white"/>
<path d="M0 2.5V3.75H8.6421V2.5H0ZM3.88895 0V6.25H4.75315V0H3.88895ZM0 6.25L2.8807 4.16665H3.52482L0.644125 6.25H0ZM0 0L2.8807 2.08333H2.23657L0 0.465825V0ZM5.11725 2.08333L7.998 0H8.6421L5.7614 2.08333H5.11725ZM8.64213 6.25L5.76143 4.16665H6.40555L8.64215 5.78415V6.25H8.64213Z" fill="#CC0000"/>
<path fill-rule="evenodd" clip-rule="evenodd" d="M7.49482 9.81323L6.40349 9.9081L6.55382 10.9933L5.79914 10.1992L5.04449 10.9933L5.19484 9.9081L4.10352 9.81323L5.04552 9.25413L4.43942 8.34175L5.46367 8.7296L5.79917 7.68678L6.13467 8.72958L7.15892 8.3417L6.55287 9.25405L7.49482 9.81323ZM12.164 10.8134L11.9005 10.417L12.3458 10.5856L12.4914 10.1324L12.637 10.5856L13.0822 10.417L12.8188 10.8134L13.228 11.0563L12.7539 11.0976L12.8193 11.5688L12.4914 11.224L12.1635 11.5689L12.2289 11.0976L11.7548 11.0564L12.164 10.8134ZM12.164 3.76098L11.9005 3.36458L12.3458 3.53313L12.4914 3.08008L12.637 3.53308L13.0822 3.36458L12.8188 3.76095L13.228 4.00388L12.7539 4.04513L12.8193 4.51638L12.4914 4.17155L12.1635 4.5164L12.2289 4.04515L11.7548 4.0039L12.164 3.76098ZM9.51932 6.62598L9.25589 6.22965L9.70109 6.3982L9.84672 5.94508L9.99234 6.3982L10.4375 6.22965L10.1741 6.62598L10.5834 6.86898L10.1093 6.91023L10.1746 7.38148L9.84672 7.0366L9.51879 7.38148L9.58422 6.91023L9.11012 6.86898L9.51932 6.62598ZM14.5154 5.92075L14.2515 5.5244L14.697 5.69295L14.8416 5.23983L14.9879 5.69295L15.4322 5.5244L15.1695 5.92075L15.5786 6.1637L15.1043 6.20495L15.1695 6.6762L14.8416 6.33138L14.5136 6.6762L14.5789 6.20495L14.1055 6.1637L14.5154 5.92075ZM13.5492 7.99855L13.29 8.15918L13.3629 7.86318L13.13 7.6666L13.4341 7.6442L13.5492 7.36195L13.6644 7.6442L13.9685 7.66663L13.7356 7.8632L13.8084 8.1592" fill="white"/>
</svg>
