
<svg width="18" height="16" viewBox="0 0 18 16" fill="none" xmlns="http://www.w3.org/2000/svg">
<path d="M12.965 2.60791H14.1872C14.9956 2.60791 15.7302 2.93841 16.2624 3.4705C16.7945 4.00259 17.125 4.73745 17.125 5.54562V12.156C17.125 12.9644 16.7946 13.699 16.2625 14.2311C15.7304 14.7633 14.9956 15.0938 14.1872 15.0938H3.81279C3.00439 15.0938 2.26976 14.7633 1.73767 14.2311C1.20551 13.699 0.875 12.9644 0.875 12.156V5.54562C0.875 4.73722 1.20551 4.00252 1.73767 3.47043C2.26976 2.93827 3.00439 2.60791 3.81279 2.60791H5.0351C5.15061 2.23366 5.37629 1.90441 5.65386 1.63826C6.12582 1.18542 6.77371 0.906738 7.27533 0.906738H10.7246C11.2262 0.906738 11.8742 1.18542 12.3461 1.63826C12.6236 1.90441 12.8492 2.23366 12.9649 2.60791H12.965ZM9 5.27035C9.98848 5.27035 10.8838 5.67121 11.5317 6.3191C12.1797 6.96707 12.5806 7.86236 12.5806 8.85092C12.5806 9.8394 12.1797 10.7347 11.5317 11.3827C10.8837 12.0305 9.98863 12.4314 9 12.4314C8.01137 12.4314 7.1163 12.0305 6.46826 11.3827C5.82037 10.7346 5.41951 9.83947 5.41951 8.85092C5.41951 7.86229 5.82037 6.96714 6.46826 6.3191C7.11615 5.67121 8.01152 5.27035 9 5.27035ZM10.7529 7.098C10.3045 6.64954 9.68466 6.37219 9 6.37219C8.31541 6.37219 7.69554 6.64954 7.24708 7.098C6.79877 7.54646 6.52127 8.16633 6.52127 8.85092C6.52127 9.53543 6.79877 10.1554 7.24708 10.6038C7.69554 11.0521 8.31541 11.3296 9 11.3296C9.68452 11.3296 10.3045 11.0521 10.7529 10.6038C11.2014 10.1554 11.4787 9.53551 11.4787 8.85092C11.4787 8.16625 11.2014 7.54646 10.7529 7.098ZM14.1872 3.70967H12.4978C12.1936 3.70967 11.947 3.46301 11.947 3.15883C11.947 2.88689 11.7943 2.63134 11.5844 2.43005C11.3125 2.16916 10.9701 2.00858 10.7247 2.00858H7.2754C7.02993 2.00858 6.68756 2.16916 6.4157 2.43005C6.20574 2.63141 6.05309 2.88689 6.05309 3.15883C6.05309 3.46301 5.80643 3.70967 5.50225 3.70967H3.81286C3.30843 3.70967 2.84944 3.91644 2.51656 4.24932C2.18368 4.58228 1.97684 5.04126 1.97684 5.5457V12.1561C1.97684 12.6603 2.18368 13.1195 2.51656 13.4524C2.84952 13.7852 3.3085 13.9921 3.81286 13.9921H14.1873C14.6917 13.9921 15.1509 13.7852 15.4837 13.4524C15.8166 13.1194 16.0233 12.6605 16.0233 12.1561V5.5457C16.0233 5.04141 15.8165 4.58228 15.4836 4.24947C15.1506 3.91652 14.6916 3.70967 14.1873 3.70967H14.1872Z" fill="#B2BFD2"/>
</svg>
