<svg width="24" height="24" viewBox="0 0 24 24" fill="none" xmlns="http://www.w3.org/2000/svg">
<path fill-rule="evenodd" clip-rule="evenodd" d="M18.7616 20L3 4.23835L4.23835 3L20 18.7616L18.7616 20Z" fill="#B2BFD2"/>
<path fill-rule="evenodd" clip-rule="evenodd" d="M18.7575 15.5191C18.8465 15.4484 18.9355 15.3764 19.0243 15.3032C20.6895 13.9268 21.7403 12.5621 21.8564 12.4112L21.8656 12.3993C22.0448 12.1618 22.0448 11.8369 21.8656 11.5994C21.824 11.5411 20.7533 10.1245 19.0243 8.69553C17.9994 7.84978 16.9537 7.17485 15.9163 6.6874C14.5914 6.06663 13.2749 5.75 12 5.75C11.1506 5.75 10.2828 5.89054 9.40629 6.16794L10.4916 7.25324C10.9828 7.14424 11.487 7.08319 12 7.08319C15.9746 7.08319 19.4284 10.762 20.4741 11.9994C20.0077 12.5513 19.0637 13.589 17.8076 14.5693L18.7575 15.5191ZM12.2482 9.00983C13.7047 9.12968 14.8697 10.2947 14.9895 11.7512L12.2482 9.00983ZM10.2945 9.53288C9.51304 10.0749 9.00031 10.9784 9.00031 11.9994C9.00031 13.6533 10.346 14.999 12 14.999C13.021 14.999 13.9244 14.4863 14.4665 13.7048L13.4961 12.7345C13.2246 13.2863 12.6568 13.6658 12 13.6658C11.0793 13.6658 10.3335 12.9201 10.3335 11.9994C10.3335 11.3425 10.713 10.7747 11.2649 10.5032L10.2945 9.53288ZM8.65297 7.89132C6.18774 9.04699 4.2621 11.1282 3.52588 11.9994C4.57161 13.2367 8.02541 16.9155 12 16.9155C13.5679 16.9155 15.0525 16.3454 16.3402 15.5786L17.3089 16.5473C16.8448 16.8384 16.3797 17.0935 15.9163 17.3113C14.5914 17.9321 13.2749 18.2487 12 18.2487C10.7251 18.2487 9.4086 17.9321 8.08374 17.3113C7.04635 16.8238 6.00063 16.1489 4.97573 15.3032C3.31047 13.9268 2.25971 12.5621 2.14357 12.4112L2.13436 12.3993C1.95521 12.1618 1.95521 11.8369 2.13436 11.5994L2.14357 11.5875C2.25971 11.4366 3.31047 10.0719 4.97573 8.69553C5.86085 7.96513 6.7615 7.36213 7.65891 6.89726L8.65297 7.89132Z" fill="#B2BFD2"/>
</svg>
