<svg width="10" height="10" viewBox="0 0 10 10" fill="none" xmlns="http://www.w3.org/2000/svg">
<path d="M0.322234 9.67777C0.448561 9.80406 0.619875 9.875 0.798501 9.875C0.977128 9.875 1.14844 9.80406 1.27477 9.67777L5.00407 5.94847L8.73337 9.67777C8.86042 9.80048 9.03058 9.86838 9.20721 9.86684C9.38384 9.86531 9.5528 9.79446 9.67769 9.66956C9.80259 9.54466 9.87344 9.3757 9.87498 9.19907C9.87651 9.02245 9.80861 8.85228 9.6859 8.72523L5.9566 4.99593L9.6859 1.26663C9.80861 1.13958 9.87651 0.969419 9.87498 0.792792C9.87344 0.616164 9.80259 0.447205 9.67769 0.322306C9.5528 0.197407 9.38384 0.12656 9.20721 0.125025C9.03058 0.123491 8.86042 0.19139 8.73337 0.3141L5.00407 4.0434L1.27477 0.3141C1.14772 0.19139 0.977553 0.123491 0.800926 0.125025C0.624298 0.12656 0.455339 0.197407 0.33044 0.322306C0.205541 0.447205 0.134694 0.616164 0.13316 0.792792C0.131625 0.969419 0.199524 1.13958 0.322234 1.26663L4.05153 4.99593L0.322234 8.72523C0.195945 8.85156 0.125 9.02287 0.125 9.2015C0.125 9.38013 0.195945 9.55144 0.322234 9.67777Z" fill="#B2BFD2"/>
</svg>
