<svg width="16" height="16" viewBox="0 0 16 16" fill="none" xmlns="http://www.w3.org/2000/svg">
<path d="M15.2 9.6C14.9878 9.6 14.7843 9.68429 14.6343 9.83432C14.4843 9.98434 14.4 10.1878 14.4 10.4V13.6C14.4 13.8122 14.3157 14.0157 14.1657 14.1657C14.0157 14.3157 13.8122 14.4 13.6 14.4H2.4C2.18783 14.4 1.98434 14.3157 1.83431 14.1657C1.68429 14.0157 1.6 13.8122 1.6 13.6V10.4C1.6 10.1878 1.51571 9.98434 1.36569 9.83432C1.21566 9.68429 1.01217 9.6 0.8 9.6C0.587827 9.6 0.384344 9.68429 0.234315 9.83432C0.0842854 9.98434 0 10.1878 0 10.4V13.6C0 14.2365 0.252856 14.847 0.702944 15.2971C1.15303 15.7471 1.76348 16 2.4 16H13.6C14.2365 16 14.847 15.7471 15.2971 15.2971C15.7471 14.847 16 14.2365 16 13.6V10.4C16 10.1878 15.9157 9.98434 15.7657 9.83432C15.6157 9.68429 15.4122 9.6 15.2 9.6ZM7.432 10.968C7.50808 11.0408 7.5978 11.0979 7.696 11.136C7.79176 11.1783 7.8953 11.2002 8 11.2002C8.1047 11.2002 8.20824 11.1783 8.304 11.136C8.4022 11.0979 8.49192 11.0408 8.568 10.968L11.768 7.768C11.9186 7.61736 12.0033 7.41304 12.0033 7.2C12.0033 6.98696 11.9186 6.78264 11.768 6.632C11.6174 6.48136 11.413 6.39673 11.2 6.39673C10.987 6.39673 10.7826 6.48136 10.632 6.632L8.8 8.472V0.8C8.8 0.587827 8.71571 0.384344 8.56569 0.234315C8.41566 0.0842854 8.21217 0 8 0C7.78783 0 7.58434 0.0842854 7.43431 0.234315C7.28429 0.384344 7.2 0.587827 7.2 0.8V8.472L5.368 6.632C5.29341 6.55741 5.20486 6.49824 5.1074 6.45787C5.00994 6.4175 4.90549 6.39673 4.8 6.39673C4.69451 6.39673 4.59006 6.4175 4.4926 6.45787C4.39514 6.49824 4.30659 6.55741 4.232 6.632C4.15741 6.70659 4.09824 6.79514 4.05787 6.8926C4.0175 6.99006 3.99673 7.09451 3.99673 7.2C3.99673 7.30549 4.0175 7.40994 4.05787 7.5074C4.09824 7.60486 4.15741 7.69341 4.232 7.768L7.432 10.968Z" fill="#B2BFD2"/>
</svg>
