<svg width="16" height="12" viewBox="0 0 16 12" fill="none" xmlns="http://www.w3.org/2000/svg">
<path d="M13.7273 11.7011H2.27273C1.67018 11.7004 1.09251 11.4607 0.666448 11.0347C0.240382 10.6086 0.000707631 10.0309 0 9.42839V2.57278C0.000707631 1.97023 0.240382 1.39256 0.666448 0.966497C1.09251 0.540431 1.67018 0.300756 2.27273 0.300049H13.7273C14.3298 0.300756 14.9075 0.540431 15.3336 0.966497C15.7596 1.39256 15.9993 1.97023 16 2.57278V9.42839C15.9993 10.0309 15.7596 10.6086 15.3336 11.0347C14.9075 11.4607 14.3298 11.7004 13.7273 11.7011ZM2.27273 1.10219C1.8827 1.10219 1.50865 1.25712 1.23286 1.53291C0.957076 1.8087 0.802139 2.18275 0.802139 2.57278V9.42839C0.802139 9.81842 0.957076 10.1925 1.23286 10.4683C1.50865 10.744 1.8827 10.899 2.27273 10.899H13.7273C14.1173 10.899 14.4913 10.744 14.7671 10.4683C15.0429 10.1925 15.1979 9.81842 15.1979 9.42839V2.57278C15.1979 2.18275 15.0429 1.8087 14.7671 1.53291C14.4913 1.25712 14.1173 1.10219 13.7273 1.10219H2.27273Z" fill="#7189AC"/>
<path d="M8 7.62625C7.50523 7.62703 7.02369 7.46651 6.62834 7.16903L0.385027 2.44711C0.340915 2.41615 0.303495 2.37662 0.275001 2.33087C0.246508 2.28513 0.227525 2.23411 0.219188 2.18087C0.21085 2.12763 0.213328 2.07325 0.226474 2.02099C0.23962 1.96872 0.263164 1.91965 0.2957 1.87668C0.328236 1.83372 0.369096 1.79776 0.415841 1.77094C0.462586 1.74412 0.514257 1.727 0.567766 1.72059C0.621276 1.71419 0.675528 1.71864 0.727281 1.73366C0.779035 1.74869 0.827228 1.774 0.868984 1.80807L7.1123 6.53534C7.36868 6.72673 7.68006 6.83013 8 6.83013C8.31994 6.83013 8.63132 6.72673 8.8877 6.53534L15.131 1.80807C15.1728 1.774 15.221 1.74869 15.2727 1.73366C15.3245 1.71864 15.3787 1.71419 15.4322 1.72059C15.4857 1.727 15.5374 1.74412 15.5842 1.77094C15.6309 1.79776 15.6718 1.83372 15.7043 1.87668C15.7368 1.91965 15.7604 1.96872 15.7735 2.02099C15.7867 2.07325 15.7892 2.12763 15.7808 2.18087C15.7725 2.23411 15.7535 2.28513 15.725 2.33087C15.6965 2.37662 15.6591 2.41615 15.615 2.44711L9.37166 7.16903C8.97631 7.46651 8.49477 7.62703 8 7.62625Z" fill="#7189AC"/>
<path d="M0.558824 10.5835C0.477479 10.5836 0.398022 10.559 0.330994 10.5129C0.263966 10.4668 0.212537 10.4014 0.18353 10.3254C0.154524 10.2494 0.149312 10.1664 0.168585 10.0874C0.187859 10.0083 0.230707 9.93705 0.291444 9.88294L5.21123 5.49524C5.29065 5.42432 5.39499 5.38787 5.5013 5.39388C5.6076 5.3999 5.70716 5.4479 5.77807 5.52732C5.84899 5.60675 5.88545 5.71109 5.87943 5.81739C5.87341 5.92369 5.82541 6.02325 5.74599 6.09417L0.826203 10.4819C0.753141 10.5483 0.657595 10.5847 0.558824 10.5835ZM15.4412 10.5835C15.3424 10.5847 15.2469 10.5483 15.1738 10.4819L10.254 6.09417C10.2147 6.05905 10.1827 6.01654 10.1598 5.96905C10.1369 5.92156 10.1235 5.87003 10.1206 5.81739C10.1176 5.76475 10.125 5.71205 10.1424 5.66228C10.1598 5.61251 10.1868 5.56665 10.2219 5.52732C10.257 5.488 10.2996 5.45597 10.347 5.43308C10.3945 5.41018 10.4461 5.39686 10.4987 5.39388C10.5513 5.3909 10.604 5.39832 10.6538 5.41571C10.7036 5.4331 10.7494 5.46012 10.7888 5.49524L15.7059 9.88294C15.7666 9.93705 15.8095 10.0083 15.8287 10.0874C15.848 10.1664 15.8428 10.2494 15.8138 10.3254C15.7848 10.4014 15.7334 10.4668 15.6663 10.5129C15.5993 10.559 15.5198 10.5836 15.4385 10.5835H15.4412Z" fill="#7189AC"/>
</svg>
