<svg width="27" height="40" viewBox="0 0 27 40" fill="none" xmlns="http://www.w3.org/2000/svg">
<path d="M6.66667 39.9993C10.3467 39.9993 13.3333 37.0127 13.3333 33.3327V26.666H6.66667C2.98667 26.666 0 29.6527 0 33.3327C0 37.0127 2.98667 39.9993 6.66667 39.9993Z" fill="#0ACF83"/>
<path d="M0 20.0007C0 16.3207 2.98667 13.334 6.66667 13.334H13.3333V26.6673H6.66667C2.98667 26.6673 0 23.6807 0 20.0007Z" fill="#A259FF"/>
<path d="M0 6.66667C0 2.98667 2.98667 0 6.66667 0H13.3333V13.3333H6.66667C2.98667 13.3333 0 10.3467 0 6.66667Z" fill="#F24E1E"/>
<path d="M13.334 0H20.0007C23.6807 0 26.6673 2.98667 26.6673 6.66667C26.6673 10.3467 23.6807 13.3333 20.0007 13.3333H13.334V0Z" fill="#FF7262"/>
<path d="M26.6673 20.0007C26.6673 23.6807 23.6807 26.6673 20.0007 26.6673C16.3207 26.6673 13.334 23.6807 13.334 20.0007C13.334 16.3207 16.3207 13.334 20.0007 13.334C23.6807 13.334 26.6673 16.3207 26.6673 20.0007Z" fill="#1ABCFE"/>
</svg>
