
<svg width="70" height="60" viewBox="0 0 70 60" fill="none" xmlns="http://www.w3.org/2000/svg">
<circle opacity="0.5" cx="44.5" cy="38.5" r="21.5" fill="#B2BFD2"/>
<g clip-path="url(#clip0_671_24138)">
<path fill-rule="evenodd" clip-rule="evenodd" d="M51.8448 15.0143L41.9027 5.0723C41.6998 4.8694 41.3955 4.6665 41.0911 4.6665L21.8158 4.6665C19.5839 4.6665 17.7578 6.49259 17.7578 8.72447L17.7578 47.2752C17.7578 49.5071 19.5839 51.3332 21.8158 51.3332H48.1926C50.4245 51.3332 52.2506 49.5071 52.2506 47.2752V15.8259C52.2506 15.5216 52.0477 15.2172 51.8448 15.0143ZM50.2216 47.2752C50.2216 48.3911 49.3085 49.3042 48.1926 49.3042H21.8158C20.6998 49.3042 19.7868 48.3911 19.7868 47.2752L19.7868 8.72447C19.7868 7.60853 20.6998 6.69549 21.8158 6.69549L40.0767 6.69549V15.8259C40.0767 16.4346 40.4825 16.8404 41.0911 16.8404H50.2216V47.2752Z" fill="#445774"/>
<path fill-rule="evenodd" clip-rule="evenodd" d="M21.8176 49.7098C20.4988 49.7098 19.3828 48.5939 19.3828 47.2751L19.3828 8.72433C19.3828 7.40549 20.4988 6.28955 21.8176 6.28955L40.4843 6.28955V15.8258C40.4843 16.1301 40.7886 16.4345 41.093 16.4345H50.6292V47.2751C50.6292 48.5939 49.5133 49.7098 48.1944 49.7098H21.8176Z" fill="#F9FAFB"/>
<path fill-rule="evenodd" clip-rule="evenodd" d="M41.8008 15.1154V7.40527L49.5109 15.1154H41.8008Z" fill="#F9FAFB"/>
<path d="M35.0038 44.2319C35.6125 44.2319 36.0183 43.8261 36.0183 43.2174V31.0435L40.3806 35.4058C40.7864 35.8116 41.3951 35.8116 41.8009 35.4058C42.2067 35 42.2067 34.3913 41.8009 33.9855L35.7139 27.8986C35.511 27.6957 35.3081 27.5942 35.0038 27.5942C34.9023 27.5942 34.6994 27.5942 34.598 27.6957C34.4965 27.6957 34.3951 27.7971 34.2936 27.8986L28.2067 33.9855C27.8009 34.3913 27.8009 35 28.2067 35.4058C28.6125 35.8116 29.2212 35.8116 29.627 35.4058L33.9893 31.0435V43.2174C33.9893 43.8261 34.3951 44.2319 35.0038 44.2319Z" fill="#445774"/>
</g>
<circle cx="12.5" cy="3.5" r="1.5" fill="#B2BFD2"/>
<path fill-rule="evenodd" clip-rule="evenodd" d="M6 59C6 55.7143 3.28571 53 0 53C3.28571 53 6 50.2857 6 47C6 50.2857 8.71429 53 12 53C8.71429 53 6 55.7143 6 59Z" fill="#B2BFD2"/>
<path fill-rule="evenodd" clip-rule="evenodd" d="M67.5 17C67.5 15.631 66.369 14.5 65 14.5C66.369 14.5 67.5 13.369 67.5 12C67.5 13.369 68.631 14.5 70 14.5C68.631 14.5 67.5 15.631 67.5 17Z" fill="#B2BFD2"/>
<defs>
<clipPath id="clip0_671_24138">
<rect width="34.4928" height="46.6667" fill="white" transform="translate(17.7578 4.6665)"/>
</clipPath>
</defs>
</svg>
