<svg width="22" height="22" viewBox="0 0 22 22" fill="none" xmlns="http://www.w3.org/2000/svg">
<path d="M17.4839 21.1004C16.7249 21.641 11.855 18.2142 10.9223 18.2067C9.98961 18.1992 5.06487 21.5472 4.31474 20.9945C3.56461 20.4417 5.32814 14.7644 5.04708 13.8776C4.76603 12.9907 0.0509482 9.35493 0.34632 8.47274C0.641691 7.59055 6.60154 7.5086 7.36051 6.96802C8.11948 6.42743 10.1301 0.832347 11.0628 0.839851C11.9955 0.847356 13.9154 6.47407 14.6655 7.0268C15.4156 7.57952 21.3734 7.75737 21.6544 8.64419C21.9355 9.53102 17.1622 13.0905 16.8668 13.9727C16.5714 14.8549 18.2428 20.5598 17.4839 21.1004Z" fill="#F8B84E"/>
</svg>
