<svg width="12" height="16" viewBox="0 0 12 16" fill="none" xmlns="http://www.w3.org/2000/svg">
<path d="M0.334169 8.09406C0.560949 8.64092 1.13995 8.85274 1.65065 9.03957C1.93458 9.14347 2.22832 9.25095 2.36135 9.38398C2.43841 9.4611 2.50677 9.59275 2.57094 9.7445L0.923663 14.6148C0.864289 14.79 0.91652 14.9837 1.05603 15.1055C1.19553 15.2274 1.39463 15.253 1.56003 15.1706L2.72965 14.5894L3.3274 15.7519C3.40597 15.905 3.56355 16 3.73364 16C3.74502 16 3.75641 15.9996 3.76801 15.9988C3.95104 15.985 4.10818 15.8631 4.16689 15.6891L5.77371 10.9302C5.85451 10.9072 5.93152 10.8902 5.99765 10.8902C6.06377 10.8902 6.14078 10.9072 6.22158 10.9302L7.8284 15.6891C7.88711 15.8631 8.04425 15.985 8.22728 15.9988C8.23889 15.9996 8.25027 16 8.26165 16C8.43174 16 8.58932 15.905 8.66789 15.7519L9.26565 14.5894L10.4353 15.1706C10.6007 15.253 10.7998 15.2274 10.9393 15.1055C11.0788 14.9837 11.131 14.79 11.0716 14.6148L9.42435 9.7445C9.48852 9.59275 9.55688 9.4611 9.63394 9.38398C9.7672 9.25084 10.0607 9.14347 10.3446 9.03957C10.8553 8.85263 11.4343 8.64092 11.6611 8.09406C11.8799 7.56606 11.6283 7.01785 11.4062 6.53416C11.2754 6.24946 11.1402 5.95493 11.1402 5.7478C11.1402 5.54055 11.2754 5.24613 11.4062 4.96121C11.6283 4.47763 11.8799 3.92943 11.6611 3.40142C11.4343 2.85456 10.8553 2.64285 10.3446 2.45591C10.0607 2.35201 9.7672 2.24464 9.63394 2.1115C9.50091 1.97836 9.39332 1.68473 9.28953 1.40069C9.1027 0.889991 8.89088 0.310987 8.34402 0.0844301C7.81635 -0.134873 7.2677 0.11713 6.78423 0.339223C6.49942 0.470023 6.20478 0.605288 5.99765 0.605288C5.79051 0.605288 5.49587 0.470023 5.21106 0.339223C4.72759 0.11713 4.17849 -0.134538 3.6515 0.0843185C3.10441 0.311099 2.89259 0.890102 2.70576 1.4008C2.60197 1.68484 2.49438 1.97847 2.36135 2.1115C2.22832 2.24464 1.93458 2.35212 1.65065 2.45602C1.13995 2.64285 0.560949 2.85467 0.334169 3.40154C0.115424 3.92954 0.36698 4.47763 0.589073 4.96132C0.719873 5.24613 0.855138 5.54055 0.855138 5.7478C0.855138 5.95493 0.719873 6.24946 0.589073 6.53416C0.36698 7.01785 0.115424 7.56606 0.334169 8.09406ZM3.64636 14.3729L3.33655 13.7704C3.22249 13.5482 2.9504 13.4587 2.72674 13.57L2.14417 13.8594L3.12099 10.9716C3.25513 11.1586 3.42299 11.3166 3.6515 11.4113C3.79502 11.4708 3.93988 11.4954 4.08452 11.4954C4.27609 11.4954 4.46721 11.452 4.6541 11.3887L3.64636 14.3729ZM9.26855 13.57C9.04489 13.4587 8.7728 13.5482 8.65874 13.7704L8.34893 14.3729L7.34108 11.3884C7.66954 11.4996 8.01107 11.5494 8.34379 11.4113C8.5723 11.3166 8.74016 11.1586 8.87431 10.9716L9.85112 13.8594L9.26855 13.57ZM1.42008 4.57974C1.28303 4.28176 1.11272 3.91079 1.17879 3.75175C1.25178 3.57542 1.63057 3.4368 1.96493 3.3146C2.34193 3.17654 2.73188 3.03391 3.00776 2.75803C3.28365 2.48214 3.42628 2.09208 3.56445 1.71497C3.68654 1.38083 3.82515 1.00204 4.00171 0.928829C4.02604 0.918785 4.05528 0.914209 4.08854 0.914209C4.27246 0.914209 4.57714 1.05416 4.82959 1.17012C5.20369 1.34188 5.59051 1.51955 5.99765 1.51955C6.40478 1.51955 6.7916 1.34188 7.1657 1.17012C7.4639 1.03329 7.8351 0.863094 7.9938 0.928941C8.17014 1.00204 8.30875 1.38072 8.43085 1.71486C8.56901 2.09208 8.71164 2.48203 8.98753 2.75791C9.26341 3.0338 9.65336 3.17654 10.0306 3.3146C10.3647 3.4368 10.7435 3.57542 10.8165 3.75164C10.8826 3.91068 10.7123 4.28165 10.5752 4.57974C10.4036 4.95384 10.2259 5.34077 10.2259 5.7478C10.2259 6.15482 10.4036 6.54164 10.5752 6.91574C10.7123 7.21383 10.8826 7.5848 10.8165 7.74384C10.7435 7.92006 10.3647 8.05868 10.0306 8.18088C9.65336 8.31894 9.26341 8.46168 8.98753 8.73757C8.71164 9.01345 8.56901 9.4034 8.43085 9.78062C8.30853 10.1148 8.17014 10.4936 7.9938 10.5667C7.8351 10.6334 7.4639 10.4624 7.1657 10.3254C6.7916 10.1536 6.40478 9.97593 5.99765 9.97593C5.59051 9.97593 5.20369 10.1536 4.82959 10.3254C4.53161 10.4624 4.16064 10.6334 4.00149 10.5667C3.82515 10.4936 3.68676 10.1148 3.56445 9.78062C3.42628 9.4034 3.28365 9.01345 3.00776 8.73746C2.73188 8.46168 2.34193 8.31905 1.96493 8.18099C1.63057 8.05879 1.25178 7.92018 1.17879 7.74384C1.11272 7.5848 1.28303 7.21383 1.42008 6.91574C1.59173 6.54164 1.7694 6.15482 1.7694 5.7478C1.7694 5.34066 1.59173 4.95384 1.42008 4.57974Z" fill="#7189AC"/>
<path d="M5.99791 8.91748C7.74564 8.91748 9.1677 7.49553 9.1677 5.7478C9.1677 4.00008 7.74564 2.57812 5.99791 2.57812C4.25019 2.57812 2.82812 4.00008 2.82812 5.7478C2.82812 7.49553 4.25019 8.91748 5.99791 8.91748ZM5.99791 3.49239C7.24163 3.49239 8.25344 4.50419 8.25344 5.7478C8.25344 6.99141 7.24163 8.00322 5.99791 8.00322C4.75419 8.00322 3.74239 6.99141 3.74239 5.7478C3.74239 4.50419 4.75419 3.49239 5.99791 3.49239Z" fill="#7189AC"/>
</svg>
