<svg width="32" height="40" viewBox="0 0 32 40" fill="none" xmlns="http://www.w3.org/2000/svg">
<path d="M0 11.8269H3.58109C3.85342 11.8269 4.12123 11.8269 4.38902 11.8269C4.57511 11.8269 4.62504 11.8813 4.6205 12.0629V12.2944C4.61127 12.35 4.61127 12.4067 4.6205 12.4623C4.6205 13.1613 4.6205 13.8557 4.6205 14.5547C4.6205 18.7909 4.6205 23.0362 4.6205 27.2906C4.60185 27.4672 4.63003 27.6457 4.70219 27.808C4.75699 28.5665 4.88775 29.3177 5.09252 30.0502C5.46874 31.4728 6.08255 32.8216 6.90805 34.0398C7.69366 35.2092 8.65689 36.249 9.76297 37.1216C10.8584 37.988 12.0838 38.6758 13.394 39.1595C14.4022 39.5298 15.4502 39.7811 16.5167 39.9084C17.6498 40.0417 18.7953 40.0295 19.9253 39.8721C20.6637 39.77 21.3914 39.6014 22.0994 39.3683C23.1753 39.0228 24.2043 38.5456 25.1631 37.9477C25.944 37.4463 26.6777 36.8751 27.3554 36.2411C27.3554 36.2411 27.3826 36.1866 27.4098 36.1367C27.1466 36.232 26.9242 36.35 26.6836 36.4408C25.497 36.8604 24.2299 37.0017 22.98 36.8538C21.9873 36.748 21.0226 36.4603 20.1341 36.0051C19.2378 35.5463 18.4452 34.9083 17.8057 34.1305C17.0494 33.2073 16.4847 32.1427 16.1445 30.9988C15.883 30.1299 15.7067 29.2376 15.618 28.3345C15.5628 27.6976 15.5415 27.0582 15.5545 26.4191C15.5545 21.6443 15.5545 16.8695 15.5545 12.0946C15.5545 11.8859 15.5953 11.8269 15.8132 11.8269C17.1748 11.8269 18.5773 11.8269 19.9571 11.8269C20.0206 11.8269 20.1114 11.8677 20.1477 11.7996C20.184 11.7315 20.0887 11.6862 20.0479 11.6362C18.4638 9.77078 16.8707 7.89625 15.2912 6.0308C14.0158 4.52846 12.7313 3.0352 11.4514 1.53286C11.0474 1.07898 10.6435 0.584238 10.2441 0.103125C10.1533 -0.00580653 10.1034 -0.0602722 9.98082 0.103125C9.07306 1.17882 8.1653 2.24545 7.25754 3.31661L4.18931 6.83418L2.06061 9.33959L1.91991 9.49845L1.26632 10.2746L1.1347 10.4244C1.07116 10.5151 0.96675 10.5787 0.948594 10.7012C0.652859 10.9819 0.379692 11.2854 0.131615 11.609C0.0816885 11.6589 0.0045388 11.6998 0 11.8132V11.8269ZM4.64319 12.6756V12.6393V12.6756Z" fill="#20366A"/>
<path d="M18.3679 29.0689C18.7377 29.0419 19.0921 28.9096 19.3892 28.6877C19.7521 28.452 20.0483 28.1271 20.2494 27.7439C20.4505 27.3608 20.5497 26.9325 20.5375 26.4999C20.5375 22.4786 20.5375 18.4617 20.5375 14.4404C20.5375 14.2225 20.6056 14.1816 20.8053 14.1816C24.2608 14.1816 27.7164 14.1816 31.1719 14.1816C31.3761 14.1816 31.4397 14.227 31.4397 14.4449C31.4397 17.1228 31.4397 19.7992 31.4397 22.474C31.4397 22.5739 31.4397 22.6737 31.4397 22.7736C31.4419 22.7962 31.4419 22.819 31.4397 22.8417V23.5043C31.4397 24.571 31.4397 25.633 31.4397 26.6815C31.4447 27.5443 31.3255 28.4034 31.0857 29.2323C30.7719 30.3321 30.1991 31.3406 29.4154 32.1735C28.6299 32.9951 27.6524 33.6086 26.571 33.9588C25.4895 34.309 24.338 34.3849 23.2199 34.1796C22.1313 33.9832 21.1128 33.506 20.2651 32.7953C19.2225 31.8853 18.4988 30.6653 18.2 29.314C18.1591 29.1506 18.2 29.0553 18.3861 29.0462" fill="#20366A"/>
</svg>
