<svg width="40" height="30" viewBox="0 0 40 30" fill="none" xmlns="http://www.w3.org/2000/svg">
<path fill-rule="evenodd" clip-rule="evenodd" d="M11.7725 0.841347C11.8255 0.928903 11.7975 1.04283 11.7099 1.09581C9.81671 2.24146 8.18141 3.76696 6.90717 5.57613C5.63292 7.38529 4.74738 9.43886 4.30637 11.6073C4.28598 11.7076 4.18815 11.7724 4.08786 11.752C3.98758 11.7316 3.92281 11.6338 3.94321 11.5335C4.39442 9.31483 5.30045 7.21375 6.60418 5.36272C7.90791 3.5117 9.58104 1.9509 11.5181 0.778747C11.6056 0.725764 11.7195 0.753792 11.7725 0.841347Z" fill="black"/>
<path fill-rule="evenodd" clip-rule="evenodd" d="M5.49144 21.9872C5.58251 21.9406 5.69418 21.9765 5.74086 22.0676C7.43718 25.377 10.2294 27.9951 13.6411 29.4751C13.735 29.5158 13.7781 29.6249 13.7373 29.7188C13.6966 29.8127 13.5875 29.8558 13.4936 29.815C10.0032 28.3009 7.14653 25.6224 5.41106 22.2367C5.36438 22.1456 5.40037 22.0339 5.49144 21.9872Z" fill="black"/>
<path fill-rule="evenodd" clip-rule="evenodd" d="M36.0311 16.9531C36.1324 16.9679 36.2025 17.0619 36.1878 17.1632C35.3618 22.8401 31.6226 27.5716 26.5369 29.7937C26.4431 29.8346 26.3339 29.7918 26.2929 29.6981C26.2519 29.6043 26.2947 29.495 26.3885 29.4541C31.3596 27.2821 35.0139 22.6571 35.821 17.1098C35.8358 17.0085 35.9298 16.9384 36.0311 16.9531Z" fill="black"/>
<path fill-rule="evenodd" clip-rule="evenodd" d="M27.9254 0.676424C27.9767 0.587873 28.0901 0.557678 28.1786 0.60898C30.66 2.04658 32.7226 4.10768 34.162 6.58799C34.2134 6.67651 34.1833 6.7899 34.0947 6.84127C34.0062 6.89263 33.8928 6.86252 33.8415 6.77401C32.4345 4.34955 30.4183 2.33488 27.9928 0.92965C27.9043 0.878347 27.8741 0.764974 27.9254 0.676424Z" fill="black"/>
<path d="M14.1675 7.79688C14.1525 7.80439 14.1367 7.8104 14.1205 7.81479C14.0785 7.88644 14.039 7.95623 14.002 8.02356C14.0186 7.99638 14.0365 7.9655 14.0501 7.94635C14.0829 7.89755 14.1243 7.85308 14.1675 7.79688Z" fill="#221F20"/>
<path fill-rule="evenodd" clip-rule="evenodd" d="M16.6278 7.65587C16.7275 7.75144 16.8062 7.86671 16.8588 7.99436C16.8839 8.05424 16.9035 8.11626 16.9175 8.17966C17.047 8.22014 17.1684 8.28284 17.2764 8.36495C17.3786 8.44514 17.4664 8.54229 17.5358 8.65217C17.5654 8.65217 17.5976 8.65217 17.626 8.65835C17.7389 8.67478 17.8465 8.71705 17.9404 8.78188C18.0148 8.83428 18.0817 8.89662 18.1392 8.96718C18.2054 8.9428 18.2728 8.92218 18.3412 8.90541C18.5007 8.8696 18.6651 8.86125 18.8273 8.88071C18.9884 8.90123 19.145 8.94775 19.2912 9.01845C19.3582 9.05003 19.423 9.08615 19.4851 9.12654C19.5705 9.07651 19.6588 9.03155 19.7495 8.99189C19.9222 8.91554 20.1066 8.86896 20.2949 8.85415C20.4974 8.84026 20.7004 8.87192 20.8891 8.9468C20.982 8.98454 21.0708 9.03173 21.1541 9.08762C21.2351 9.04398 21.3196 9.00721 21.4067 8.97768C21.5733 8.92217 21.7465 8.88934 21.9218 8.88009C22.0951 8.86974 22.2691 8.88136 22.4394 8.91468C22.5492 8.93565 22.6567 8.96687 22.7606 9.00795C22.8593 8.95462 22.961 8.90699 23.0651 8.86527C23.2457 8.79312 23.4363 8.74957 23.6303 8.73617C23.821 8.72732 24.012 8.74605 24.1973 8.79176C24.3122 8.81894 24.4203 8.85353 24.5247 8.88565C24.6058 8.84245 24.6916 8.80867 24.7804 8.78497C24.9485 8.74017 25.125 8.73762 25.2943 8.77756C25.4529 8.81647 25.6018 8.88776 25.7316 8.98694C25.807 9.04363 25.8773 9.10688 25.9416 9.17595C26.0077 9.18583 26.0744 9.19819 26.1411 9.21363C26.2931 9.03203 26.4413 8.86156 26.4765 8.79176C25.9731 8.76891 25.4265 8.41807 25.2622 7.72876C25.8669 8.9295 26.5673 8.58979 28.0584 8.54655C28.5828 8.53173 29.2189 8.71517 29.4252 8.25748C29.9132 7.20745 29.5636 7.20312 29.0899 6.82449C28.4722 6.31616 28.3487 6.04623 28.3567 5.48972C28.3567 5.36618 28.395 5.11912 28.3567 5.0172C28.4697 5.17285 28.4265 5.29762 28.4185 5.47675C28.8168 5.32665 29.1664 5.02894 29.2381 4.54345C28.689 4.36371 28.3999 4.58978 28.1992 4.80472C28.1304 4.74917 28.0535 4.70439 27.9713 4.67193H27.9657H27.9601H27.9496H27.9039H27.9008H27.8959H27.8823H27.8422H27.8391H27.8243H27.8187C27.8011 4.6692 27.7854 4.65966 27.7748 4.64537L27.4574 4.3983L27.8181 4.5836C27.8228 4.58829 27.8285 4.59187 27.8348 4.5941C28.0818 4.171 28.0312 3.68119 27.773 3.09132C27.773 3.57557 27.6136 3.97149 27.3122 4.28527L27.2943 4.27106L27.2819 4.24882L27.2782 4.24265L27.2739 4.23585L27.2659 4.22227L27.2622 4.21609L27.2461 4.192L27.2375 4.17965L27.2332 4.17347V4.16914L27.2288 4.16297L27.2196 4.15123L27.2165 4.14753L27.2072 4.13641L27.2023 4.13085V4.12776L27.1973 4.1222L27.1924 4.11664L27.1874 4.1117L27.1825 4.10676L27.1776 4.10182L27.1726 4.0975L27.1677 4.09255L27.1627 4.08823L27.1578 4.08391H27.1541L27.1436 4.07526L27.138 4.07094L27.1343 4.06785L27.1294 4.06414L27.1238 4.05982L27.1189 4.05673L27.1146 4.05364L27.109 4.04994L27.1041 4.04623L27.0985 4.04252H27.0942L27.0886 4.03882L27.0831 4.03573L27.0726 4.02955L27.0676 4.02646L27.0614 4.02338H27.0559H27.0503L27.0448 4.02029L27.0392 4.0172L27.0293 4.01288H27.0231H27.0182H27.0126L27.0071 4.00979C26.6488 3.86278 26.1911 4.10738 25.962 4.30997L25.9101 4.35568C25.5284 3.88749 25.7717 3.43906 26.2189 2.78125C25.0917 3.17717 24.689 4.18644 25.4086 4.80102C25.4086 4.84364 25.3764 4.8597 25.2727 4.82511C24.9503 4.71825 24.7427 4.07526 23.9496 4.43351C24.0441 4.92455 24.1874 5.22041 24.7687 5.37359C24.332 5.57619 24.0275 5.73184 23.5519 5.80596C23.2374 5.80271 22.9239 5.77025 22.6155 5.70899C21.1498 5.42486 20.7594 5.52369 20.2239 5.70899C19.0207 6.12344 17.6068 6.65093 16.7254 6.70405C17.0627 6.59349 17.5438 6.44525 17.8594 6.2828C16.0342 6.39522 12.5784 5.02585 11.0552 5.5416C10.5956 5.68952 10.1975 5.98474 9.92243 6.38163C9.43571 6.44772 8.33749 7.32048 9.18864 12.2668C9.02249 12.4873 8.98913 12.9054 9.11205 13.5836C9.24323 13.579 9.37456 13.5812 9.5055 13.5904L9.56418 13.5947C9.65312 13.6021 9.73713 13.6133 9.81125 13.6269L9.82854 13.6306C9.9601 13.184 10.004 12.6034 9.81619 12.2847C9.81619 12.2847 8.77418 9.92827 9.44559 8.10801C9.47771 8.74482 9.65065 9.49343 10.0015 10.3588C10.466 11.5058 10.23 12.7417 10.1077 13.6942C10.3791 13.776 10.6381 13.894 10.878 14.045C10.8885 14.0283 10.899 14.0123 10.9107 13.9962L11.0194 13.8486C11.1575 13.6609 11.3613 13.5321 11.5901 13.4879C11.9774 13.4204 12.3443 13.2658 12.663 13.0357C13.0176 12.5836 13.3202 12.0845 13.4042 11.2915C13.4839 11.6911 13.4623 11.8894 13.3634 12.2983C13.5906 12.3896 13.8128 12.4927 14.0293 12.6071C14.1511 12.6424 14.2645 12.7023 14.3622 12.7831L14.4357 12.8233C14.6596 12.7263 14.8964 12.6624 15.1386 12.6336C15.0737 12.5672 15.0137 12.4962 14.9589 12.4212C14.8685 12.2941 14.7974 12.1545 14.7476 12.0067C14.7129 11.904 14.6873 11.7983 14.671 11.6911C14.5871 11.6541 14.5076 11.6079 14.4339 11.5533C14.3183 11.4663 14.2207 11.3577 14.1466 11.2334C14.0792 11.117 14.0269 10.9925 13.991 10.8628C13.9731 10.801 13.9583 10.7393 13.9447 10.6775C13.8644 10.6973 13.7835 10.7158 13.7013 10.7325C13.5503 10.7649 13.3963 10.7817 13.2418 10.7825C13.156 10.7824 13.0707 10.77 12.9885 10.7454C12.8934 10.7191 12.8093 10.6628 12.7487 10.5849C12.6881 10.5071 12.6541 10.4117 12.6519 10.3131C12.6465 10.2304 12.6515 10.1474 12.6667 10.066C12.6969 9.91756 12.7424 9.77265 12.8026 9.63364C12.8582 9.49652 12.9224 9.36557 12.9879 9.23648C13.0534 9.10739 13.1275 8.98262 13.2016 8.85847L13.2572 8.76582L13.2628 8.75656C13.2794 8.72938 13.2974 8.69849 13.3109 8.67935C13.3437 8.63055 13.3851 8.58608 13.4283 8.52987C13.4133 8.53739 13.3976 8.54339 13.3814 8.54778C13.361 8.54778 13.3307 8.54222 13.306 8.53975C13.254 8.53225 13.2026 8.52111 13.1522 8.5064C13.0501 8.47565 12.9533 8.42962 12.865 8.3699C12.6897 8.24606 12.5482 8.08019 12.4536 7.8875C12.4419 7.86481 12.4397 7.8384 12.4475 7.81408C12.4552 7.78976 12.4723 7.76952 12.495 7.75779C12.5072 7.75137 12.5207 7.74778 12.5345 7.74729H12.5432L13.2597 7.71702C13.2854 7.67658 13.3148 7.63855 13.3474 7.60337C13.3993 7.54673 13.4602 7.49914 13.5277 7.46254C13.5965 7.42618 13.6708 7.40155 13.7476 7.38966C13.7885 7.38312 13.8298 7.37961 13.8712 7.37916C13.9171 7.31904 13.9683 7.26322 14.0244 7.21239C14.1062 7.13711 14.201 7.07726 14.3042 7.03574C14.4099 6.99462 14.5224 6.97367 14.6358 6.97397C14.7274 6.97425 14.8187 6.98545 14.9076 7.00732C15.1055 6.97929 15.3068 6.98577 15.5024 7.02647C15.6134 7.05224 15.7201 7.09385 15.8193 7.15C15.9007 7.19658 15.9762 7.25278 16.0441 7.31739C16.1377 7.35 16.2291 7.38858 16.3177 7.4329C16.4315 7.4894 16.5357 7.56339 16.6266 7.65217" fill="black"/>
<path fill-rule="evenodd" clip-rule="evenodd" d="M13.0102 8.2045C13.0823 8.26436 13.1631 8.31289 13.2499 8.34841C13.2939 8.36573 13.3389 8.38058 13.3845 8.39289C13.4092 8.39844 13.4284 8.40339 13.4574 8.40895C13.4927 8.41479 13.5269 8.42538 13.5593 8.44045C13.5315 8.50901 13.5019 8.58869 13.4636 8.66528L13.3666 8.86355C13.3048 8.99202 13.2468 9.12235 13.1918 9.25268C13.1368 9.38301 13.085 9.51518 13.043 9.6486C12.9989 9.77751 12.968 9.91059 12.9509 10.0458C12.938 10.1736 12.9509 10.3039 13.0084 10.3614C13.0658 10.4188 13.1702 10.4411 13.2962 10.4337C13.4284 10.4227 13.5592 10.3985 13.6866 10.3614C13.8194 10.3256 13.9522 10.2817 14.0856 10.2379C14.1279 10.2229 14.1745 10.2254 14.2151 10.2446C14.2556 10.2638 14.287 10.2982 14.3024 10.3404L14.3061 10.3521L14.3092 10.3639C14.3709 10.5918 14.4296 10.8055 14.5396 10.963C14.5912 11.0395 14.6576 11.105 14.7347 11.1557C14.815 11.2059 14.9025 11.2434 14.9942 11.2669C15.0331 11.2778 15.0681 11.2997 15.0951 11.3299C15.122 11.3601 15.1397 11.3974 15.1461 11.4374V11.4522C15.1628 11.566 15.1931 11.6773 15.2363 11.7839C15.2788 11.8861 15.3361 11.9816 15.4061 12.0674C15.5457 12.2422 15.744 12.3861 15.962 12.551C16.013 12.5893 16.0467 12.6461 16.0559 12.7091C16.2047 12.7681 16.3439 12.8487 16.4692 12.9482C16.4899 12.9233 16.512 12.8996 16.5352 12.8771C16.7461 12.6728 16.9861 12.5009 17.2474 12.367C17.274 12.3527 17.3005 12.3392 17.3277 12.3231C17.5242 12.1993 17.7365 12.1027 17.959 12.0359L18.0281 12.0124C18.5377 11.8271 19.2456 11.808 19.6897 11.8889C20.3088 12.0095 20.8776 12.3128 21.3228 12.7598C21.4467 12.5082 21.6033 12.2742 21.7885 12.0637C22.3666 11.4046 22.7694 11.0841 23.765 10.8036C24.4204 10.6183 24.8954 10.6696 25.3246 10.7369C25.4339 10.7512 25.5419 10.7737 25.6477 10.8043C25.8778 10.4882 26.1857 10.2369 26.5414 10.0748C26.5173 10.0528 26.4919 10.0322 26.4655 10.013C26.374 9.94902 26.2729 9.90022 26.1659 9.86849C26.0496 9.83437 25.9299 9.81365 25.8089 9.80672H25.8009C25.7559 9.80252 25.7121 9.78995 25.6718 9.76966C25.6525 9.75968 25.6341 9.74811 25.6168 9.73508C25.6 9.72192 25.5845 9.70724 25.5705 9.69122L25.5624 9.68257C25.5071 9.61727 25.445 9.55805 25.3771 9.50592C25.3247 9.46574 25.2646 9.43673 25.2005 9.42068C25.1455 9.40872 25.0884 9.41063 25.0343 9.42624C24.9639 9.44821 24.8974 9.48114 24.8373 9.52383C24.79 9.55546 24.736 9.57576 24.6795 9.58315C24.6231 9.59054 24.5657 9.58483 24.5118 9.56645C24.3777 9.51774 24.241 9.4765 24.1023 9.44292C23.9832 9.41297 23.8606 9.39966 23.7379 9.40339C23.619 9.41122 23.502 9.43769 23.3913 9.48183C23.2631 9.53194 23.1391 9.59247 23.0207 9.66281C22.9662 9.69454 22.9041 9.71126 22.841 9.71126C22.7779 9.71126 22.7158 9.69454 22.6613 9.66281C22.5699 9.61193 22.4711 9.57586 22.3685 9.55595C22.2559 9.53353 22.141 9.52441 22.0263 9.52877C21.8082 9.52845 21.5955 9.59626 21.4179 9.72272L21.4123 9.72705C21.3481 9.77922 21.2669 9.80608 21.1842 9.80255C21.1015 9.79902 21.0229 9.76536 20.9633 9.7079C20.8849 9.63019 20.793 9.5674 20.6921 9.5226C20.5988 9.48176 20.4974 9.46274 20.3957 9.46701C20.1832 9.47318 19.9411 9.58066 19.7162 9.72519L19.7051 9.73199C19.6488 9.76796 19.5823 9.78491 19.5156 9.78036C19.4489 9.7758 19.3854 9.74997 19.3345 9.70666C19.1866 9.57155 19.0043 9.47987 18.8076 9.44168C18.7147 9.42794 18.62 9.43024 18.5278 9.44848C18.4274 9.46918 18.3297 9.50174 18.2369 9.54545L18.2209 9.55286C18.1571 9.58179 18.0851 9.58672 18.018 9.56674C17.9509 9.54677 17.8933 9.50323 17.8558 9.44415C17.8188 9.38609 17.7854 9.33359 17.7539 9.29159C17.7299 9.25766 17.7017 9.22694 17.6699 9.20018C17.6504 9.18423 17.6273 9.17322 17.6026 9.16806C17.5679 9.16162 17.5323 9.16162 17.4976 9.16806L17.4759 9.17115C17.414 9.18118 17.3505 9.16934 17.2963 9.13768C17.2421 9.10601 17.2005 9.05649 17.1789 8.99758C17.1429 8.8948 17.0812 8.80293 16.9997 8.73075C16.912 8.65863 16.8082 8.60883 16.6971 8.5856L16.6841 8.58251C16.6298 8.56967 16.5812 8.53931 16.5458 8.49611C16.5104 8.45291 16.4902 8.39928 16.4883 8.34347C16.4875 8.26779 16.4745 8.19272 16.45 8.12111C16.4264 8.05499 16.3893 7.99444 16.3413 7.94322C16.2437 7.83452 16.0806 7.74866 15.9009 7.67516L15.8867 7.6696C15.8573 7.65746 15.8312 7.63839 15.8107 7.61401C15.7191 7.50387 15.5961 7.42435 15.458 7.38609C15.3019 7.34572 15.1398 7.33338 14.9793 7.34965H14.9676C14.9455 7.3513 14.9233 7.34879 14.9021 7.34223C14.7696 7.29152 14.6246 7.2831 14.4871 7.31815C14.3475 7.36956 14.2263 7.46111 14.1387 7.58127L14.1307 7.59115C14.1148 7.61111 14.0939 7.62654 14.0702 7.63586C14.0464 7.64519 14.0206 7.64809 13.9954 7.64427C13.9021 7.62318 13.8045 7.6329 13.7172 7.67199C13.6298 7.71108 13.5576 7.77742 13.5111 7.86107L13.5044 7.87157C13.4925 7.88885 13.4766 7.90284 13.4579 7.91224C13.4392 7.92164 13.4184 7.92614 13.3975 7.92531L12.7656 7.89813C12.8287 8.01407 12.9124 8.11749 13.0127 8.20326" fill="black"/>
<path fill-rule="evenodd" clip-rule="evenodd" d="M14.8491 5.23897C15.2042 5.31865 15.5575 5.39833 15.9108 5.47245C16.2487 5.54225 16.5859 5.60648 16.9232 5.65466C17.25 5.70607 17.5807 5.72839 17.9114 5.72137C17.9456 5.715 17.9808 5.71972 18.012 5.73483C18.0433 5.74995 18.0688 5.77467 18.085 5.80537C18.1009 5.8357 18.107 5.87026 18.1023 5.9042C18.2258 5.86961 18.3494 5.83378 18.4729 5.79672C19.0288 5.62872 19.5847 5.43848 20.1363 5.25009C20.274 5.20376 20.4136 5.15497 20.5606 5.11544C20.7082 5.07561 20.8591 5.04955 21.0115 5.03761C21.3107 5.02154 21.6108 5.03603 21.9071 5.08085C22.1054 5.10617 22.3031 5.13953 22.4982 5.17473C22.488 5.01202 22.4575 4.85122 22.4074 4.69604C22.3945 4.64601 22.3667 4.60092 22.3531 4.55089C22.3401 4.49905 22.3238 4.44809 22.3043 4.39833C22.2804 4.34045 22.2597 4.28127 22.2425 4.22106C22.1869 4.04089 22.1788 3.84938 22.219 3.66516C22.2308 3.61574 22.2333 3.48603 22.2963 3.47306C22.3463 3.47276 22.3962 3.47794 22.4451 3.48851C22.494 3.49229 22.5431 3.48291 22.5872 3.46133C22.6303 3.44179 22.6661 3.40923 22.6897 3.36823C22.7133 3.32723 22.7235 3.27986 22.7187 3.23279C22.7187 3.19511 22.7039 3.15991 22.6996 3.12161C22.6989 3.08758 22.6908 3.05409 22.6761 3.0234C22.6624 2.99969 22.657 2.97209 22.6607 2.94496C22.6687 2.88937 22.7033 2.87578 22.7515 2.87331C22.8441 2.86775 22.9368 2.87887 23.0276 2.87887C23.1301 2.87887 23.0751 2.80228 23.048 2.74792C23.0044 2.68415 22.9413 2.63625 22.8682 2.61142C22.8396 2.60602 22.813 2.59294 22.7912 2.57357C22.7694 2.5542 22.7534 2.52928 22.7447 2.50147C22.7286 2.44234 22.706 2.38516 22.6774 2.331C22.6156 2.24638 22.4964 2.20746 22.4766 2.09814C22.4674 2.04934 22.4982 1.99807 22.484 1.94928C22.4643 1.88381 22.4173 1.9221 22.3858 1.94928C22.3543 1.97646 22.3586 1.98758 22.3241 1.96349C22.3043 1.94928 22.2963 1.9184 22.2851 1.8974C22.2635 1.85601 22.232 1.7961 22.1758 1.82327C22.1425 1.83995 22.114 1.88875 22.0727 1.88504C22.0313 1.88134 21.9992 1.81895 21.9714 1.79116C21.9096 1.72939 21.7243 1.63983 21.7614 1.80598C21.7706 1.8486 21.7694 1.90913 21.7076 1.89122C21.6459 1.87331 21.5946 1.82081 21.5328 1.84613C21.4198 1.89307 21.6564 2.04934 21.4914 2.04193C21.4623 2.03481 21.4316 2.03855 21.405 2.05243C21.3992 2.05588 21.3943 2.06057 21.3906 2.06614C21.387 2.07172 21.3845 2.07805 21.3836 2.08467C21.3827 2.0913 21.3832 2.09805 21.3852 2.10443C21.3872 2.11082 21.3905 2.11669 21.3951 2.12161C21.4328 2.15682 21.5075 2.13334 21.5408 2.18338C21.5186 2.20067 21.384 2.27294 21.3864 2.28591C21.3247 2.2995 21.2697 2.36312 21.216 2.394C21.1463 2.43787 21.0806 2.48767 21.0195 2.54286C20.9609 2.58649 20.9052 2.63395 20.8528 2.68492C20.8071 2.73433 20.7688 2.79116 20.7218 2.83934C20.6749 2.88752 20.6181 2.92581 20.5711 2.97522C20.5093 3.03699 20.4606 3.10802 20.4056 3.17473C20.3043 3.29826 20.2011 3.41809 20.0967 3.53915C20.0547 3.58857 20.0177 3.63983 19.9794 3.6911C19.9454 3.74618 19.9006 3.79386 19.8478 3.83131C19.7784 3.87037 19.7069 3.90543 19.6335 3.93631L19.4006 4.04502C19.3481 4.06225 19.2947 4.07668 19.2407 4.08826C19.1869 4.10801 19.1309 4.12108 19.0739 4.12717C18.9794 4.13644 18.8886 4.13767 18.791 4.14879C18.6953 4.16338 18.5987 4.17122 18.5019 4.17226C18.3166 4.16794 18.1313 4.16547 17.946 4.14323C17.6468 4.108 17.3442 4.11423 17.0467 4.16176C16.9528 4.17659 16.8614 4.19944 16.77 4.21859C16.7177 4.23266 16.6634 4.23787 16.6094 4.23403C16.5378 4.22476 16.4772 4.15867 16.4142 4.12532C16.371 4.10457 16.3267 4.08622 16.2814 4.07035C16.2177 4.03778 16.1584 3.99732 16.1048 3.9499C16.0502 3.90778 15.9869 3.87844 15.9195 3.86405C15.8825 3.86023 15.8454 3.8592 15.8083 3.86096C15.7601 3.86096 15.7335 3.83254 15.6928 3.80969C15.652 3.78684 15.6014 3.77263 15.5594 3.74792C15.5246 3.72474 15.4914 3.69936 15.4599 3.67195C15.3857 3.61738 15.3153 3.55773 15.2493 3.49345C15.1236 3.35343 14.9779 3.23272 14.8169 3.1352C14.786 3.11852 14.7453 3.10617 14.7459 3.15682C14.7459 3.18708 14.7706 3.18461 14.7317 3.20191C14.7082 3.21241 14.686 3.21303 14.6619 3.226C14.6367 3.2375 14.6153 3.25592 14.6001 3.27912C14.5882 3.29139 14.5807 3.30727 14.5788 3.32427C14.5769 3.34126 14.5807 3.3584 14.5896 3.373C14.6075 3.41562 14.6007 3.42427 14.5835 3.4638C14.568 3.50139 14.568 3.54356 14.5835 3.58116C14.5933 3.61142 14.6384 3.66948 14.636 3.69975L14.5476 3.6423C14.5168 3.62559 14.4883 3.60481 14.463 3.58054C14.4698 3.5898 14.421 3.62748 14.413 3.63736C14.4012 3.64985 14.3927 3.66509 14.3882 3.68171C14.3838 3.69832 14.3836 3.71577 14.3877 3.73248C14.3951 3.77671 14.412 3.81883 14.4371 3.85602C14.4655 3.89431 14.4587 3.88505 14.4414 3.91778C14.408 3.97955 14.4537 4.07899 14.484 4.14138C14.4945 4.16423 14.5587 4.247 14.5458 4.27479C14.539 4.29085 14.5001 4.289 14.484 4.31062C14.4352 4.38412 14.4735 4.46195 14.5266 4.51507C14.5797 4.56819 14.6211 4.63242 14.6755 4.6874C14.7113 4.72446 14.749 4.75966 14.7836 4.79734C14.8182 4.83502 14.8744 4.88443 14.8725 4.93446C14.8243 4.9394 14.7107 4.80784 14.6693 4.88011C14.6409 4.92952 14.7311 5.03082 14.7595 5.06541C14.7922 5.10926 14.8596 5.16979 14.8429 5.23094" fill="black"/>
<path d="M3.34877 16.2288C3.41985 16.1331 3.47955 16.0295 3.52665 15.92L4.05043 14.949C4.14926 14.7637 4.31727 14.5074 4.34691 14.2745C4.36837 14.1556 4.34646 14.0328 4.28515 13.9286C4.23573 13.8576 4.05785 13.7989 4.14679 13.6056C4.22585 13.4438 4.77928 13.4376 4.96705 13.3857L5.84661 13.2344C5.95532 13.3344 5.97508 13.4901 5.81696 13.5963C5.6786 13.6896 5.31295 13.7619 5.10541 14.1047C5.02635 14.2368 4.92752 14.3134 4.85834 14.4641C4.8401 14.5333 4.81001 14.5987 4.7694 14.6575C4.71999 14.7452 4.70022 14.7384 4.65081 14.836C4.59084 14.9714 4.52149 15.1025 4.44327 15.2282C4.34444 15.3839 4.08749 15.8335 4.0282 16.0021C4.06773 16.0639 4.10726 16.1071 4.14679 16.1701C4.18632 16.2226 4.21597 16.2968 4.2555 16.3592L5.182 17.8354C5.26106 17.9589 5.33024 18.0874 5.4093 18.2128C5.67613 18.6136 6.11097 19.4222 6.41733 19.6081C6.64463 19.7378 6.72617 19.6952 6.82252 19.7773C6.85299 19.8107 6.87069 19.8539 6.8725 19.899C6.87431 19.9442 6.86011 19.9886 6.83241 20.0244C6.71381 20.1732 5.6366 20.285 5.30059 20.3517C5.01399 20.4005 4.26291 20.5469 4.02573 20.537C3.74901 20.1189 4.69775 20.4042 3.76878 19.1164C3.6403 18.9503 3.51183 18.6458 3.40312 18.437C3.35371 18.3363 3.06711 17.8409 3.00781 17.8014C2.57545 18.3697 2.69898 18.655 2.82993 19.2665C3.10664 20.5753 3.38583 20.1226 3.50936 20.3585C3.71689 20.7094 3.03499 20.7254 2.92628 20.744C2.61745 20.7952 2.29379 20.8607 1.98743 20.912L0.109104 21.2103C0.0195426 21.1485 -0.0687835 21.0034 0.0794565 20.8799C0.276492 20.718 0.227079 20.8051 0.385201 20.5809C0.800891 19.9867 0.850304 18.4852 0.899099 17.7946C0.948513 17.2029 0.810773 15.1108 0.343199 14.6964C0.165311 14.5389 -0.0891669 14.6525 0.0664851 14.2399L0.996073 14.0898C1.17396 14.0695 1.31232 14.0157 1.48032 13.9873L3.40744 13.6661C3.55568 13.6803 3.5458 13.8996 3.45686 13.9941C3.43709 14.0176 3.32838 14.0855 3.29873 14.1102C3.13073 14.2381 3.05167 14.4493 2.98249 14.6396C2.81448 15.1337 2.69589 15.9651 2.67366 16.4734C2.66377 16.752 2.59459 17.2387 2.63413 17.4987C2.78237 17.3647 3.19002 16.5043 3.34568 16.2301" fill="black"/>
<path d="M11.4631 16.3743C11.4176 16.0467 11.3067 15.7316 11.137 15.4478C10.8603 14.9685 10.2673 14.5732 9.71634 14.4793C9.40751 14.4224 8.86643 14.436 8.53042 14.5627C8.30251 14.6417 8.19441 14.6701 8.00664 14.7912C7.82134 14.903 7.66075 14.9493 7.36365 15.2285L6.71881 16.0105C6.62986 16.134 6.44209 16.6028 6.40256 16.7517C6.16538 17.6738 6.3235 18.6664 6.91646 19.202C7.27286 19.5287 7.47977 19.6819 8.07335 19.8097C8.46866 19.9018 8.80467 19.8456 9.24692 19.7307C9.51622 19.6623 9.77076 19.5453 9.998 19.3854C10.0672 19.3341 10.1462 19.2909 10.2352 19.2365C10.3656 19.1293 10.4879 19.0124 10.6008 18.8869C10.6634 18.8344 10.7198 18.775 10.7688 18.7097C11.2729 17.9685 11.6089 17.2464 11.4606 16.3774L11.4631 16.3743ZM8.5156 18.5645C8.35813 18.2205 8.22922 17.8642 8.13018 17.499L8.0017 16.8758C7.92202 16.3934 7.7744 15.3675 8.44642 15.1464C9.14809 14.9073 9.4841 16.3385 9.60269 16.7455C10.2154 18.8351 9.2568 19.9203 8.5156 18.567" fill="black"/>
<path d="M13.8335 13.435C13.8952 13.6339 13.8434 14.2089 13.8631 14.485C13.9916 14.3732 14.0904 14.1972 14.2485 14.0526C14.4462 13.8599 14.5253 13.8266 14.7328 13.682C14.8415 13.6036 15.2269 13.4782 15.3653 13.4967C16.7093 13.6153 15.899 15.107 15.217 14.905C14.9502 14.821 14.9799 14.5375 14.9502 14.4727C14.8712 14.3071 14.5648 14.3794 14.377 14.511C14.13 14.6919 14.13 14.6623 13.9916 14.9544C13.8063 15.3442 13.8434 15.8945 13.8532 16.3701C13.8631 16.9056 13.7445 18.0792 14.0904 18.4084C14.1893 18.4912 14.5055 18.4974 14.3671 18.779C14.3474 18.8019 14.3671 18.8186 14.2782 18.8408L11.7458 19.2775C11.5673 19.2577 11.6173 19.0508 11.7359 18.9612C12.0027 18.7574 12.062 18.6086 12.1213 18.22C12.1707 17.8636 12.151 17.5295 12.151 17.17C12.1707 16.6104 12.1707 15.6462 12.0422 15.1614C11.9039 14.5888 11.6568 14.6808 11.7161 14.4819L11.8248 14.3343C13.1392 14.0798 13.4653 13.4078 13.831 13.4344" fill="black"/>
<path d="M21.2764 14.7057C21.2311 14.3763 21.1202 14.0594 20.9503 13.7736C20.6736 13.2925 20.08 12.8947 19.5297 12.8002C19.2208 12.7428 18.6804 12.7557 18.3437 12.883C18.1164 12.962 18.0077 12.9904 17.82 13.1121C17.6347 13.2239 17.4741 13.2709 17.1776 13.5507L16.5352 14.337C16.4463 14.4605 16.2585 14.9318 16.219 15.0782C15.9818 16.0047 16.1399 17.0028 16.7329 17.5396C17.0886 17.8675 17.2962 18.022 17.8891 18.151C18.2844 18.2437 18.6205 18.1869 19.0627 18.072C19.3319 18.0034 19.5862 17.8862 19.8132 17.7261C19.8817 17.6742 19.9608 17.631 20.0504 17.5766C20.181 17.4689 20.3032 17.3514 20.416 17.2252C20.4789 17.1729 20.5351 17.1132 20.5834 17.0473C21.088 16.3061 21.424 15.5785 21.2758 14.7057H21.2764ZM18.3308 16.9003C18.1733 16.5546 18.0444 16.1966 17.9453 15.8299L17.8169 15.2042C17.7378 14.7193 17.5896 13.689 18.2616 13.4648C18.9633 13.2252 19.2999 14.6631 19.4185 15.0707C20.0312 17.1708 19.072 18.2591 18.3308 16.8997" fill="black"/>
<path d="M26.6328 11.8764C27.0281 11.6392 26.9787 12.0172 27.2455 12.0821C27.5222 12.155 27.8385 11.8708 27.9076 11.6985C28.046 11.3748 28.0164 11.15 27.8286 10.9616C27.6705 10.8091 27.374 10.7498 27.0479 10.8653C26.7866 10.9559 26.5591 11.124 26.3956 11.3471C26.0194 11.8708 26.1683 11.906 26.0299 12.0691C25.8718 12.0166 25.9015 11.9412 25.6544 11.8035C25.5102 11.7247 25.3524 11.6738 25.1893 11.6534C24.7946 11.5916 24.4784 11.5651 24.0157 11.6942C23.2053 11.9227 22.9583 12.1352 22.4839 12.675C21.8218 13.4267 21.6241 14.8573 22.1874 15.68C22.2368 15.7516 22.2764 15.8035 22.3258 15.8653C22.3679 15.9225 22.4159 15.9751 22.4691 16.0222C22.9731 16.4959 23.1016 16.4144 23.2103 16.5058C23.1411 16.5676 23.0917 16.5676 22.9929 16.612L22.4098 16.9901C22.1754 17.1705 21.9572 17.371 21.7575 17.5892C21.6053 17.7645 21.4788 17.9606 21.382 18.1717C21.3524 18.2365 21.3202 18.2915 21.2931 18.3662C20.9175 19.1772 21.0954 20.3347 22.096 20.4867C22.432 20.5404 22.8076 20.4175 23.0942 20.2501C23.225 20.1802 23.3477 20.0959 23.4598 19.9987C23.529 19.9277 23.5389 19.8857 23.6081 19.8245C23.8057 19.6312 23.6575 19.856 23.8848 19.4885C23.9251 19.4227 23.9715 19.3606 24.0231 19.3032L24.4382 18.5243C24.5074 18.3631 24.5667 18.273 24.6235 18.1235C24.7328 17.835 24.752 17.8721 24.8088 17.6911C24.8706 17.5515 24.9373 17.4397 25.0163 17.2865L25.2016 17.0154C25.2273 16.9941 25.2505 16.9701 25.2708 16.9437C26.1115 16.0722 26.9385 16.6818 26.4376 17.5966C26.3685 17.7349 26.2708 17.857 26.151 17.9548C26.0342 18.0511 25.9085 18.1359 25.7755 18.2081C25.1034 18.4311 25.0238 18.2044 24.836 18.276C24.7569 18.3996 24.747 18.6207 24.7742 18.7455C24.8539 19.1618 24.9725 19.3922 25.4172 19.5274C25.6643 19.6059 25.9997 19.5694 26.277 19.4657C26.4747 19.3928 26.87 19.1865 26.9886 19.0463L27.2653 18.7702C27.7594 18.1266 27.9175 17.4298 27.6902 16.738C27.6101 16.5201 27.4609 16.3344 27.2653 16.2093C26.9564 16.024 26.4549 15.9462 26.0991 16.0561C26.0299 16.0778 25.7526 16.1747 25.6834 16.2062C25.6149 16.2482 25.555 16.2983 25.4981 16.3298C25.4394 16.3576 25.3832 16.3904 25.3301 16.428L24.7279 16.9394C24.6661 17.0098 24.6482 17.0531 24.5994 17.1111C24.5506 17.1692 24.5296 17.1729 24.4709 17.2427C24.3122 17.4095 24.1244 17.6806 23.9564 17.8387C23.8576 17.9351 23.9169 17.9054 23.828 18.0006C23.7884 18.0568 23.7489 18.0734 23.6995 18.1315C23.4821 18.3168 23.1436 18.8542 22.6914 18.6306C22.3653 18.4663 22.5729 17.7041 23.0373 17.1747C23.7044 16.4206 24.1121 16.6917 24.6359 16.5163C24.8928 16.4329 25.2393 16.3044 25.4388 16.1611C25.4882 16.1229 25.5377 16.0642 25.597 16.0246C25.8829 15.8356 25.7643 15.8863 25.8928 15.7646C25.9428 15.7158 25.9725 15.7028 26.0318 15.6411C26.1947 15.4298 26.3457 15.2096 26.4839 14.9814C26.9385 13.9845 26.8298 13.3427 26.4543 12.5268C26.3925 12.407 26.2863 12.3557 26.3752 12.1605C26.4329 12.0438 26.5219 11.9455 26.6322 11.8764H26.6328ZM25.2486 15.4107C24.873 15.5342 24.1516 15.1568 23.9342 14.9165C23.8844 14.8595 23.8316 14.805 23.7761 14.7535C23.4796 14.4447 23.0744 13.7343 23.0966 13.2223C23.1164 12.9789 23.1955 12.8659 23.3832 12.7739C23.7884 12.5947 24.0948 12.8721 24.332 12.9913C25.0114 13.365 26.0423 15.1494 25.2511 15.4132" fill="black"/>
<path d="M28.6081 9.45671C28.8947 9.37764 29.3987 9.11081 29.6457 8.92798C29.7742 8.83595 29.9422 8.65683 30.1399 8.67289C30.2016 8.88289 30.13 9.91687 30.1596 10.2418L30.1497 11.8477C30.377 11.6587 30.2782 11.5352 30.7526 11.1337C31.3357 10.6229 32.3141 10.1652 32.8971 10.6068C33.075 10.7371 33.125 10.7884 33.1936 11.0978C33.2436 11.3202 33.214 11.5858 33.2239 11.8347V14.1114C33.214 14.424 33.2436 14.8706 33.4314 15.0997C33.5006 15.1887 33.9255 15.2269 33.7402 15.5197C33.6711 15.6118 33.5129 15.5982 33.3937 15.6179C33.1275 15.663 32.8304 15.7334 32.5636 15.768L31.3381 15.9651C31.1701 15.983 31.0911 16.0466 31.0021 15.9311C30.9404 15.6711 31.1874 15.6995 31.2986 15.5105C31.6155 14.9546 31.5457 14.1961 31.5358 13.5864C31.5259 13.1374 31.5061 12.6297 31.5259 12.1849C31.5457 11.5901 31.4468 11.3468 30.8638 11.7069C30.5475 11.8922 30.34 12.2566 30.251 12.5926C30.1028 13.1584 30.0435 15.382 30.4783 15.6692C30.6068 15.7476 30.8242 15.8008 30.6562 16.0497C30.5179 16.1331 29.411 16.2998 29.164 16.3313C28.7983 16.3733 28.403 16.4796 28.1139 16.508C27.8866 16.5265 27.8669 16.3696 28.0349 16.2214C28.1862 16.1015 28.2946 15.9357 28.3437 15.7489C28.529 15.0571 28.482 13.7143 28.4722 12.9953C28.4623 12.3777 28.5809 10.3746 28.1856 9.99161C28.0769 9.89031 28.0176 9.92984 28.0571 9.67351C28.1856 9.54997 28.4326 9.51909 28.613 9.45856" fill="black"/>
<path d="M36.2878 15.1494C36.0598 15.1778 35.8332 15.226 35.6151 15.2525C35.4175 15.276 35.1513 15.3211 34.9431 15.3662C34.7454 15.3995 34.5181 15.4279 34.3304 15.4693C34.2315 15.4959 34.1228 15.5348 34.0537 15.486C33.8684 15.3371 34.239 15.0833 34.2612 15.0697C34.3403 14.9863 34.3304 14.9462 34.3798 14.8189C34.4192 14.7374 34.4491 14.6516 34.4687 14.5632L34.5478 13.5966C34.5577 13.4946 34.5286 13.389 34.5379 13.2772C34.5379 13.1364 34.5577 13.0629 34.5478 12.9239C34.5379 12.8138 34.5379 12.703 34.5478 12.5928C34.5577 12.4607 34.5379 12.3736 34.5379 12.2432C34.5286 12.1345 34.5577 12.0295 34.5478 11.9208C34.5478 11.7899 34.5286 11.7034 34.5379 11.5712C34.5676 11.1846 34.5286 10.8504 34.5379 10.5675C34.5379 10.2587 34.5577 9.89179 34.4885 9.60272C34.4391 9.38036 34.3996 9.0357 34.2315 8.90414C34.1624 8.84546 34.024 8.69907 34.2019 8.56813C34.6071 8.42854 34.9431 8.39086 35.3088 8.1475C35.3835 8.09621 35.4629 8.05215 35.5459 8.01594C35.6454 7.95911 35.6652 7.91526 35.764 7.84793C35.9715 7.70216 36.1593 7.55948 36.2186 7.67993C36.3069 7.89549 36.1395 13.166 36.2976 14.1333C36.4162 14.8368 36.7621 14.5657 36.7918 14.9363C36.693 15.0938 36.5941 15.1105 36.2878 15.1518" fill="black"/>
<path d="M37.9101 9.83084C38.1571 9.76907 38.6908 9.48618 38.8983 9.32003C39.6 8.7876 39.4221 9.12979 39.4617 9.74684L39.4518 11.2366C39.4617 11.4763 39.4518 11.7197 39.4617 11.9692C39.4617 12.11 39.4419 12.2039 39.4518 12.3534C39.4814 12.9216 39.3727 13.1205 39.5308 13.758C39.549 13.8563 39.5896 13.949 39.6494 14.0291C39.7977 14.2354 40.0645 14.0699 39.9854 14.425C39.8866 14.5529 39.857 14.5375 39.6766 14.5572C39.1825 14.619 37.7291 14.9161 37.3536 14.9488C37.2251 14.9606 37.2059 14.8834 37.2251 14.7394C37.3245 14.6227 37.3443 14.6394 37.4425 14.5541C37.8576 14.1835 37.7594 12.782 37.7513 12.3417C37.7513 11.7085 37.7816 11.0205 37.5438 10.4677C37.4159 10.1588 37.2967 10.3392 37.3468 10.0396C37.4555 9.94078 37.7415 9.88149 37.9101 9.83269" fill="black"/>
<path d="M39.0952 7.23497C39.4114 7.39186 39.5498 8.06203 39.1644 8.57037C39.0557 8.70934 38.7592 8.94097 38.5319 8.9805C38.1563 9.05462 38.0075 8.9805 37.8098 8.84214C37.5239 8.65066 37.4442 8.15159 37.593 7.83473C37.7604 7.46413 37.9587 7.2393 38.4232 7.10897C38.6999 7.03114 38.9272 7.15282 39.0952 7.2325" fill="black"/>
<path fill-rule="evenodd" clip-rule="evenodd" d="M18.984 24.129L18.9223 24.0957C18.9223 24.0957 15.6486 22.1562 15.4442 22.0463C15.2397 21.9363 15.018 21.7683 14.7592 22.1315C14.6357 22.3075 14.4189 22.596 14.2397 22.8641C13.879 23.4039 13.7839 23.415 14.2472 23.7288C15.0705 24.2903 17.2694 25.6114 17.5121 25.6744C17.8086 25.751 18.0421 25.1698 18.1712 24.9672C18.254 24.8369 18.4652 24.638 18.7042 24.6176C18.6499 24.7016 18.611 24.7535 18.7042 24.8109L19.6233 24.2989C19.1798 24.0518 19.1094 23.9444 18.984 24.1272V24.129ZM15.144 22.6226C15.11 22.6226 15.0768 22.6125 15.0485 22.5936C15.0203 22.5747 14.9983 22.5478 14.9853 22.5164C14.9723 22.485 14.969 22.4504 14.9756 22.4171C14.9823 22.3838 14.9987 22.3532 15.0228 22.3292C15.0469 22.3052 15.0775 22.2889 15.1109 22.2824C15.1442 22.2758 15.1788 22.2793 15.2102 22.2924C15.2415 22.3055 15.2683 22.3276 15.2871 22.3559C15.3059 22.3842 15.3158 22.4175 15.3157 22.4515C15.3157 22.474 15.3113 22.4963 15.3026 22.5171C15.294 22.5379 15.2813 22.5568 15.2654 22.5727C15.2494 22.5886 15.2305 22.6011 15.2097 22.6097C15.1888 22.6183 15.1665 22.6226 15.144 22.6226Z" fill="#C0392B"/>
<path fill-rule="evenodd" clip-rule="evenodd" d="M25.7423 22.8641C25.5626 22.596 25.3476 22.3082 25.2222 22.1315C24.9634 21.7683 24.7423 21.9363 24.5372 22.0463C24.3322 22.1562 21.0592 24.0957 21.0592 24.0957L20.9974 24.129C20.8664 23.9394 20.7973 24.0592 20.3081 24.3292L20.1005 24.4434L18.6039 25.2785C17.7565 25.7535 16.998 26.1816 16.998 26.1816C16.998 26.1816 16.8386 26.3446 16.9492 26.5305C17.0598 26.7165 17.5341 26.9345 17.9486 26.7263C18.0436 26.6684 18.129 26.5961 18.2018 26.512C18.6379 26.0086 19.1191 26.1241 19.712 25.7529C19.8115 25.6911 19.9047 25.6238 19.9918 25.5565C20.0815 25.6266 20.1747 25.6922 20.271 25.7529C20.864 26.1235 21.3451 26.0086 21.7812 26.512C21.854 26.5961 21.9395 26.6684 22.0344 26.7263C22.4489 26.9345 22.9227 26.7158 23.0338 26.5305C23.145 26.3452 22.985 26.1816 22.985 26.1816C22.985 26.1816 21.8306 25.5311 20.78 24.9462C20.9869 24.8709 21.1296 24.895 21.2611 24.8227C21.3748 24.7609 21.3353 24.7084 21.2778 24.6201C21.5168 24.6405 21.7281 24.8394 21.8109 24.9697C21.9393 25.1723 22.1734 25.7535 22.4693 25.6769C22.7126 25.6152 24.9115 24.2927 25.7349 23.7313C26.1975 23.4156 26.1055 23.4045 25.7429 22.8665L25.7423 22.8641ZM24.843 22.6269C24.809 22.627 24.7757 22.617 24.7474 22.5982C24.719 22.5794 24.6969 22.5526 24.6838 22.5212C24.6708 22.4898 24.6673 22.4552 24.6739 22.4218C24.6805 22.3885 24.6969 22.3578 24.7209 22.3338C24.745 22.3097 24.7757 22.2933 24.809 22.2867C24.8424 22.2801 24.877 22.2836 24.9084 22.2966C24.9398 22.3097 24.9666 22.3318 24.9854 22.3602C25.0042 22.3885 25.0142 22.4218 25.0141 22.4558C25.0139 22.5011 24.9958 22.5445 24.9638 22.5766C24.9317 22.6086 24.8883 22.6267 24.843 22.6269Z" fill="#C0392B"/>
</svg>
