<svg width="6" height="10" viewBox="0 0 6 10" fill="none" xmlns="http://www.w3.org/2000/svg">
<path d="M2.19761 5.00054L5.61147 1.28345C5.75152 1.14201 5.83008 0.951008 5.83008 0.751966C5.83008 0.552923 5.75152 0.361925 5.61147 0.220486C5.5427 0.150655 5.46073 0.0951987 5.37033 0.057346C5.27992 0.0194934 5.18289 0 5.08488 0C4.98687 0 4.88984 0.0194934 4.79944 0.057346C4.70904 0.0951987 4.62706 0.150655 4.55829 0.220486L0.395579 4.46798C0.255727 4.60974 0.177318 4.80087 0.177318 5C0.177318 5.19914 0.255727 5.39026 0.395579 5.53202L4.55829 9.77952C4.62706 9.84935 4.70904 9.9048 4.79944 9.94265C4.88984 9.98051 4.98687 10 5.08488 10C5.18289 10 5.27992 9.98051 5.37033 9.94265C5.46073 9.9048 5.5427 9.84935 5.61147 9.77952C5.75152 9.63808 5.83008 9.44708 5.83008 9.24804C5.83008 9.04899 5.75152 8.85799 5.61147 8.71655L2.19761 5.00054Z" fill="black"/>
</svg>
