<svg width="14" height="18" viewBox="0 0 14 18" fill="none" xmlns="http://www.w3.org/2000/svg">
<path d="M11.9745 7.86853H10.9307V5.64166C10.9307 3.48438 9.15614 1.70986 6.99887 1.70986C4.8416 1.70986 3.06707 3.48438 3.06707 5.64166V7.86853H2.02323V5.64166C2.02323 2.89287 4.25009 0.666016 6.99887 0.666016C9.74765 0.666016 11.9745 2.89287 11.9745 5.64166V7.86853Z" fill="#445774"/>
<path d="M11.4526 17.3327H2.54515C1.64049 17.3327 0.875 16.5672 0.875 15.6625V8.98195C0.875 8.07729 1.64049 7.31181 2.54515 7.31181H11.4526C12.3573 7.31181 13.1227 8.07729 13.1227 8.98195V15.6625C13.1227 16.602 12.3573 17.3327 11.4526 17.3327ZM2.54515 8.42523C2.232 8.42523 1.98844 8.6688 1.98844 8.98195V15.6625C1.98844 15.9757 2.232 16.2193 2.54515 16.2193H11.4526C11.7657 16.2193 12.0093 15.9757 12.0093 15.6625V8.98195C12.0093 8.6688 11.7657 8.42523 11.4526 8.42523H2.54515Z" fill="#445774"/>
<path d="M8.1123 10.6521C8.1123 11.2784 7.62518 11.7655 6.99887 11.7655C6.37257 11.7655 5.88544 11.2784 5.88544 10.6521C5.88544 10.0258 6.37257 9.53867 6.99887 9.53867C7.62518 9.53867 8.1123 10.0606 8.1123 10.6521Z" fill="#445774"/>
<path d="M7.27723 10.6521H6.72051L6.1638 13.9924H7.83394L7.27723 10.6521Z" fill="#445774"/>
</svg>
