<svg width="18" height="16" viewBox="0 0 18 16" fill="none" xmlns="http://www.w3.org/2000/svg">
<path fill-rule="evenodd" clip-rule="evenodd" d="M8.99913 0C9.38266 0 9.69358 0.310913 9.69358 0.694444V7.29167C9.69358 7.6752 9.38266 7.98611 8.99913 7.98611C8.6156 7.98611 8.30469 7.6752 8.30469 7.29167V0.694444C8.30469 0.310913 8.6156 0 8.99913 0Z" fill="#445774"/>
<path fill-rule="evenodd" clip-rule="evenodd" d="M5.41458 0.856741C5.62379 1.17819 5.53279 1.60837 5.21135 1.81757C3.95666 2.63415 2.99944 3.83431 2.48234 5.23918C1.96525 6.64404 1.91597 8.17839 2.34186 9.61354C2.76774 11.0487 3.64599 12.3078 4.84569 13.2032C6.0454 14.0986 7.50233 14.5824 8.99933 14.5824C10.4963 14.5824 11.9533 14.0986 13.153 13.2032C14.3527 12.3078 15.2309 11.0487 15.6568 9.61357C16.0827 8.17842 16.0335 6.64407 15.5164 5.2392C14.9993 3.83434 14.0421 2.63417 12.7874 1.81759C12.4659 1.60838 12.3749 1.1782 12.5841 0.856756C12.7934 0.535309 13.2235 0.44432 13.545 0.653527C15.0506 1.63343 16.1993 3.07362 16.8198 4.75946C17.4403 6.4453 17.4994 8.28653 16.9883 10.0087C16.4773 11.7309 15.4234 13.2418 13.9837 14.3163C12.5441 15.3908 10.7957 15.9712 8.99933 15.9712C7.20292 15.9712 5.4546 15.3907 4.01496 14.3163C2.57531 13.2418 1.52142 11.7308 1.01036 10.0087C0.499298 8.28649 0.55843 6.44527 1.17894 4.75943C1.79945 3.07359 2.94812 1.6334 4.45375 0.653507C4.77519 0.444302 5.20537 0.535292 5.41458 0.856741Z" fill="#445774"/>
</svg>
