<svg width="16" height="16" viewBox="0 0 16 16" fill="none" xmlns="http://www.w3.org/2000/svg">
<path d="M15.2695 11.6076C14.6059 10.9258 12.7198 9.64873 11.4836 9.64873C11.1973 9.64873 10.9473 9.71236 10.7428 9.84416C10.1383 10.2305 9.65658 10.5304 9.42479 10.5304C9.29754 10.5304 9.16119 10.4168 8.86123 10.1578L8.81124 10.1123C7.97953 9.38967 7.80228 9.20333 7.47959 8.86701L7.39779 8.78066C7.3387 8.72158 7.28871 8.66704 7.23872 8.61705C6.95694 8.32618 6.75242 8.11711 6.02979 7.29904L5.99797 7.26268C5.65256 6.87182 5.42532 6.61731 5.41168 6.43097C5.39805 6.24918 5.55712 5.95376 5.96161 5.40383C6.45246 4.74028 6.47064 3.92221 6.0207 2.97234C5.66165 2.22243 5.07537 1.50435 4.55725 0.872613L4.5118 0.818074C4.06641 0.272691 3.54829 0 2.9711 0C2.33027 0 1.79852 0.345409 1.51674 0.527203C1.49402 0.540838 1.47129 0.559017 1.44857 0.572652C0.816836 0.972599 0.357805 1.52253 0.1851 2.08154C-0.0739563 2.92234 -0.246661 4.01311 0.994085 6.28099C2.06667 8.24437 3.03927 9.56238 4.58452 11.1485C6.03888 12.6392 6.68424 13.121 8.12951 14.1663C9.73839 15.3298 11.2836 15.9979 12.3653 15.9979C13.3697 15.9979 14.1605 15.9979 15.2877 14.639C16.4693 13.2119 15.9785 12.3393 15.2695 11.6076ZM14.7468 14.1481C13.8378 15.248 13.3152 15.248 12.3699 15.248C11.4473 15.248 10.0156 14.6117 8.54309 13.5528C7.13419 12.5347 6.507 12.0666 5.09354 10.6168C3.59829 9.08517 2.6575 7.80806 1.62127 5.91286C0.525965 3.90858 0.648676 3.03142 0.871374 2.30879C0.98954 1.92247 1.34404 1.50889 1.82579 1.20893C1.84852 1.1953 1.87124 1.17712 1.89851 1.16348C2.13939 1.00896 2.53934 0.749901 2.97564 0.749901C3.33923 0.749901 3.66192 0.931696 3.97097 1.30892L4.01641 1.36346C5.17535 2.78145 6.07978 4.03583 5.39805 4.96298C4.9163 5.6129 4.66178 6.05375 4.70269 6.50823C4.73905 6.94909 5.03446 7.28086 5.47986 7.78079L5.51167 7.81715C6.24339 8.64432 6.45246 8.86247 6.74333 9.15788C6.79332 9.20788 6.84332 9.26242 6.9024 9.3215L6.98421 9.40785C7.32053 9.75781 7.50686 9.94869 8.3613 10.6986L8.41129 10.744C8.77488 11.0622 9.04303 11.294 9.43388 11.294C9.83838 11.294 10.2838 11.0395 11.1291 10.4986C11.2155 10.4441 11.3382 10.4123 11.4927 10.4123C12.4789 10.4123 14.1787 11.5394 14.7741 12.1529C15.3195 12.7074 15.5922 13.1255 14.7468 14.1481Z" fill="#7189AC"/>
</svg>
