<svg width="19" height="20" viewBox="0 0 19 20" fill="none" xmlns="http://www.w3.org/2000/svg">
<path d="M17.5682 12.2241C17.2805 11.9379 17.0524 11.5974 16.8971 11.2224C16.7417 10.8475 16.6623 10.4454 16.6634 10.0396V7.49843C16.6634 5.50973 15.8734 3.60247 14.4671 2.19624C13.0609 0.790011 11.1537 0 9.16495 0C7.17625 0 5.26899 0.790011 3.86276 2.19624C2.45653 3.60247 1.66652 5.50973 1.66652 7.49843V10.0396C1.66758 10.4454 1.58816 10.8475 1.43285 11.2224C1.27754 11.5974 1.04943 11.9379 0.761708 12.2241C0.398011 12.5878 0.150325 13.0511 0.0499759 13.5556C-0.0503733 14.06 0.00112139 14.5828 0.197948 15.058C0.394774 15.5332 0.72809 15.9393 1.15574 16.225C1.58339 16.5107 2.08617 16.6632 2.60049 16.6632H5.08247C5.27369 17.6049 5.7846 18.4515 6.52862 19.0597C7.27264 19.6678 8.20402 20 9.16495 20C10.1259 20 11.0573 19.6678 11.8013 19.0597C12.5453 18.4515 13.0562 17.6049 13.2474 16.6632H15.7302C16.2446 16.6632 16.7473 16.5107 17.175 16.225C17.6026 15.9393 17.936 15.5332 18.1328 15.058C18.3296 14.5828 18.3811 14.06 18.2808 13.5556C18.1804 13.0511 17.9327 12.5878 17.569 12.2241H17.5682ZM9.16495 18.3295C8.64984 18.3274 8.14797 18.1661 7.728 17.8679C7.30803 17.5696 6.99048 17.1488 6.81878 16.6632H11.5111C11.3394 17.1488 11.0219 17.5696 10.6019 17.8679C10.1819 18.1661 9.68006 18.3274 9.16495 18.3295ZM15.7294 14.9969H2.60049C2.41569 14.997 2.23501 14.9423 2.08131 14.8396C1.92762 14.737 1.80783 14.5911 1.73709 14.4204C1.66635 14.2497 1.64786 14.0618 1.68394 13.8805C1.72002 13.6993 1.80907 13.5328 1.9398 13.4022C2.38274 12.9616 2.73393 12.4376 2.97304 11.8604C3.21216 11.2832 3.33444 10.6643 3.33284 10.0396V7.49843C3.33284 5.95166 3.94729 4.46824 5.04102 3.37451C6.13476 2.28077 7.61818 1.66632 9.16495 1.66632C10.7117 1.66632 12.1951 2.28077 13.2889 3.37451C14.3826 4.46824 14.9971 5.95166 14.9971 7.49843V10.0396C14.9955 10.6643 15.1178 11.2832 15.3569 11.8604C15.596 12.4376 15.9472 12.9616 16.3901 13.4022C16.5208 13.5328 16.6099 13.6993 16.646 13.8805C16.6821 14.0618 16.6636 14.2497 16.5928 14.4204C16.5221 14.5911 16.4023 14.737 16.2486 14.8396C16.0949 14.9423 15.9142 14.997 15.7294 14.9969Z" fill="#B2BFD2"/>
</svg>
