<svg width="40" height="35" viewBox="0 0 40 35" fill="none" xmlns="http://www.w3.org/2000/svg">
<path d="M39.414 17.4146C39.414 26.7074 31.9125 34.2413 22.6591 34.2413H17.3414C18.2459 34.2413 19.1332 34.1695 20.0003 34.0276C27.9916 32.7503 34.0987 25.7984 34.0987 17.4146C34.0987 11.0708 28.9775 5.92731 22.6591 5.92731C21.7419 5.92731 20.8526 6.03671 20.0003 6.2409C14.9662 7.44567 11.2214 11.9906 11.2214 17.4146C11.2214 22.8386 14.9662 27.3861 20.0003 28.5883C19.1479 28.7925 18.2586 28.9019 17.3414 28.9019C11.0255 28.9019 5.9043 23.7584 5.9043 17.4146C5.9043 9.03083 12.0096 2.07891 20.0003 0.80162C20.8673 0.662314 21.7546 0.587891 22.6591 0.587891C31.915 0.590435 39.414 8.12185 39.414 17.4146Z" fill="#1A4585"/>
<path d="M22.6597 5.34005C29.2891 5.34005 34.6832 10.7564 34.6832 17.4132C34.6832 24.7309 30.2503 31.0518 23.7302 33.6166C32.149 33.06 38.8306 26.0056 38.8306 17.4132C38.8306 8.46075 31.5772 1.17806 22.6597 1.17551C21.7971 1.17551 20.9352 1.24485 20.093 1.37906C12.2111 2.64108 6.48878 9.385 6.48878 17.4132C6.48878 23.4237 11.3588 28.3115 17.3419 28.3115H17.4666C13.3466 26.3459 10.6355 22.1617 10.6355 17.4132C10.6355 11.7977 14.4324 6.96719 19.864 5.66764C20.7737 5.44882 21.7125 5.34005 22.6597 5.34005ZM22.6597 34.8264H17.3419C17.0194 34.8264 16.758 34.5631 16.758 34.2399C16.758 33.9143 17.0194 33.6509 17.3419 33.6509C18.2019 33.6509 19.0664 33.5816 19.9092 33.4474C27.7905 32.1879 33.5128 25.444 33.5128 17.4132C33.5128 11.4053 28.6454 6.51493 22.6597 6.51493C21.8048 6.51493 20.9549 6.61416 20.1376 6.81071C15.2326 7.98368 11.8059 12.3441 11.8059 17.4132C11.8059 22.4848 15.2326 26.8427 20.135 28.0157C20.4009 28.078 20.5847 28.314 20.5847 28.5869C20.5873 28.8579 20.4009 29.0939 20.1376 29.1588C19.2279 29.3776 18.2891 29.487 17.3419 29.487C10.7131 29.487 5.31836 24.0725 5.31836 17.4132C5.31836 8.80361 11.4554 1.57053 19.9092 0.218818C20.8112 0.0744236 21.7354 0 22.6597 0C32.2209 0.0025444 40.0004 7.81448 40.0004 17.4132C40.0004 27.0145 32.2209 34.8264 22.6597 34.8264Z" fill="#221E1F"/>
<path d="M16.2701 1.20986C7.86155 1.76645 1.17042 8.8405 1.17042 17.4132C1.17042 26.3682 8.42577 33.6509 17.3407 33.6509C18.2007 33.6509 19.0652 33.5816 19.908 33.4474C27.7893 32.1879 33.5116 25.444 33.5116 17.4132C33.5116 11.4053 28.6442 6.51493 22.6585 6.51493H22.5338C26.6538 8.48047 29.3649 12.6673 29.3649 17.4132C29.3649 23.0312 25.5705 27.8592 20.1338 29.1588C19.2267 29.3776 18.2879 29.487 17.3407 29.487C10.7119 29.487 5.31715 24.0725 5.31715 17.4132C5.31715 10.0955 9.75013 3.77461 16.2701 1.20986ZM17.3407 34.8264C7.77949 34.8264 0 27.0145 0 17.4132C0 7.87173 7.72988 0.0597933 17.2319 0H22.6585C22.9816 0 23.2424 0.263345 23.2424 0.589028C23.2424 0.912166 22.9816 1.17551 22.6585 1.17551C21.7959 1.17551 20.934 1.24485 20.0918 1.37906C12.2099 2.64108 6.48758 9.385 6.48758 17.4132C6.48758 23.4237 11.3576 28.3115 17.3407 28.3115C18.1956 28.3115 19.0429 28.2123 19.8628 28.0157C24.7678 26.8427 28.1945 22.4848 28.1945 17.4132C28.1945 12.3441 24.7678 7.98368 19.8628 6.81071C19.5995 6.74837 19.4157 6.51238 19.4131 6.2395C19.4131 5.96852 19.5995 5.73252 19.8628 5.66764C20.7725 5.44882 21.7113 5.34005 22.6585 5.34005C29.2879 5.34005 34.682 10.7564 34.682 17.4132C34.682 26.0254 28.545 33.2559 20.0918 34.6076C19.1898 34.752 18.263 34.8264 17.3407 34.8264Z" fill="#221E1F"/>
</svg>
