<svg width="20" height="18" viewBox="0 0 20 18" fill="none" xmlns="http://www.w3.org/2000/svg">
<g filter="url(#filter0_d_671_29545)">
<path d="M17.2695 11.6076C16.6059 10.9258 14.7198 9.64873 13.4836 9.64873C13.1973 9.64873 12.9473 9.71236 12.7428 9.84416C12.1383 10.2305 11.6566 10.5304 11.4248 10.5304C11.2975 10.5304 11.1612 10.4168 10.8612 10.1578L10.8112 10.1123C9.97953 9.38967 9.80228 9.20333 9.47959 8.86701L9.39779 8.78066C9.3387 8.72158 9.28871 8.66704 9.23872 8.61705C8.95694 8.32618 8.75242 8.11711 8.02979 7.29904L7.99797 7.26268C7.65256 6.87182 7.42532 6.61731 7.41168 6.43097C7.39805 6.24918 7.55712 5.95376 7.96161 5.40383C8.45246 4.74028 8.47064 3.92221 8.0207 2.97234C7.66165 2.22243 7.07537 1.50435 6.55725 0.872613L6.5118 0.818074C6.06641 0.272691 5.54829 0 4.9711 0C4.33027 0 3.79852 0.345409 3.51674 0.527203C3.49402 0.540838 3.47129 0.559017 3.44857 0.572652C2.81684 0.972599 2.3578 1.52253 2.1851 2.08154C1.92604 2.92234 1.75334 4.01311 2.99408 6.28099C4.06667 8.24437 5.03927 9.56238 6.58452 11.1485C8.03888 12.6392 8.68424 13.121 10.1295 14.1663C11.7384 15.3298 13.2836 15.9979 14.3653 15.9979C15.3697 15.9979 16.1605 15.9979 17.2877 14.639C18.4693 13.2119 17.9785 12.3393 17.2695 11.6076ZM16.7468 14.1481C15.8378 15.248 15.3152 15.248 14.3699 15.248C13.4473 15.248 12.0156 14.6117 10.5431 13.5528C9.13419 12.5347 8.507 12.0666 7.09354 10.6168C5.59829 9.08517 4.6575 7.80806 3.62127 5.91286C2.52596 3.90858 2.64868 3.03142 2.87137 2.30879C2.98954 1.92247 3.34404 1.50889 3.82579 1.20893C3.84852 1.1953 3.87124 1.17712 3.89851 1.16348C4.13939 1.00896 4.53934 0.749901 4.97564 0.749901C5.33923 0.749901 5.66192 0.931696 5.97097 1.30892L6.01641 1.36346C7.17535 2.78145 8.07978 4.03583 7.39805 4.96298C6.9163 5.6129 6.66178 6.05375 6.70269 6.50823C6.73905 6.94909 7.03446 7.28086 7.47986 7.78079L7.51167 7.81715C8.24339 8.64432 8.45246 8.86247 8.74333 9.15788C8.79332 9.20788 8.84331 9.26242 8.9024 9.3215L8.98421 9.40785C9.32053 9.75781 9.50686 9.94869 10.3613 10.6986L10.4113 10.744C10.7749 11.0622 11.043 11.294 11.4339 11.294C11.8384 11.294 12.2838 11.0395 13.1291 10.4986C13.2155 10.4441 13.3382 10.4123 13.4927 10.4123C14.4789 10.4123 16.1787 11.5394 16.7741 12.1529C17.3195 12.7074 17.5922 13.1255 16.7468 14.1481Z" fill="#7189AC"/>
</g>
<defs>
<filter id="filter0_d_671_29545" x="-2" y="0" width="24" height="23.998" filterUnits="userSpaceOnUse" color-interpolation-filters="sRGB">
<feFlood flood-opacity="0" result="BackgroundImageFix"/>
<feColorMatrix in="SourceAlpha" type="matrix" values="0 0 0 0 0 0 0 0 0 0 0 0 0 0 0 0 0 0 127 0" result="hardAlpha"/>
<feOffset dy="4"/>
<feGaussianBlur stdDeviation="2"/>
<feComposite in2="hardAlpha" operator="out"/>
<feColorMatrix type="matrix" values="0 0 0 0 0 0 0 0 0 0 0 0 0 0 0 0 0 0 0.25 0"/>
<feBlend mode="normal" in2="BackgroundImageFix" result="effect1_dropShadow_671_29545"/>
<feBlend mode="normal" in="SourceGraphic" in2="effect1_dropShadow_671_29545" result="shape"/>
</filter>
</defs>
</svg>
