<svg width="14" height="14" viewBox="0 0 14 14" fill="none" xmlns="http://www.w3.org/2000/svg">
<path d="M13.5435 12.5054C13.0102 11.7472 12.3604 11.0974 11.6022 10.5642C11.019 10.1559 10.4025 9.83932 9.7693 9.60604C11.119 8.70624 12.0021 7.17325 12.0021 5.4403C12.0021 2.68258 9.76097 0.441406 7.00324 0.441406C4.24552 0.441406 2.00435 2.68258 2.00435 5.4403C2.00435 7.17325 2.89582 8.70624 4.23719 9.60604C2.76252 10.1476 1.42948 11.1307 0.454697 12.5054C0.24641 12.8053 0.313062 13.2219 0.612995 13.4302C0.729636 13.5135 0.86294 13.5552 0.996243 13.5552C1.20453 13.5552 1.41282 13.4552 1.54612 13.2719C3.66232 10.2642 7.82806 9.53939 10.8357 11.6556C11.4689 12.0972 12.0105 12.647 12.452 13.2719C12.6603 13.5718 13.0769 13.6468 13.3768 13.4302C13.6851 13.2219 13.7601 12.8053 13.5435 12.5054ZM3.33739 5.4403C3.33739 3.41575 4.97869 1.77444 7.00324 1.77444C9.0278 1.77444 10.6691 3.41575 10.6691 5.4403C10.6691 7.46485 9.0278 9.10615 7.00324 9.10615C4.97869 9.10615 3.33739 7.46485 3.33739 5.4403Z" fill="#445774"/>
</svg>
