<svg width="6" height="10" viewBox="0 0 6 10" fill="none" xmlns="http://www.w3.org/2000/svg">
<path d="M3.80239 5.00054L0.388528 1.28345C0.248483 1.14201 0.169922 0.951008 0.169922 0.751966C0.169922 0.552923 0.248483 0.361925 0.388528 0.220486C0.457298 0.150655 0.539271 0.0951987 0.629675 0.057346C0.720079 0.0194934 0.817108 0 0.915117 0C1.01313 0 1.11016 0.0194934 1.20056 0.057346C1.29096 0.0951987 1.37294 0.150655 1.44171 0.220486L5.60442 4.46798C5.74427 4.60974 5.82268 4.80087 5.82268 5C5.82268 5.19914 5.74427 5.39026 5.60442 5.53202L1.44171 9.77952C1.37294 9.84935 1.29096 9.9048 1.20056 9.94265C1.11016 9.98051 1.01313 10 0.915117 10C0.817108 10 0.720079 9.98051 0.629675 9.94265C0.539271 9.9048 0.457298 9.84935 0.388528 9.77952C0.248483 9.63808 0.169922 9.44708 0.169922 9.24804C0.169922 9.04899 0.248483 8.85799 0.388528 8.71655L3.80239 5.00054Z" fill="black"/>
</svg>
