<svg width="16" height="16" viewBox="0 0 16 16" fill="none" xmlns="http://www.w3.org/2000/svg">
<path d="M15.0917 13.9358L12.3223 11.1745C13.2158 10.0361 13.7007 8.63035 13.6989 7.18317C13.6989 5.89434 13.3167 4.63446 12.6006 3.56284C11.8846 2.49122 10.8669 1.656 9.67616 1.16278C8.48544 0.669571 7.17521 0.540525 5.91115 0.791962C4.64709 1.0434 3.48597 1.66403 2.57463 2.57537C1.6633 3.4867 1.04267 4.64782 0.79123 5.91188C0.539792 7.17594 0.668839 8.48617 1.16205 9.67689C1.65526 10.8676 2.49049 11.8853 3.56211 12.6014C4.63373 13.3174 5.89361 13.6996 7.18244 13.6996C8.62962 13.7014 10.0354 13.2165 11.1737 12.323L13.9351 15.0925C14.0108 15.1688 14.1009 15.2294 14.2001 15.2708C14.2994 15.3121 14.4059 15.3334 14.5134 15.3334C14.6209 15.3334 14.7274 15.3121 14.8267 15.2708C14.9259 15.2294 15.016 15.1688 15.0917 15.0925C15.1681 15.0167 15.2287 14.9267 15.27 14.8274C15.3114 14.7281 15.3327 14.6217 15.3327 14.5141C15.3327 14.4066 15.3114 14.3001 15.27 14.2009C15.2287 14.1016 15.1681 14.0115 15.0917 13.9358ZM2.29512 7.18317C2.29512 6.21655 2.58176 5.27164 3.11878 4.46792C3.65581 3.66421 4.4191 3.03779 5.31214 2.66788C6.20518 2.29797 7.18786 2.20119 8.1359 2.38976C9.08395 2.57834 9.95479 3.04381 10.6383 3.72732C11.3218 4.41082 11.7873 5.28166 11.9758 6.2297C12.1644 7.17775 12.0676 8.16042 11.6977 9.05346C11.3278 9.9465 10.7014 10.7098 9.89768 11.2468C9.09397 11.7838 8.14906 12.0705 7.18244 12.0705C5.88624 12.0705 4.64313 11.5556 3.72658 10.639C2.81003 9.72247 2.29512 8.47937 2.29512 7.18317Z" fill="#B2BFD2"/>
</svg>
