<svg width="1044" height="80" viewBox="0 0 1044 80" fill="none" xmlns="http://www.w3.org/2000/svg">
<g clip-path="url(#clip0_671_22734)">
<path d="M0 8C0 3.58172 3.58172 0 8 0H1036C1040.42 0 1044 3.58172 1044 8V72C1044 76.4183 1040.42 80 1036 80H8C3.58172 80 0 76.4183 0 72V8Z" fill="#0487FF"/>
<g opacity="0.5">
<path d="M1098.64 284V-226H-52.0469V284C66.485 116.042 155.362 83.3734 217.247 89.1436C328.853 99.4413 348.209 234.287 474.998 254.794C606.76 276.099 666.07 143.384 818.252 141.076C928.882 139.389 1024.51 207.655 1098.64 284Z" fill="url(#paint0_linear_671_22734)"/>
<path d="M1098.64 105.123V-226H-52.0469V74.4073C-17.4196 46.4438 36.3859 12.6214 102.444 12.2663C283.483 11.1123 353.359 262.517 495.508 246.627C587.937 236.329 593.441 126.162 782.471 46.8877C839.384 23.0078 878.007 16.5274 915.653 18.7467C1007.19 23.9843 1071.92 79.201 1098.64 105.123Z" fill="url(#paint1_linear_671_22734)"/>
<path d="M-52.0469 -226H1098.56V185.462C1043.24 142.496 961.911 94.825 863.712 95.624C673.528 97.1331 586.871 278.496 466.297 241.833C362.77 210.319 379.196 61.8904 258.356 1.43604C158.38 -48.6319 34.4326 -3.18015 -51.3366 40.4073C-51.5141 -48.4543 -51.7805 -137.227 -52.0469 -226Z" fill="url(#paint2_linear_671_22734)"/>
<path d="M-52.0467 -226H1098.56C1098.56 -90.799 1098.56 44.4908 1098.56 179.692C1041.11 132.82 958.804 82.752 860.516 84.2611C674.771 87.0131 588.114 271.305 470.648 235.264C373.248 205.436 390.472 65.6188 275.758 1.34726C174.54 -55.3786 42.3349 -12.8564 -54 32.2402C-53.3785 -53.8695 -52.6682 -139.89 -52.0467 -226Z" fill="url(#paint3_linear_671_22734)"/>
<path d="M1098.64 57.6292C1098.64 -36.9138 1098.64 -131.457 1098.64 -226H-52.0471C-52.491 -167.587 -52.935 -109.264 -53.3789 -50.8512C39.1381 -87.248 176.138 -123.379 291.917 -63.2794C411.515 -1.13838 405.655 110.36 506.429 134.595C638.279 166.287 720.408 -7.26372 910.947 -3.44647C992.72 -1.84857 1058.33 31.7964 1098.64 57.6292Z" fill="url(#paint4_linear_671_22734)"/>
<path d="M-52.0469 -226H1098.56C1097.14 -152.407 1099.98 -75.6188 1098.56 -1.93735C1051.85 -29.7233 979.314 -62.9243 899.493 -57.0653C713.838 -43.3943 648.667 151.196 506.429 134.595C418.884 124.386 412.58 47.1541 295.292 -8.32898C172.587 -66.3864 41.2692 -47.3003 -51.9581 -21.2898C-52.0469 -89.5561 -52.0469 -157.822 -52.0469 -226Z" fill="url(#paint5_linear_671_22734)"/>
<path d="M1098.91 -78.7259C1098.56 -127.995 1097.67 -177.708 1098.64 -226H-52.0469V-78.7259C-12.7138 -67.718 44.8207 -56.3551 113.276 -61.4151C254.804 -71.8904 296.179 -141.577 371.028 -122.047C482.812 -92.9295 468.872 83.0183 561.122 100.418C654.705 118.172 707.179 -55.8225 880.049 -98.2559C966.084 -119.384 1045.64 -98.9661 1098.91 -78.7259Z" fill="#0360B5"/>
</g>
</g>
<defs>
<linearGradient id="paint0_linear_671_22734" x1="502.847" y1="-184.099" x2="541.819" y2="221.935" gradientUnits="userSpaceOnUse">
<stop stop-color="#02396B"/>
<stop offset="1" stop-color="#024A8C"/>
</linearGradient>
<linearGradient id="paint1_linear_671_22734" x1="378.99" y1="113.913" x2="275.049" y2="239.53" gradientUnits="userSpaceOnUse">
<stop stop-color="#02396B"/>
<stop offset="1" stop-color="#0360B5"/>
</linearGradient>
<linearGradient id="paint2_linear_671_22734" x1="255.554" y1="46.1003" x2="517.62" y2="-18.8858" gradientUnits="userSpaceOnUse">
<stop stop-color="#369FFF"/>
<stop offset="1" stop-color="#57AFFF"/>
</linearGradient>
<linearGradient id="paint3_linear_671_22734" x1="929.639" y1="144.717" x2="547.255" y2="-82.1593" gradientUnits="userSpaceOnUse">
<stop stop-color="#369FFF"/>
<stop offset="1" stop-color="#047BE8"/>
</linearGradient>
<linearGradient id="paint4_linear_671_22734" x1="816.109" y1="248.351" x2="708.921" y2="107.034" gradientUnits="userSpaceOnUse">
<stop stop-color="#369FFF"/>
<stop offset="1" stop-color="#047BE8"/>
</linearGradient>
<linearGradient id="paint5_linear_671_22734" x1="655.516" y1="-347.244" x2="434.653" y2="42.5795" gradientUnits="userSpaceOnUse">
<stop stop-color="#57AFFF"/>
<stop offset="1" stop-color="#8CC8FF"/>
</linearGradient>
<clipPath id="clip0_671_22734">
<rect width="1044" height="80" rx="8" fill="white"/>
</clipPath>
</defs>
</svg>
