<svg width="14" height="14" viewBox="0 0 14 14" fill="none" xmlns="http://www.w3.org/2000/svg">
<path d="M11.2783 8.89834C10.9189 8.90097 10.5648 8.98497 10.2426 9.14402C9.92038 9.30308 9.63836 9.53306 9.41773 9.8167L5.00196 7.60882C5.05876 7.40903 5.08915 7.20266 5.09237 6.99499C5.08915 6.78731 5.05876 6.58094 5.00196 6.38115L9.41773 4.17327C9.63836 4.45691 9.92038 4.68689 10.2426 4.84595C10.5648 5.005 10.9189 5.089 11.2783 5.09163C11.7488 5.09163 12.2088 4.9521 12.6001 4.69067C12.9913 4.42924 13.2963 4.05766 13.4763 3.62292C13.6564 3.18818 13.7035 2.7098 13.6117 2.24829C13.5199 1.78677 13.2933 1.36284 12.9606 1.0301C12.6279 0.697366 12.2039 0.47077 11.7424 0.378968C11.2809 0.287167 10.8025 0.334283 10.3678 0.514358C9.93304 0.694433 9.56146 0.99938 9.30004 1.39064C9.03861 1.78189 8.89907 2.24188 8.89907 2.71244C8.90228 2.92012 8.93268 3.12649 8.98948 3.32627L4.5737 5.53416C4.35307 5.25052 4.07105 5.02054 3.74882 4.86148C3.42659 4.70243 3.07251 4.61843 2.71317 4.6158C2.08217 4.6158 1.47702 4.86646 1.03083 5.31264C0.584648 5.75883 0.333984 6.36399 0.333984 6.99499C0.333984 7.62599 0.584648 8.23114 1.03083 8.67733C1.47702 9.12351 2.08217 9.37418 2.71317 9.37418C3.07251 9.37154 3.42659 9.28755 3.74882 9.12849C4.07105 8.96943 4.35307 8.73945 4.5737 8.45581L8.98948 10.6637C8.86114 11.1443 8.88668 11.6531 9.06249 12.1184C9.23831 12.5837 9.55556 12.9823 9.96964 13.2579C10.3837 13.5336 10.8738 13.6726 11.3709 13.6553C11.8681 13.6379 12.3473 13.4652 12.7412 13.1614C13.1351 12.8576 13.4239 12.438 13.5669 11.9615C13.7099 11.4851 13.7 10.9758 13.5385 10.5053C13.377 10.0347 13.0721 9.62667 12.6667 9.33843C12.2613 9.05019 11.7757 8.89627 11.2783 8.89834ZM11.2783 1.28493C11.5606 1.28493 11.8366 1.36865 12.0713 1.52551C12.3061 1.68237 12.4891 1.90531 12.5971 2.16616C12.7052 2.427 12.7334 2.71403 12.6783 2.99094C12.6233 3.26785 12.4873 3.52221 12.2877 3.72185C12.088 3.92149 11.8337 4.05745 11.5568 4.11253C11.2798 4.16761 10.9928 4.13934 10.732 4.03129C10.4711 3.92325 10.2482 3.74028 10.0913 3.50553C9.93447 3.27077 9.85075 2.99478 9.85075 2.71244C9.85075 2.33384 10.0011 1.97075 10.2689 1.70304C10.5366 1.43533 10.8997 1.28493 11.2783 1.28493ZM2.71317 8.4225C2.43084 8.4225 2.15484 8.33878 1.92009 8.18192C1.68534 8.02506 1.50237 7.80212 1.39432 7.54127C1.28628 7.28043 1.25801 6.9934 1.31309 6.71649C1.36817 6.43958 1.50413 6.18522 1.70377 5.98558C1.90341 5.78594 2.15777 5.64998 2.43468 5.5949C2.71159 5.53982 2.99862 5.56809 3.25946 5.67613C3.5203 5.78418 3.74325 5.96715 3.90011 6.2019C4.05697 6.43665 4.14069 6.71265 4.14069 6.99499C4.14069 7.37359 3.99029 7.73668 3.72258 8.00439C3.45487 8.2721 3.09177 8.4225 2.71317 8.4225ZM11.2783 12.705C10.9959 12.705 10.7199 12.6213 10.4852 12.4645C10.2504 12.3076 10.0675 12.0847 9.95941 11.8238C9.85136 11.563 9.82309 11.2759 9.87817 10.999C9.93326 10.7221 10.0692 10.4678 10.2689 10.2681C10.4685 10.0685 10.7229 9.93252 10.9998 9.87744C11.2767 9.82236 11.5637 9.85063 11.8245 9.95868C12.0854 10.0667 12.3083 10.2497 12.4652 10.4844C12.6221 10.7192 12.7058 10.9952 12.7058 11.2775C12.7058 11.6561 12.5554 12.0192 12.2877 12.2869C12.02 12.5546 11.6569 12.705 11.2783 12.705Z" fill="#5F6BF8"/>
</svg>
