<svg width="70" height="70" viewBox="0 0 70 70" fill="none" xmlns="http://www.w3.org/2000/svg">
<path opacity="0.2" d="M46.9237 35C46.9237 41.5849 41.5855 46.9231 35.0006 46.9231C28.4157 46.9231 23.0775 41.5849 23.0775 35C23.0775 28.4151 28.4157 23.0769 35.0006 23.0769C41.5855 23.0769 46.9237 28.4151 46.9237 35ZM27.8467 35C27.8467 38.951 31.0496 42.1539 35.0006 42.1539C38.9515 42.1539 42.1544 38.951 42.1544 35C42.1544 31.0491 38.9515 27.8462 35.0006 27.8462C31.0496 27.8462 27.8467 31.0491 27.8467 35Z" fill="white"/>
<path opacity="0.3" d="M55.3845 35C55.3845 46.2581 46.258 55.3846 34.9999 55.3846C23.7417 55.3846 14.6152 46.2581 14.6152 35C14.6152 23.7419 23.7417 14.6154 34.9999 14.6154C46.258 14.6154 55.3845 23.7419 55.3845 35ZM23.1101 35C23.1101 41.5665 28.4333 46.8897 34.9999 46.8897C41.5664 46.8897 46.8896 41.5665 46.8896 35C46.8896 28.4335 41.5664 23.1103 34.9999 23.1103C28.4333 23.1103 23.1101 28.4335 23.1101 35Z" fill="white"/>
<path opacity="0.4" d="M70 35C70 54.33 54.33 70 35 70C15.67 70 0 54.33 0 35C0 15.67 15.67 0 35 0C54.33 0 70 15.67 70 35ZM14.6642 35C14.6642 46.2312 23.7688 55.3358 35 55.3358C46.2312 55.3358 55.3358 46.2312 55.3358 35C55.3358 23.7688 46.2312 14.6642 35 14.6642C23.7688 14.6642 14.6642 23.7688 14.6642 35Z" fill="white"/>
</svg>
