<svg width="14" height="16" viewBox="0 0 14 16" fill="none" xmlns="http://www.w3.org/2000/svg">
<path d="M12.2866 5.71516L12.0289 13.5151C12.0069 14.1831 11.7255 14.8163 11.2444 15.2802C10.7632 15.7442 10.1202 16.0024 9.45185 16H4.55555C3.8876 16.0024 3.24498 15.7446 2.76391 15.2812C2.28284 14.8178 2.00115 14.1853 1.97854 13.5177L1.72084 5.71516C1.7152 5.54429 1.77767 5.37818 1.8945 5.25338C2.01134 5.12857 2.17297 5.05529 2.34383 5.04965C2.5147 5.04401 2.68081 5.10648 2.80561 5.22331C2.93042 5.34014 3.0037 5.50177 3.00934 5.67264L3.26704 13.4745C3.27988 13.8076 3.42127 14.1227 3.66154 14.3537C3.9018 14.5847 4.22224 14.7137 4.55555 14.7134H9.45185C9.78559 14.7136 10.1064 14.5844 10.3467 14.3528C10.5871 14.1212 10.7282 13.8055 10.7404 13.4719L10.9981 5.67264C11.0037 5.50177 11.077 5.34014 11.2018 5.22331C11.3266 5.10648 11.4927 5.04401 11.6636 5.04965C11.8344 5.05529 11.9961 5.12857 12.1129 5.25338C12.2297 5.37818 12.2922 5.54429 12.2866 5.71516ZM13.1389 3.11947C13.1389 3.29034 13.071 3.4542 12.9502 3.57503C12.8294 3.69585 12.6655 3.76372 12.4947 3.76372H1.51339C1.34253 3.76372 1.17866 3.69585 1.05784 3.57503C0.937017 3.4542 0.869141 3.29034 0.869141 3.11947C0.869141 2.9486 0.937017 2.78474 1.05784 2.66392C1.17866 2.5431 1.34253 2.47522 1.51339 2.47522H3.51057C3.7147 2.47577 3.91173 2.40035 4.06332 2.26364C4.21492 2.12694 4.31023 1.93872 4.3307 1.73562C4.37824 1.25919 4.60146 0.817517 4.95685 0.496665C5.31224 0.175812 5.77435 -0.0012391 6.25315 6.52812e-06H7.75425C8.23305 -0.0012391 8.69516 0.175812 9.05055 0.496665C9.40594 0.817517 9.62916 1.25919 9.6767 1.73562C9.69717 1.93872 9.79248 2.12694 9.94408 2.26364C10.0957 2.40035 10.2927 2.47577 10.4968 2.47522H12.494C12.6649 2.47522 12.8287 2.5431 12.9496 2.66392C13.0704 2.78474 13.1383 2.9486 13.1383 3.11947H13.1389ZM5.44912 2.47522H8.55957C8.47491 2.28178 8.41954 2.0768 8.39528 1.86705C8.37932 1.70824 8.30498 1.56102 8.18667 1.4539C8.06836 1.34677 7.9145 1.28738 7.7549 1.28722H6.25379C6.09419 1.28738 5.94033 1.34677 5.82202 1.4539C5.7037 1.56102 5.62937 1.70824 5.61341 1.86705C5.58894 2.07684 5.53336 2.28181 5.44848 2.47522H5.44912ZM6.09788 12.2363V6.75047C6.09788 6.5796 6.03001 6.41574 5.90919 6.29492C5.78837 6.1741 5.6245 6.10622 5.45363 6.10622C5.28277 6.10622 5.1189 6.1741 4.99808 6.29492C4.87726 6.41574 4.80938 6.5796 4.80938 6.75047V12.2388C4.80938 12.4097 4.87726 12.5736 4.99808 12.6944C5.1189 12.8152 5.28277 12.8831 5.45363 12.8831C5.6245 12.8831 5.78837 12.8152 5.90919 12.6944C6.03001 12.5736 6.09788 12.4097 6.09788 12.2388V12.2363ZM9.19931 12.2363V6.75047C9.19931 6.5796 9.13143 6.41574 9.01061 6.29492C8.88979 6.1741 8.72592 6.10622 8.55506 6.10622C8.38419 6.10622 8.22032 6.1741 8.0995 6.29492C7.97868 6.41574 7.91081 6.5796 7.91081 6.75047V12.2388C7.91081 12.4097 7.97868 12.5736 8.0995 12.6944C8.22032 12.8152 8.38419 12.8831 8.55506 12.8831C8.72592 12.8831 8.88979 12.8152 9.01061 12.6944C9.13143 12.5736 9.19931 12.4097 9.19931 12.2388V12.2363Z" fill="#B2BFD2"/>
</svg>
