<svg width="92" height="91" viewBox="0 0 92 91" fill="none" xmlns="http://www.w3.org/2000/svg">
<path d="M65.7484 46.5718L53.1025 24.7383H78.3914L65.7484 46.5718Z" fill="#2780BA"/>
<path d="M65.7342 46.5718H40.5283L53.0883 24.7383L65.7342 46.5718Z" fill="#3896D2"/>
<path d="M53.0883 68.4109L40.5283 46.5713H65.7342L53.0883 68.4109Z" fill="#C03B2B"/>
<path d="M53.1121 68.4109H27.9092L40.5521 46.5713L53.1121 68.4109Z" fill="#E64C3B"/>
<path d="M38.3033 43.8195L13.1953 43.8306L25.8021 21.9062L38.3033 43.8195Z" fill="#884B9D"/>
<path d="M38.3033 43.8359L25.6995 65.7645L13.1953 43.847L38.3033 43.8359Z" fill="#AC7AB4"/>
<path d="M25.8232 21.9153L0.717773 21.9277L13.3216 0L25.8232 21.9153Z" fill="#0EA085"/>
<path d="M25.8232 21.9297L13.2215 43.8582L0.717773 21.9421L25.8232 21.9297Z" fill="#1CB898"/>
<path d="M40.469 90.2609L27.9092 68.4307H53.1121L40.469 90.2609Z" fill="#F29B20"/>
<path d="M40.446 90.2609H15.2432L27.8861 68.4307L40.446 90.2609Z" fill="#EEC319"/>
<path d="M78.4105 24.7402L65.7676 2.90527H91.0458L78.4105 24.7402Z" fill="#0B1C3C"/>
<path d="M78.3914 24.7402H53.1025L65.7484 2.90527L78.3914 24.7402Z" fill="#3E4965"/>
</svg>
